<mxfile host="app.diagrams.net" agent="Mozilla/5.0 (Windows NT 10.0; Win64; x64) AppleWebKit/537.36 (KHTML, like Gecko) Chrome/138.0.0.0 Safari/537.36" version="27.2.0">
  <diagram name="Page-1" id="3LBPZVXVRa57ZVAdRkms">
    <mxGraphModel dx="1919" dy="1756" grid="1" gridSize="10" guides="1" tooltips="1" connect="1" arrows="1" fold="1" page="1" pageScale="1" pageWidth="827" pageHeight="1169" math="0" shadow="0">
      <root>
        <mxCell id="0" />
        <mxCell id="1" parent="0" />
        <mxCell id="MBSqLJU8_XcgEEYuNx-6-44" value="" style="rounded=0;whiteSpace=wrap;html=1;" parent="1" vertex="1">
          <mxGeometry x="-670" y="-430" width="2990" height="1350" as="geometry" />
        </mxCell>
        <mxCell id="MBSqLJU8_XcgEEYuNx-6-14" value="" style="rounded=1;whiteSpace=wrap;html=1;arcSize=4;dashed=1;glass=0;shadow=1;strokeWidth=3;" parent="1" vertex="1">
          <mxGeometry x="-650" y="-410" width="2950" height="1300" as="geometry" />
        </mxCell>
        <mxCell id="5dPL2T662DZrtEGffsGk-1" value="" style="rounded=1;whiteSpace=wrap;html=1;labelBackgroundColor=none;strokeColor=#009900;arcSize=6;strokeWidth=3;" parent="1" vertex="1">
          <mxGeometry x="-190" y="-300" width="2443.4" height="1170" as="geometry" />
        </mxCell>
        <mxCell id="e53sIIh-dQqDBN9aHjkJ-65" value="" style="rounded=1;whiteSpace=wrap;html=1;fillColor=#FFE6CC;strokeColor=#d6b656;arcSize=8;" parent="1" vertex="1">
          <mxGeometry x="17" y="-40" width="523" height="860" as="geometry" />
        </mxCell>
        <mxCell id="e53sIIh-dQqDBN9aHjkJ-64" value="" style="rounded=1;whiteSpace=wrap;html=1;fillColor=#d5e8d4;strokeColor=#82b366;" parent="1" vertex="1">
          <mxGeometry x="-370" y="-40" width="359" height="860" as="geometry" />
        </mxCell>
        <mxCell id="e53sIIh-dQqDBN9aHjkJ-54" value="" style="rounded=1;whiteSpace=wrap;html=1;dashed=1;fillColor=#cce5ff;strokeColor=#36393d;" parent="1" vertex="1">
          <mxGeometry x="-600" width="1140" height="280" as="geometry" />
        </mxCell>
        <mxCell id="e53sIIh-dQqDBN9aHjkJ-57" style="edgeStyle=orthogonalEdgeStyle;rounded=0;orthogonalLoop=1;jettySize=auto;html=1;exitX=1;exitY=0.5;exitDx=0;exitDy=0;entryX=0;entryY=0.5;entryDx=0;entryDy=0;" parent="1" source="gj_vHPTRaO-E7spt2F42-1" target="gj_vHPTRaO-E7spt2F42-7" edge="1">
          <mxGeometry relative="1" as="geometry" />
        </mxCell>
        <mxCell id="gj_vHPTRaO-E7spt2F42-1" value="" style="rounded=1;whiteSpace=wrap;html=1;dashed=1;spacing=2;" parent="1" vertex="1">
          <mxGeometry x="50" y="25" width="170" height="230" as="geometry" />
        </mxCell>
        <mxCell id="gj_vHPTRaO-E7spt2F42-5" value="&lt;font style=&quot;font-size: 20px;&quot;&gt;ML Pipeline&lt;/font&gt;" style="shape=step;perimeter=stepPerimeter;whiteSpace=wrap;html=1;fixedSize=1;strokeWidth=1;size=10;fillColor=#e1d5e7;strokeColor=#9673a6;" parent="1" vertex="1">
          <mxGeometry x="860" y="-100" width="1370" height="40" as="geometry" />
        </mxCell>
        <mxCell id="gj_vHPTRaO-E7spt2F42-8" value="&lt;font style=&quot;font-size: 20px;&quot;&gt;Data Engineering&lt;/font&gt;" style="shape=step;perimeter=stepPerimeter;whiteSpace=wrap;html=1;fixedSize=1;size=10;fillColor=#e1d5e7;strokeColor=#9673a6;" parent="1" vertex="1">
          <mxGeometry x="30" y="-100" width="500" height="40" as="geometry" />
        </mxCell>
        <mxCell id="gj_vHPTRaO-E7spt2F42-12" value="&lt;font style=&quot;font-size: 20px;&quot;&gt;Data Ingestion&lt;/font&gt;" style="shape=step;perimeter=stepPerimeter;whiteSpace=wrap;html=1;fixedSize=1;size=10;fillColor=#e1d5e7;strokeColor=#9673a6;" parent="1" vertex="1">
          <mxGeometry x="-360" y="-100" width="350" height="40" as="geometry" />
        </mxCell>
        <mxCell id="e53sIIh-dQqDBN9aHjkJ-56" style="edgeStyle=orthogonalEdgeStyle;rounded=0;orthogonalLoop=1;jettySize=auto;html=1;exitX=1;exitY=0.5;exitDx=0;exitDy=0;entryX=0;entryY=0.5;entryDx=0;entryDy=0;" parent="1" source="gj_vHPTRaO-E7spt2F42-14" target="gj_vHPTRaO-E7spt2F42-1" edge="1">
          <mxGeometry relative="1" as="geometry" />
        </mxCell>
        <mxCell id="gj_vHPTRaO-E7spt2F42-14" value="&lt;font style=&quot;font-size: 18px; color: rgb(51, 51, 51);&quot;&gt;&lt;b&gt;Data Source&lt;/b&gt;&lt;/font&gt;" style="rounded=1;whiteSpace=wrap;html=1;dashed=1;" parent="1" vertex="1">
          <mxGeometry x="-360" y="64.5" width="150" height="150" as="geometry" />
        </mxCell>
        <mxCell id="gj_vHPTRaO-E7spt2F42-22" value="Cloud&#xa;Storage" style="sketch=0;html=1;verticalAlign=top;labelPosition=center;verticalLabelPosition=bottom;align=center;spacingTop=-6;fontSize=20;fontStyle=1;fontColor=#333333;shape=image;aspect=fixed;imageAspect=0;image=data:image/svg+xml,PHN2ZyB4bWxucz0iaHR0cDovL3d3dy53My5vcmcvMjAwMC9zdmciIHhtbG5zOnY9Imh0dHBzOi8vdmVjdGEuaW8vbmFubyIgd2lkdGg9IjIwIiBoZWlnaHQ9IjE2IiB2aWV3Qm94PSIwIDAgMjAgMTYiPiYjeGE7CTxzdHlsZSB0eXBlPSJ0ZXh0L2NzcyI+JiN4YTsJLnN0MHtmaWxsOiM0Mjg1ZjQ7fSYjeGE7CS5zdDF7ZmlsbDojNjY5ZGY2O30mI3hhOwkuc3Qye2ZpbGw6I2FlY2JmYTt9JiN4YTsJLnN0M3tmaWxsOiNmZmY7fSYjeGE7CTwvc3R5bGU+JiN4YTsJPHBhdGggY2xhc3M9InN0MiIgZD0iTTAgMGgyMHY3SDB6Ii8+JiN4YTsJPHBhdGggY2xhc3M9InN0MSIgZD0iTTE4IDBoMnY3aC0yeiIvPiYjeGE7CTxwYXRoIGNsYXNzPSJzdDAiIGQ9Ik0xOCA3bDItN2gtMnoiLz4mI3hhOwk8cGF0aCBjbGFzcz0ic3QxIiBkPSJNMCAwaDJ2N0gweiIvPiYjeGE7CTxnIGNsYXNzPSJzdDMiPiYjeGE7CQk8cGF0aCBkPSJNNCAzaDZ2MUg0eiIvPiYjeGE7CQk8cmVjdCB4PSIxMyIgeT0iMiIgd2lkdGg9IjMiIGhlaWdodD0iMyIgcng9IjEuNSIvPiYjeGE7CTwvZz4mI3hhOwk8cGF0aCBjbGFzcz0ic3QyIiBkPSJNMCA5aDIwdjdIMHoiLz4mI3hhOwk8cGF0aCBjbGFzcz0ic3QxIiBkPSJNMTggOWgydjdoLTJ6Ii8+JiN4YTsJPHBhdGggY2xhc3M9InN0MCIgZD0iTTE4IDE2bDItN2gtMnoiLz4mI3hhOwk8cGF0aCBjbGFzcz0ic3QxIiBkPSJNMCA5aDJ2N0gweiIvPiYjeGE7CTxnIGNsYXNzPSJzdDMiPiYjeGE7CQk8cGF0aCBkPSJNNCAxMmg2djFINHoiLz4mI3hhOwkJPHJlY3QgeD0iMTMiIHk9IjExIiB3aWR0aD0iMyIgaGVpZ2h0PSIzIiByeD0iMS41Ii8+JiN4YTsJPC9nPiYjeGE7PC9zdmc+;" parent="1" vertex="1">
          <mxGeometry x="97.94" y="115.5" width="74.12" height="60" as="geometry" />
        </mxCell>
        <mxCell id="e53sIIh-dQqDBN9aHjkJ-94" value="" style="rounded=1;whiteSpace=wrap;html=1;arcSize=8;fillColor=#fff2cc;strokeColor=#d6b656;" parent="1" vertex="1">
          <mxGeometry x="860" y="-35" width="1370" height="645" as="geometry" />
        </mxCell>
        <mxCell id="gj_vHPTRaO-E7spt2F42-7" value="" style="rounded=1;whiteSpace=wrap;html=1;dashed=1;" parent="1" vertex="1">
          <mxGeometry x="279.98" y="25" width="200.02" height="230" as="geometry" />
        </mxCell>
        <mxCell id="gj_vHPTRaO-E7spt2F42-4" value="" style="rounded=1;whiteSpace=wrap;html=1;dashed=1;" parent="1" vertex="1">
          <mxGeometry x="870" width="1350" height="580" as="geometry" />
        </mxCell>
        <mxCell id="gj_vHPTRaO-E7spt2F42-29" value="Dataflow" style="sketch=0;html=1;verticalAlign=top;labelPosition=center;verticalLabelPosition=bottom;align=center;spacingTop=-6;fontSize=20;fontStyle=1;fontColor=#333333;shape=image;aspect=fixed;imageAspect=0;image=data:image/svg+xml,PHN2ZyB4bWxucz0iaHR0cDovL3d3dy53My5vcmcvMjAwMC9zdmciIHhtbG5zOnY9Imh0dHBzOi8vdmVjdGEuaW8vbmFubyIgd2lkdGg9IjE0LjUxOTk5OTUwNDA4OTM1NSIgaGVpZ2h0PSIyMCIgdmlld0JveD0iMCAwIDE0LjUxOTk5OTUwNDA4OTM1NSAyMCI+JiN4YTsJPHN0eWxlIHR5cGU9InRleHQvY3NzIj4mI3hhOwkuc3Qwe2ZpbGwtcnVsZTpldmVub2RkfSYjeGE7CS5zdDF7ZmlsbDojNjY5ZGY2O30mI3hhOwkuc3Qye2ZpbGw6I2FlY2JmYTt9JiN4YTsJLnN0M3tmaWxsOiM0Mjg1ZjQ7fSYjeGE7CTwvc3R5bGU+JiN4YTsJPGcgY2xhc3M9InN0MCI+JiN4YTsJCTxwYXRoIGNsYXNzPSJzdDEiIGQ9Ik03LjM3IDIuMDNsLTEuNzIuOTYgMS41MiAxLjUtLjAyIDEuNzMgMS4wMi4wMS4wMi0xLjczIDQuMjQgMi41Ni0uMDEgMS4wNyAxLjc3LjAzVjYuMTFMOS4wNSAzLjA0bC0uMjctLjk0eiIvPiYjeGE7CQk8cGF0aCBjbGFzcz0ic3QyIiBkPSJNNy4zNiAyLjAzbC0xLjQyLjM1LS4yOS42MUwuMzkgNS45Mi4zNiA3Ljk3IDIuMTQgOGwuMDItMS4wNyA0LjMxLTIuNDUtLjAyIDEuNzMuODYuMDEuMDYtNC4xOXoiLz4mI3hhOwkJPGcgY2xhc3M9InN0MSI+JiN4YTsJCQk8cGF0aCBkPSJNNy4zNiAyLjAzTDMuOTUgMCAyLjIxLjk1bDMuNDQgMi4wNCAxLjcyLS45NnptLjcxIDExLjc2bC0xLjcyLS4wMi0uMDIgMS43Mi44MiAyLjQ4IDEuNDItLjEyLjI5LS44NSA1LjI3LTIuOTMuMDMtMi4wOS0xLjc5LS4wMi0uMDIgMS4xLTQuMyAyLjQ1eiIvPiYjeGE7CQkJPHBhdGggZD0iTTcuMTUgMTcuOTdsLTMuNDYgMS45NGgtLjA1bC0xLjY2LS45OSAzLjQ5LTEuOTYgMS42OCAxLjAxeiIvPiYjeGE7CQk8L2c+JiN4YTsJCTxwYXRoIGNsYXNzPSJzdDMiIGQ9Ik0xMC44OC4wOWgtLjA1TDcuMzcgMi4wM2wxLjY4IDEuMDEgMy40OS0xLjk2ek0xMC42MiAyMGgtLjA1bC0zLjQyLTIuMDNoMCAwIDBsMS43Mi0uOTYgMy40NCAyLjA0eiIvPiYjeGE7CQk8cGF0aCBjbGFzcz0ic3QyIiBkPSJNLjMzIDEzLjg5di0yaDEuNzZsLS4wMSAxLjA0IDQuMjUgMi41Ni4wMi0xLjcyLjg2LjAxLS4wNiA0LjE4LTEuNjgtMXoiLz4mI3hhOwk8L2c+JiN4YTsJPGNpcmNsZSBjbGFzcz0ic3QyIiBjeD0iMTMuMzgiIGN5PSIxMC4wNCIgcj0iMS4xNCIvPiYjeGE7CTxjaXJjbGUgY2xhc3M9InN0MiIgY3g9IjEuMTQiIGN5PSI5Ljg4IiByPSIxLjE0Ii8+JiN4YTsJPGNpcmNsZSBjbGFzcz0ic3QyIiBjeD0iNy4zMiIgY3k9IjcuOTkiIHI9IjEuMTQiLz4mI3hhOwk8Y2lyY2xlIGNsYXNzPSJzdDIiIGN4PSI3LjIzIiBjeT0iMTIiIHI9IjEuMTQiLz4mI3hhOzwvc3ZnPg==;" parent="1" vertex="1">
          <mxGeometry x="346.40000000000003" y="94.5" width="67.17" height="91" as="geometry" />
        </mxCell>
        <mxCell id="MBSqLJU8_XcgEEYuNx-6-22" value="" style="rounded=1;whiteSpace=wrap;html=1;fillColor=#BCF1F4;strokeColor=#0e8088;" parent="1" vertex="1">
          <mxGeometry x="560" y="-35" width="260" height="645" as="geometry" />
        </mxCell>
        <mxCell id="e53sIIh-dQqDBN9aHjkJ-1" value="" style="fillColor=#ffffff;strokeColor=none;shadow=0;strokeWidth=0;rounded=1;absoluteArcSize=1;arcSize=2;dashed=1;dashPattern=1 4;fontSize=27;fontStyle=1;fontColor=#333333;" parent="1" vertex="1">
          <mxGeometry x="1415" y="10" width="191" height="80" as="geometry" />
        </mxCell>
        <mxCell id="e53sIIh-dQqDBN9aHjkJ-2" value="&lt;font style=&quot;font-size: 22px; color: rgb(51, 51, 51);&quot;&gt;Vertex AI&lt;/font&gt;" style="editableCssRules=.*;html=1;fontColor=light-dark(#8f8f8f, #6a6a6a);shape=image;verticalLabelPosition=middle;verticalAlign=middle;labelPosition=right;align=left;spacingLeft=20;part=1;points=[];imageAspect=0;image=data:image/svg+xml,PHN2ZyB4bWxucz0iaHR0cDovL3d3dy53My5vcmcvMjAwMC9zdmciIGlkPSJzdmc1IiB2ZXJzaW9uPSIxLjEiIHZpZXdCb3g9IjAgMCAyMzkuNzA4MjUgMjc0Ljg2MzI4IiBoZWlnaHQ9IjI3NC44NjMyOG1tIiB3aWR0aD0iMjM5LjcwODI1bW0iPiYjeGE7ICAmI3hhOyAgPGRlZnMgaWQ9ImRlZnMyIi8+JiN4YTsgIDxnIHRyYW5zZm9ybT0idHJhbnNsYXRlKC02Ni42ODYzNjEsNjAuMjU5NzY2KSIgaWQ9ImxheWVyMSI+JiN4YTsgICAgPGcgc3R5bGU9Im9wYWNpdHk6MC45OSIgaWQ9InBhdGg4NjkiLz4mI3hhOyAgICA8ZyBzdHlsZT0ib3BhY2l0eTowLjk5IiBpZD0icGF0aDg2OS0yIi8+JiN4YTsgICAgPGcgc3R5bGU9Im9wYWNpdHk6MC45OSIgaWQ9InBhdGg4NjktMyIvPiYjeGE7ICAgIDxnIHN0eWxlPSJvcGFjaXR5OjAuOTkiIGlkPSJwYXRoODY5LTEiLz4mI3hhOyAgICA8ZyBzdHlsZT0ib3BhY2l0eTowLjk5IiBpZD0icGF0aDg2OS04Ii8+JiN4YTsgICAgPGcgc3R5bGU9Im9wYWNpdHk6MC45OSIgaWQ9InBhdGg4NzEiPiYjeGE7ICAgICAgPHBhdGggaWQ9InBhdGgzMzU3IiBkPSJtIDc3LjE4Njc3NSwxMTAuODgyNTIgOTQuMjM5Njk1LDY5Ljc0NTc1IiBzdHlsZT0iY29sb3I6IzAwMDAwMDtmaWxsOiMwMDgwMDA7c3Ryb2tlLXdpZHRoOjIxO3N0cm9rZS1saW5lY2FwOnJvdW5kOy1pbmtzY2FwZS1zdHJva2U6bm9uZSIvPiYjeGE7ICAgIDwvZz4mI3hhOyAgICA8ZyBzdHlsZT0ib3BhY2l0eTowLjk5IiBpZD0icGF0aDg3MyIvPiYjeGE7ICAgIDxwYXRoIGQ9Im0gMTUzLjA4MTIsMTA5LjAzNTY4IGMgMCw2LjEyMDQ3IC00Ljk2MTYyLDExLjA4MjA5IC0xMS4wODIwOSwxMS4wODIwOSAtNi4xMjA0NywwIC0xMS4wODIwOCwtNC45NjE2MiAtMTEuMDgyMDgsLTExLjA4MjA5IDAsLTYuMTIwNDYgNC45NjE2MiwtMTEuMDgyMDgyIDExLjA4MjA4LC0xMS4wODIwODcgNi4xMjA0NywtMTBlLTcgMTEuMDgyMDksNC45NjE2MTcgMTEuMDgyMDksMTEuMDgyMDg3IHogbSAwLC05Mi41MTMzODEgYyAwLDYuMTIwNDY5IC00Ljk2MTYyLDExLjA4MjA5IC0xMS4wODIwOSwxMS4wODIwODkgLTYuMTIwNDcsLTVlLTYgLTExLjA4MjA4LC00Ljk2MTYyNCAtMTEuMDgyMDgsLTExLjA4MjA4OSAwLC02LjEyMDQ2NSA0Ljk2MTYxLC0xMS4wODIwODQ2IDExLjA4MjA4LC0xMS4wODIwODk2IDYuMTIwNDcsLTZlLTcgMTEuMDgyMDksNC45NjE2MjA2IDExLjA4MjA5LDExLjA4MjA4OTYgeiBtIDAsLTMyLjkyMTY4MyBjIDAsNi4xMjA0NjkgLTQuOTYxNjIsMTEuMDgyMDkwNSAtMTEuMDgyMDksMTEuMDgyMDg5OSAtNi4xMjA0NywtNWUtNiAtMTEuMDgyMDgsLTQuOTYxNjIzOSAtMTEuMDgyMDgsLTExLjA4MjA4OTkgMCwtNi4xMjA0NjUgNC45NjE2MSwtMTEuMDgyMDg0IDExLjA4MjA4LC0xMS4wODIwODkgNi4xMjA0NywtMTBlLTcgMTEuMDgyMDksNC45NjE2MiAxMS4wODIwOSwxMS4wODIwODkgeiBNIDEwOC43NDE4MSw3Ni43MTgwMSBjIDAsNi4xMjA0NjkgLTQuOTYxNjIsMTEuMDgyMDg5IC0xMS4wODIwODksMTEuMDgyMDg5IC02LjEyMDQ2OSwwIC0xMS4wODIwODksLTQuOTYxNjIgLTExLjA4MjA4OSwtMTEuMDgyMDg5IDAsLTYuMTIwNDY5IDQuOTYxNjIsLTExLjA4MjA4OSAxMS4wODIwODksLTExLjA4MjA4OSA2LjEyMDQ2OSwwIDExLjA4MjA4OSw0Ljk2MTYyIDExLjA4MjA4OSwxMS4wODIwODkgeiBtIDAsLTMyLjY4MDYyNiBjIDAsNi4xMjA0NjkgLTQuOTYxNjIsMTEuMDgyMDg5IC0xMS4wODIwODksMTEuMDgyMDg5IC02LjEyMDQ2OSwwIC0xMS4wODIwODksLTQuOTYxNjIgLTExLjA4MjA4OSwtMTEuMDgyMDg5IDAsLTYuMTIwNDY5IDQuOTYxNjIsLTExLjA4MjA4OSAxMS4wODIwODksLTExLjA4MjA4OSA2LjEyMDQ2OSwwIDExLjA4MjA4OSw0Ljk2MTYyIDExLjA4MjA4OSwxMS4wODIwODkgeiBtIDAsLTMyLjY3ODI0MyBjIDAsNi4xMjA0NjkgLTQuOTYxNjIsMTEuMDgyMDkgLTExLjA4MjA4OSwxMS4wODIwOSAtNi4xMjA0NjksMCAtMTEuMDgyMDksLTQuOTYxNjIxIC0xMS4wODIwODksLTExLjA4MjA5IDAsLTYuMTIwNDY4OCA0Ljk2MTYyLC0xMS4wODIwODkwNyAxMS4wODIwODksLTExLjA4MjA4OTA3IDYuMTIwNDY5LDAgMTEuMDgyMDg5LDQuOTYxNjIwMjcgMTEuMDgyMDg5LDExLjA4MjA4OTA3IHogTSAxNDIsMzcuNzc5Mjk3IGMgLTUuNzk4OTksMCAtMTAuNSw0LjcwMTAxIC0xMC41LDEwLjUgdiAyOC45OTQxNCBjIDAsNS43OTg5OSA0LjcwMTAxLDEwLjUgMTAuNSwxMC41IDUuNzk4OTksMCAxMC41LC00LjcwMTAxIDEwLjUsLTEwLjUgdiAtMjguOTk0MTQgYyAwLC01Ljc5ODk5IC00LjcwMTAxLC0xMC41IC0xMC41LC0xMC41IHogbSAtOC45ZS00LDEwLjUwMDM3NyBWIDc3LjI3MzY5MSBNIDk3LjY2MDE1NiwtNjAuMjU5NzY2IGMgLTUuNzk4OTksMCAtMTAuNSw0LjcwMTAxIC0xMC41LDEwLjUgdiAyOC45OTQxNDEgYyAwLDUuNzk4OTkgNC43MDEwMSwxMC41IDEwLjUsMTAuNSA1Ljc5ODk5NCwyZS02IDEwLjUwMDAwNCwtNC43MDEwMDkgMTAuNTAwMDA0LC0xMC41IHYgLTI4Ljk5NDE0MSBjIDAsLTUuNzk4OTkxIC00LjcwMTAxLC0xMC41MDAwMDIgLTEwLjUwMDAwNCwtMTAuNSB6IG0gLTQuMzVlLTQsMTAuNDk5NzY1IHYgMjguOTk0MDE3IE0gNzUuNjM0NzY2LDEwMC40OTgwNSBjIC0yLjc1NDE5MSwwLjQxMTQ4IC01LjIzMjExOSwxLjkwMDIxIC02Ljg4ODY3Miw0LjEzODY3IC0zLjQ0ODg3NCw0LjY2MTU3IC0yLjQ2NjAyNCwxMS4yMzYzNSAyLjE5NTMxMiwxNC42ODU1NSBsIDk0LjIzODI4NCw2OS43NDYwOSAxMi43ODYwNCwtMTYuNjY2NTkgLTk0LjUzMjEzNiwtNjkuOTU4NDEgYyAtMi4yMzg2OTksLTEuNjU3MTYgLTUuMDQ0MTAxLC0yLjM1NjkzIC03Ljc5ODgyOCwtMS45NDUzMSB6IiBzdHlsZT0iY29sb3I6IzAwMDAwMDtvcGFjaXR5OjAuOTk7ZmlsbDojYjVjYmY5O2ZpbGwtb3BhY2l0eToxO3N0cm9rZS13aWR0aDoyMTtzdHJva2UtbGluZWNhcDpyb3VuZDtzdHJva2UtbGluZWpvaW46cm91bmQ7LWlua3NjYXBlLXN0cm9rZTpub25lIiBpZD0icGF0aDE4NDAtNSIvPiYjeGE7ICAgIDxwYXRoIGQ9Im0gMTk3LjM5Mjc2LDE0MS45NzM2NiBjIDAsNi4xMjA0NyAtNC45NjE2MiwxMS4wODIwOSAtMTEuMDgyMDksMTEuMDgyMDkgLTYuMTIwNDcsMCAtMTEuMDgyMDksLTQuOTYxNjIgLTExLjA4MjA5LC0xMS4wODIwOSAwLC02LjEyMDQ3IDQuOTYxNjIsLTExLjA4MjA5IDExLjA4MjA5LC0xMS4wODIwOSA2LjEyMDQ3LDAgMTEuMDgyMDksNC45NjE2MiAxMS4wODIwOSwxMS4wODIwOSB6IG0gMCwtOTIuNzI1NTg2IGMgMCw2LjEyMDQ2OSAtNC45NjE2MiwxMS4wODIwOSAtMTEuMDgyMDksMTEuMDgyMDg5IC02LjEyMDQ3LDFlLTYgLTExLjA4MjA5LC00Ljk2MTYyIC0xMS4wODIwOSwtMTEuMDgyMDg5IDAsLTYuMTIwNDcgNC45NjE2MiwtMTEuMDgyMDkxIDExLjA4MjA5LC0xMS4wODIwOSA2LjEyMDQ3LC0xZS02IDExLjA4MjA5LDQuOTYxNjIgMTEuMDgyMDksMTEuMDgyMDkgeiBtIDAsLTMyLjg1NDQ1OCBjIDAsNi4xMjA0NjkgLTQuOTYxNjIsMTEuMDgyMDkgLTExLjA4MjA5LDExLjA4MjA4OSAtNi4xMjA0NywxMGUtNyAtMTEuMDgyMDksLTQuOTYxNjIgLTExLjA4MjA5LC0xMS4wODIwODkgMCwtNi4xMjA0NjkgNC45NjE2MiwtMTEuMDgyMDkwMyAxMS4wODIwOSwtMTEuMDgyMDg5NyA2LjEyMDQ3LC02ZS03IDExLjA4MjA5LDQuOTYxNjIwNyAxMS4wODIwOSwxMS4wODIwODk3IHogbSAxMDAuMDI5MTEsODQuMDA2Nzc0IGMgLTIuNzU1MTcsLTAuNDA1MDA0IC01LjU1ODM4LDAuMzAxMDcgLTcuNzkyOTYsMS45NjI4OSBsIC05NC43NDYxLDcwLjQzNzUgMTIuNTI5MywxNi44NTM1MiA5NC43NDYwOSwtNzAuNDM3NSBjIDQuNjU0MTIsLTMuNDU5NzggNS42MjIxNSwtMTAuMDM3NDggMi4xNjIxMSwtMTQuNjkxNDEgLTEuNjYxMzYsLTIuMjM1NTMgLTQuMTQyODcsLTMuNzE5MzcgLTYuODk4NDQsLTQuMTI1IHogTSAxODYuMzEwNTUsNzAuODY3MTg3IGMgLTUuNzk4OTksMCAtMTAuNSw0LjcwMTAxIC0xMC41LDEwLjUgdiAyOC45OTQxNDMgYyAwLDUuNzk4OTkgNC43MDEwMSwxMC41IDEwLjUsMTAuNSA1Ljc5ODk5LDAgMTAuNSwtNC43MDEwMSAxMC41LC0xMC41IFYgODEuMzY3MTg3IGMgMCwtNS43OTg5OSAtNC43MDEwMSwtMTAuNSAtMTAuNSwtMTAuNSB6IG0gMS4yZS00LDEwLjUwMDgyNyB2IDI4Ljk5NDAxNiIgc3R5bGU9ImNvbG9yOiMwMDAwMDA7b3BhY2l0eTowLjk5O2ZpbGw6Izc2OWVmNTtmaWxsLW9wYWNpdHk6MTtzdHJva2Utd2lkdGg6MjE7c3Ryb2tlLWxpbmVjYXA6cm91bmQ7c3Ryb2tlLWxpbmVqb2luOnJvdW5kOy1pbmtzY2FwZS1zdHJva2U6bm9uZSIgaWQ9InBhdGgxODQwLTMiLz4mI3hhOyAgICA8cGF0aCBkPSJtIDE4Ni4zNDU3LDE3MC42ODE2NCBjIC0xMi4wNDU3LDAgLTIxLjk2MDkzLDkuOTE1MjQgLTIxLjk2MDkzLDIxLjk2MDk0IDAsMTIuMDQ1NyA5LjkxNTIzLDIxLjk2MDk0IDIxLjk2MDkzLDIxLjk2MDk0IDEyLjA0NTcsMCAyMS45NjA5NCwtOS45MTUyNCAyMS45NjA5NCwtMjEuOTYwOTQgMCwtMTIuMDQ1NyAtOS45MTUyNCwtMjEuOTYwOTQgLTIxLjk2MDk0LC0yMS45NjA5NCB6IG0gMCwxNCBjIDQuNDc5NTUsMCA3Ljk2MDk0LDMuNDgxMzkgNy45NjA5NCw3Ljk2MDk0IDAsNC40Nzk1NSAtMy40ODEzOSw3Ljk2MDk0IC03Ljk2MDk0LDcuOTYwOTQgLTQuNDc5NTQsMCAtNy45NjA5MywtMy40ODEzOSAtNy45NjA5MywtNy45NjA5NCAwLC00LjQ3OTU1IDMuNDgxMzksLTcuOTYwOTQgNy45NjA5MywtNy45NjA5NCB6IE0gMjg2LjE2MTM3LDc2Ljc5MTAwOCBBIDExLjA4MjA4OSwxMS4wODIwODkgMCAwIDEgMjc1LjA3OTI4LDg3Ljg3MzA5NyAxMS4wODIwODksMTEuMDgyMDg5IDAgMCAxIDI2My45OTcyLDc2Ljc5MTAwOCAxMS4wODIwODksMTEuMDgyMDg5IDAgMCAxIDI3NS4wNzkyOCw2NS43MDg5MTkgMTEuMDgyMDg5LDExLjA4MjA4OSAwIDAgMSAyODYuMTYxMzcsNzYuNzkxMDA4IFogbSAwLC0zMy4xNDU0MzUgYSAxMS4wODIwODksMTEuMDgyMDg5IDAgMCAxIC0xMS4wODIwOSwxMS4wODIwODkgMTEuMDgyMDg5LDExLjA4MjA4OSAwIDAgMSAtMTEuMDgyMDgsLTExLjA4MjA4OSAxMS4wODIwODksMTEuMDgyMDg5IDAgMCAxIDExLjA4MjA4LC0xMS4wODIwOSAxMS4wODIwODksMTEuMDgyMDg5IDAgMCAxIDExLjA4MjA5LDExLjA4MjA5IHogbSAwLC05Mi40NjgyMjQgYSAxMS4wODIwODksMTEuMDgyMDg5IDAgMCAxIC0xMS4wODIwOSwxMS4wODIwOSAxMS4wODIwODksMTEuMDgyMDg5IDAgMCAxIC0xMS4wODIwOCwtMTEuMDgyMDkgMTEuMDgyMDg5LDExLjA4MjA4OSAwIDAgMSAxMS4wODIwOCwtMTEuMDgyMDg5IDExLjA4MjA4OSwxMS4wODIwODkgMCAwIDEgMTEuMDgyMDksMTEuMDgyMDg5IHogbSAtNDQuMjEzNjIsMzIuNTU3NzE2IGEgMTEuMDgyMDg5LDExLjA4MjA4OSAwIDAgMSAtMTEuMDgyMDksMTEuMDgyMDg5OSAxMS4wODIwODksMTEuMDgyMDg5IDAgMCAxIC0xMS4wODIwOSwtMTEuMDgyMDg5OSAxMS4wODIwODksMTEuMDgyMDg5IDAgMCAxIDExLjA4MjA5LC0xMS4wODIwODkgMTEuMDgyMDg5LDExLjA4MjA4OSAwIDAgMSAxMS4wODIwOSwxMS4wODIwODkgeiBtIDAsOTIuNTM1NDQzIGEgMTEuMDgyMDg5LDExLjA4MjA4OSAwIDAgMSAtMTEuMDgyMDksMTEuMDgyMDg5IDExLjA4MjA4OSwxMS4wODIwODkgMCAwIDEgLTExLjA4MjA5LC0xMS4wODIwODkgMTEuMDgyMDg5LDExLjA4MjA4OSAwIDAgMSAxMS4wODIwOSwtMTEuMDgyMDkgMTEuMDgyMDg5LDExLjA4MjA4OSAwIDAgMSAxMS4wODIwOSwxMS4wODIwOSB6IG0gMCwzMi44ODIzMTIgYSAxMS4wODIwODksMTEuMDgyMDg5IDAgMCAxIC0xMS4wODIwOSwxMS4wODIwOSAxMS4wODIwODksMTEuMDgyMDg5IDAgMCAxIC0xMS4wODIwOSwtMTEuMDgyMDkgMTEuMDgyMDg5LDExLjA4MjA4OSAwIDAgMSAxMS4wODIwOSwtMTEuMDgyMDkzIDExLjA4MjA4OSwxMS4wODIwODkgMCAwIDEgMTEuMDgyMDksMTEuMDgyMDkzIHogbSAzMy4xMzIzMywtMTM2LjU4ODM2NyBhIDEwLjUsMTAuNSAwIDAgMCAtMTAuNSwxMC41IHYgMjguOTk0MTQxIGEgMTAuNSwxMC41IDAgMCAwIDEwLjUsMTAuNSAxMC41LDEwLjUgMCAwIDAgMTAuNSwtMTAuNSB2IC0yOC45OTQxNDEgYSAxMC41LDEwLjUgMCAwIDAgLTEwLjUsLTEwLjUgeiBtIC04ZS00LDEwLjUwMDc1OSBWIDEyLjA1OTIyOSBNIDIzMC44NjUyMyw1LjI0MDIzNDQgYSAxMC41LDEwLjUgMCAwIDAgLTEwLjUsMTAuNDk5OTk5NiB2IDI4Ljk5NDE0MSBhIDEwLjUsMTAuNSAwIDAgMCAxMC41LDEwLjUgMTAuNSwxMC41IDAgMCAwIDEwLjUsLTEwLjUgViAxNS43NDAyMzQgYSAxMC41LDEwLjUgMCAwIDAgLTEwLjUsLTEwLjQ5OTk5OTYgeiBtIDQuMmUtNCwxMC40OTk0MzA2IHYgMjguOTk0MDE3IiBzdHlsZT0iY29sb3I6IzAwMDAwMDtvcGFjaXR5OjAuOTk7ZmlsbDojNTk4NmYyO2ZpbGwtb3BhY2l0eToxO3N0cm9rZS1saW5lY2FwOnJvdW5kO3N0cm9rZS1saW5lam9pbjpyb3VuZDstaW5rc2NhcGUtc3Ryb2tlOm5vbmUiIGlkPSJwYXRoMTg0MC04Ii8+JiN4YTsgIDwvZz4mI3hhOzwvc3ZnPg==;fontSize=20;strokeWidth=4;fontStyle=1" parent="e53sIIh-dQqDBN9aHjkJ-1" vertex="1">
          <mxGeometry width="50" height="57" relative="1" as="geometry">
            <mxPoint x="16.785" y="15" as="offset" />
          </mxGeometry>
        </mxCell>
        <mxCell id="e53sIIh-dQqDBN9aHjkJ-7" value="" style="rounded=1;whiteSpace=wrap;html=1;dashed=1;fontColor=#4D4D4D;" parent="1" vertex="1">
          <mxGeometry x="570" y="25.5" width="240" height="230" as="geometry" />
        </mxCell>
        <mxCell id="e53sIIh-dQqDBN9aHjkJ-11" value="BigQuery" style="sketch=0;html=1;verticalAlign=top;labelPosition=center;verticalLabelPosition=bottom;align=center;spacingTop=-6;fontSize=20;fontStyle=1;fontColor=#333333;shape=image;aspect=fixed;imageAspect=0;image=data:image/svg+xml,PHN2ZyB4bWxucz0iaHR0cDovL3d3dy53My5vcmcvMjAwMC9zdmciIHhtbG5zOnY9Imh0dHBzOi8vdmVjdGEuaW8vbmFubyIgd2lkdGg9IjIwLjAwMTA0NTIyNzA1MDc4IiBoZWlnaHQ9IjIwLjAwMTA0NTIyNzA1MDc4IiBmaWxsLXJ1bGU9ImV2ZW5vZGQiIHZpZXdCb3g9IjAgMCAyMC4wMDEwNDUyMjcwNTA3OCAyMC4wMDEwNDUyMjcwNTA3OCI+JiN4YTsJPHN0eWxlIHR5cGU9InRleHQvY3NzIj4mI3hhOwkuc3Qwe2ZpbGw6I2FlY2JmYTt9JiN4YTsJLnN0MXtmaWxsOiM2NjlkZjY7fSYjeGE7CS5zdDJ7ZmlsbDojNDI4NWY0O30mI3hhOwk8L3N0eWxlPiYjeGE7CTxwYXRoIGNsYXNzPSJzdDAiIGQ9Ik00LjczIDguODN2Mi42M2E0LjkxIDQuOTEgMCAwIDAgMS43MSAxLjc0VjguODN6Ii8+JiN4YTsJPHBhdGggY2xhc3M9InN0MSIgZD0iTTcuODkgNi40MXY3LjUzQTcuNjIgNy42MiAwIDAgMCA5IDE0YTggOCAwIDAgMCAxIDBWNi40MXoiLz4mI3hhOwk8cGF0aCBjbGFzcz0ic3QwIiBkPSJNMTEuNjQgOS44NnYzLjI5YTUgNSAwIDAgMCAxLjctMS44MlY5Ljg2eiIvPiYjeGE7CTxwYXRoIGNsYXNzPSJzdDIiIGQ9Ik0xNS43NCAxNC4zMmwtMS40MiAxLjQyYS40Mi40MiAwIDAgMCAwIC42bDMuNTQgMy41NGEuNDIuNDIgMCAwIDAgLjU5IDBsMS40My0xLjQzYS40Mi40MiAwIDAgMCAwLS41OWwtMy41NC0zLjU0YS40Mi40MiAwIDAgMC0uNiAwIi8+JiN4YTsJPHBhdGggY2xhc3M9InN0MSIgZD0iTTkgMGE5IDkgMCAxIDAgMCAxOEE5IDkgMCAxIDAgOSAwbTAgMTUuNjlhNi42OCA2LjY4IDAgMCAxIC4wMDctMTMuMzYgNi42OCA2LjY4IDAgMCAxIDQuNzI3IDExLjQwM0E2LjY4IDYuNjggMCAwIDEgOSAxNS42OSIvPiYjeGE7PC9zdmc+;" parent="1" vertex="1">
          <mxGeometry x="646.6" y="95" width="90" height="90" as="geometry" />
        </mxCell>
        <mxCell id="e53sIIh-dQqDBN9aHjkJ-51" value="" style="rounded=1;whiteSpace=wrap;html=1;fillColor=#fad9d5;strokeColor=#ae4132;" parent="1" vertex="1">
          <mxGeometry x="940" y="100" width="1260" height="170" as="geometry" />
        </mxCell>
        <mxCell id="e53sIIh-dQqDBN9aHjkJ-28" value="" style="group;flipH=1;flipV=1;" parent="1" vertex="1" connectable="0">
          <mxGeometry x="950" y="115.5" width="120" height="100" as="geometry" />
        </mxCell>
        <mxCell id="e53sIIh-dQqDBN9aHjkJ-26" value="" style="rounded=1;whiteSpace=wrap;html=1;" parent="e53sIIh-dQqDBN9aHjkJ-28" vertex="1">
          <mxGeometry width="120" height="100" as="geometry" />
        </mxCell>
        <mxCell id="e53sIIh-dQqDBN9aHjkJ-27" value="&lt;font style=&quot;font-size: 20px; color: rgb(51, 51, 51);&quot;&gt;Data Preparation&lt;/font&gt;" style="text;html=1;align=center;verticalAlign=middle;whiteSpace=wrap;rounded=0;fontColor=light-dark(#7F7F7F,#EDEDED);fontSize=16;fontStyle=0" parent="e53sIIh-dQqDBN9aHjkJ-28" vertex="1">
          <mxGeometry x="30" y="35" width="60" height="30" as="geometry" />
        </mxCell>
        <mxCell id="e53sIIh-dQqDBN9aHjkJ-29" value="" style="group;fontSize=15;flipH=1;flipV=1;" parent="1" vertex="1" connectable="0">
          <mxGeometry x="1110" y="115.5" width="163" height="100" as="geometry" />
        </mxCell>
        <mxCell id="e53sIIh-dQqDBN9aHjkJ-33" value="" style="group;fontSize=16;" parent="e53sIIh-dQqDBN9aHjkJ-29" vertex="1" connectable="0">
          <mxGeometry width="163" height="100" as="geometry" />
        </mxCell>
        <mxCell id="e53sIIh-dQqDBN9aHjkJ-30" value="" style="rounded=1;whiteSpace=wrap;html=1;" parent="e53sIIh-dQqDBN9aHjkJ-33" vertex="1">
          <mxGeometry width="163" height="100" as="geometry" />
        </mxCell>
        <mxCell id="e53sIIh-dQqDBN9aHjkJ-31" value="&lt;font style=&quot;font-size: 20px; color: rgb(51, 51, 51);&quot;&gt;Hyperparameter Tuning&lt;/font&gt;" style="text;html=1;align=center;verticalAlign=middle;whiteSpace=wrap;rounded=0;fontColor=light-dark(#7F7F7F,#EDEDED);fontSize=14;fontStyle=0" parent="e53sIIh-dQqDBN9aHjkJ-33" vertex="1">
          <mxGeometry x="38.03333333333333" y="35" width="86.93333333333334" height="30" as="geometry" />
        </mxCell>
        <mxCell id="e53sIIh-dQqDBN9aHjkJ-35" value="" style="group;flipH=1;flipV=1;" parent="1" vertex="1" connectable="0">
          <mxGeometry x="1330" y="114.5" width="120" height="100" as="geometry" />
        </mxCell>
        <mxCell id="e53sIIh-dQqDBN9aHjkJ-36" value="" style="group" parent="e53sIIh-dQqDBN9aHjkJ-35" vertex="1" connectable="0">
          <mxGeometry width="120" height="100" as="geometry" />
        </mxCell>
        <mxCell id="e53sIIh-dQqDBN9aHjkJ-39" value="" style="group" parent="e53sIIh-dQqDBN9aHjkJ-36" vertex="1" connectable="0">
          <mxGeometry width="120" height="100" as="geometry" />
        </mxCell>
        <mxCell id="e53sIIh-dQqDBN9aHjkJ-62" style="edgeStyle=orthogonalEdgeStyle;rounded=0;orthogonalLoop=1;jettySize=auto;html=1;exitX=1;exitY=0.5;exitDx=0;exitDy=0;" parent="e53sIIh-dQqDBN9aHjkJ-39" source="e53sIIh-dQqDBN9aHjkJ-37" edge="1">
          <mxGeometry relative="1" as="geometry">
            <mxPoint x="180" y="50.5" as="targetPoint" />
          </mxGeometry>
        </mxCell>
        <mxCell id="e53sIIh-dQqDBN9aHjkJ-37" value="" style="rounded=1;whiteSpace=wrap;html=1;" parent="e53sIIh-dQqDBN9aHjkJ-39" vertex="1">
          <mxGeometry width="120" height="100" as="geometry" />
        </mxCell>
        <mxCell id="e53sIIh-dQqDBN9aHjkJ-38" value="&lt;font style=&quot;font-size: 20px; color: rgb(51, 51, 51);&quot;&gt;Model Training&lt;/font&gt;" style="text;html=1;align=center;verticalAlign=middle;whiteSpace=wrap;rounded=0;fontColor=light-dark(#7F7F7F,#EDEDED);fontSize=14;fontStyle=0" parent="e53sIIh-dQqDBN9aHjkJ-39" vertex="1">
          <mxGeometry x="20" y="35" width="80" height="30" as="geometry" />
        </mxCell>
        <mxCell id="e53sIIh-dQqDBN9aHjkJ-40" value="" style="group;flipH=1;flipV=1;" parent="1" vertex="1" connectable="0">
          <mxGeometry x="1510" y="115.5" width="200" height="100" as="geometry" />
        </mxCell>
        <mxCell id="e53sIIh-dQqDBN9aHjkJ-41" value="" style="rounded=1;whiteSpace=wrap;html=1;" parent="e53sIIh-dQqDBN9aHjkJ-40" vertex="1">
          <mxGeometry width="200" height="100" as="geometry" />
        </mxCell>
        <mxCell id="e53sIIh-dQqDBN9aHjkJ-42" value="&lt;font style=&quot;font-size: 21px; color: rgb(51, 51, 51);&quot;&gt;Deploy Model to Model Registry&lt;/font&gt;" style="text;html=1;align=center;verticalAlign=middle;whiteSpace=wrap;rounded=0;fontColor=light-dark(#7F7F7F,#EDEDED);fontSize=14;fontStyle=0" parent="e53sIIh-dQqDBN9aHjkJ-40" vertex="1">
          <mxGeometry x="21.42857142857143" y="35" width="157.14285714285714" height="30" as="geometry" />
        </mxCell>
        <mxCell id="e53sIIh-dQqDBN9aHjkJ-43" value="" style="group;flipH=1;flipV=1;" parent="1" vertex="1" connectable="0">
          <mxGeometry x="1760" y="114.5" width="190" height="100" as="geometry" />
        </mxCell>
        <mxCell id="e53sIIh-dQqDBN9aHjkJ-47" value="" style="group" parent="e53sIIh-dQqDBN9aHjkJ-43" vertex="1" connectable="0">
          <mxGeometry width="190" height="100" as="geometry" />
        </mxCell>
        <mxCell id="MBSqLJU8_XcgEEYuNx-6-4" style="edgeStyle=orthogonalEdgeStyle;rounded=0;orthogonalLoop=1;jettySize=auto;html=1;" parent="e53sIIh-dQqDBN9aHjkJ-47" source="e53sIIh-dQqDBN9aHjkJ-44" edge="1">
          <mxGeometry relative="1" as="geometry">
            <mxPoint x="240" y="50" as="targetPoint" />
          </mxGeometry>
        </mxCell>
        <mxCell id="e53sIIh-dQqDBN9aHjkJ-44" value="" style="rounded=1;whiteSpace=wrap;html=1;" parent="e53sIIh-dQqDBN9aHjkJ-47" vertex="1">
          <mxGeometry width="190" height="100" as="geometry" />
        </mxCell>
        <mxCell id="e53sIIh-dQqDBN9aHjkJ-45" value="&lt;font style=&quot;font-size: 20px; color: rgb(51, 51, 51);&quot;&gt;Create Endpoint&lt;/font&gt;" style="text;html=1;align=center;verticalAlign=middle;whiteSpace=wrap;rounded=0;fontColor=light-dark(#7F7F7F,#EDEDED);fontSize=14;fontStyle=0" parent="e53sIIh-dQqDBN9aHjkJ-47" vertex="1">
          <mxGeometry x="15" y="35" width="155" height="30" as="geometry" />
        </mxCell>
        <mxCell id="e53sIIh-dQqDBN9aHjkJ-48" value="" style="shape=image;imageAspect=0;aspect=fixed;verticalLabelPosition=bottom;verticalAlign=top;image=data:image/png,iVBORw0KGgoAAAANSUhEUgAAAS0AAAEqCAYAAABA5gZWAAAAAXNSR0IArs4c6QAAAARnQU1BAACxjwv8YQUAAAAJcEhZcwAAEnQAABJ0Ad5mH3gAAP+lSURBVHhe7P1ZsyXJdeeL/ZYPEXs4Qw5VhaEIAiBAYiIAAiAIgmSTTaqb3ZfN7pa1mXR1ZSa7po+h+6QPoXc96F161oeQZNck3W5ddoMNoqaszDzzHiLC3Zcelsfe+5zKqtwHzMOqLJx/WuTZY2wPD/e/L1+jqKpyj3vc4x6vCdzNF+5xj3vc47MMOb+80qOD+c3X7/GZhdZj55UqLKs92Xm9oCjBx/q+oEDSghZAHOIEB4iCaAFARBCRzXl+XRRgAEpJeIEoDkHp+0TBoyEwAB8+X3F6muhWLYeHgQfHjqMDmDaKkzUuZ7yCSAAJpKWQkhAaR2jq0iugZFJJFDIqBZwSSoPodm2+eV3b54LI/Rr+OuCetF477E9aOSdKyQQfcN4j4lCEMn6sTlgBRHXz3VdFWlmVrijegRfFUUALRR2JQJ+F84Xy4ckF5+eZ9SrStoX5DI4PHcdHnsN5pPEQcDgVSgItGbRYO50gzshXBYoq9g+KFjyC7HTXzeu6J63XD/d36XMMGW+wGllAQVAc4GV781V1Q3wjbj7/taBQ+oxXwaEomawZnJARLtfKB88XPD9PXCxh0SunVwMfnq14//kV7z9f8uxi4GwJl73jKjkW2VF8wbc9EjuKrMi6pugAqjjxeAl4Ap7rUtY9Ph+4l7ReO+wvackoV6lJHogg4kGcSSJAyUopGe88bpS8dqSRm5LJbVCy0i0zzdQjbiAzoA6UCRed8P6znl/8wynrLlKYgGtQepysib6nbQrzSeBg1jKfTpm2E5oAD2Yd87AEhFQULQIEvGtwEhG2bS5aUM2b5zev517Sev1wT1qvHfYnLSf1s6rkklEVnHM4H+tZBFXbRjqRzWTf3R7enOS3QlVqqShZerLP4DwDLR+cdfz9r6545/014o5xcY6LgvPgGFBdUdISzR0xOGaTCYcHBxzMpnzxuOPBrMP7gBe/JSlVUMGJ21xPKeWa1Hjzeu5J6/XDPWm9drgNadVXVUml2MR0DufCRimfS2EYBqL3+BtEdfPvraFAglKU7DIlQsbzbNHz7ocr3nvSc34VETmC4FETAk33RQ/aQ0l4UYL3NCESQuCNecfDWWE6bZnPJkxbIdTvCQkhAdloubRwr4j/XOGetF477E9ao8RUSqHaBcGZqS0XJaVMPwx0fc/RdEIbw+Z7N8/xa0FN2spZyV5IDq4G+K/vnfPkecfF0qMck0sgAWXzMwXviinwHYgolIKWTM6Fw5A5bIXpLHJ80HJ44JhNoY1K4xOOHqEHEq4cIGrXxT1pfS5wT1qvHfYnLXXeiGrnWwqkAutuYLVasVqtWXcdX37jAUez6Uekq5t/b42ipCIMAosE7z9L/OLd51wsFeePmMxmrNYwFBOINNsliID3ELxJjLaNHUj9QMATBYLPTBo4mAvHh8KDI8fRTJi0hUhCGHA6QYrfNOfmddyT1uuHe9J67bA/aRUXqoQFWWFI0PUD676j63r6ITGkTCmF337jmOP5BF4gXd18vi9UC6X09KXhqnc8v4B3P1zy4emKLgdCM6NtI0MqKA4JVTIrULJtK4sWHCYgei84qeaFAiUNSFnT+IHZpHB84Hl4GDmaB2YTRxOFmYctZd2T1ucB96T12mF/0urVs1ZBC/R9z2rdse561n1nCusQiLEhNg1vzQKz+GLp6tclraKZVFashsizc/jgeeaDk8x6iCT1dbdaiFHABUrVPZXqoaFm+ARRnIAPgnfQq0lmlAK5w9PTSGIalYOJ53AamE0ik9bz5UcwMd9auCetzwXuSetOcZ1c9sfHE0R1m9w5t0KxV1VNCtHqRLrolcsuM6RM1w90XU839OSciCEwn044OJxzMGuYC0Re7BqwS16KOXAiMNobb7a2toZMYZUGLq6U958PvPcscbYIiD9CEXLJUDrmswji6dKOwnyn66T+iBN7vFZImAQlmnEl4TThy0DjhTY42hhoouerbymHMyEETwyeEOp5KEBGRBGxa1A7486xg0177MFu/7zsLt/sn3v843BPWncIrT5SL8Vm0ugLJsz154VCYcA8rTKUjBQlF6FoJEtDdp4MnC3g+VVH3yfTGdWJ7ylMfOZw4nlw0HA8awlUr/iXQIGVJkQcXjxhG0UDGzpNKIUex9ky8MHzBe+frHh+WVjlFvFzvAt4gUYhChSFbtzLvgQqbMmjvibGo9fIDuDQLTieBR4cT3j0AA5m0EYIAqIdTnq8M7IuxEpcoR4GNQ7G/N2K9aHzu8vGtce7EBRXX7wp5d3j18M9ad0h9iatnQFtn1a0Sk/1TduiAZnCgFay0DpphVxg3cOyUxZdpkvQZaFXoagy5EIuGUdhGh0P5pGjaWDWCFEy0XncHtsjBYbaVgd4tBIoaCn0OaMCEgKrAX71Qc/zizUni8RF50hMwU/xInjAF5OYCpD266pbkdbMr/AkvCu0UTk6iDw8anhw2HAwhyCKIyMUhjw62Y5aMJMlTTdXTCITV+/Ftq92Scuej3exEvo9ab1S3JPWHeJWpIWA2oAvqmgNXkbM4coIRasnkq+TVSlZyVnpB2XZFxbrwqIr9EkpzoGrQdIpgWaih6NZwxtHEw5aIVIow5IYW7zbShcfDyHXuScofuMTZZe6HpSUPVk9F8vC3/3DBVddYZkcnTYUP0OctV8KuGIhRbo5y8txG9IK0qGlp+Qe0Z5Z6zk+bHh4NOH4aMKkEZoAwcHEuouiA0V7vFOCH4kLBEfJAA4Xmus/VLEbEqWVqDZtvCetV4J70rpD3Iq0qqlfVSkoWmehBQTbhLHNiSdVyWpI0HeJrs+s+8J6EJOuiqeogFPEJXJKaMlEB/OJ59HxjIczx9SD00TqlvgwwdVsEJ8MI0HTAxVgZR6kCEqkT4GrpWOxVJ6ddfzndy4ZxFNcQwlTCA3IVtHuSiGIgpi8sw9uQ1pFe1QzqgnKQJBCE4TZxDOfNsxnLdNJ4KCFt+YjaSWKLglhIAapTrcCGslDsZChOL3+Q1TWHgO2a3uQuie/J61XhnvSukPsS1qqSlrbxHfOWdYCLyaC1O3GeJaEY9VD18NqNbBY9Sy7RJ8hE5EwwUWHj9V9YOjouiWewuGs4fHRjMdHntZBpCA6gCagRTfbok9CzZogAAmVBbmscS4izEhMeHYC7z9Z8t6HCz68AhdbXJzgYgPe3C9ytu2kk0J0gLiN9fBluA1prcqAc44YAjFASYncr8mpw2lhOmmYTlqOZw1fOXbMpzCdQjvJeFlTdEXJA1rAS0vwFiO5q/Oy/WHNkqFGWGAGko2H7D1pvTLck9YdYn/SgrwuFmLjjbBUbHJmIBVlSJlUMl0vLFaelAtdsm1gnyGpoBJs6+XNr0kUJC8hD0yi42je8PCg5XBqU86RELVwF4g1/8PLsBuO3KOsUckokcyEZRd474PMex8seX6eWMsMHyMuOiOsAilBLgqaCV6IwVT5+Q4U8R3Wl85tDQai1RFM8+a11itvtonDg8DRkefwyDGZJJz01kdF8RIIvsE566ttM9R+VxW0tmHcIprWHu5J65XhnrTuEPuSFkBJUpPymfbWyAr6BKshs+7MGbQboO9jVR07sjoyjqK2bRt/TYBARyMd0yYwnwYOJoFZ42g9BGdSzuYb6jdq/ZdDKCWjDIjLIELSwNXa8ey08P7TxOl5Ydl7tJkSosUUFmxLOwyWWUIEYnREX22heyq1bkNaOQhlFIKq/qyq+hCFUjIlZ5wmjuJAE5VJq0yncDB3HMwCs0mgaRyhBmFXwbCSU/3d+tsbxfvYDidGXPek9cpwT1p3iL1JS8YsV1srWiqwHmC5VhbrntXaSCsVB64126EL5pNVXQbs5zJaEpRM6wYOGuXB0ZyjWWTiMUuZJmL0ODfa/epk2qOpAJlMzubW4H2gSGCxhmenA7/6YMnppdCXCfgJGiAEU+3kDH0PaUgoivNCjMHCIeuWcR/chrSI1bcsmy+qqyom5+zzRQtqe1WamMjJlPZeMvNp4PGDOY8ezDg6FNpYVVQUnKQNQQnmqe8RHGYV3a4eJunZw3vSehW4J607xG1IK+PIVRJZD4V1r6y6wrIrrIbCMChDNoV1iI2FsoijVMubKNXRcjBnSxKzqBxNPQ8OZxxOA9GBFnMu9SEgPm4ymZqj5svbqihJVzYnJQINqx6TsJ4tee/ZmlWOuOYAFz2pGGk5sbjCYSiUnBERvPd4XyXEKgntg1uRlrFMdVcwYi8lo5otREgUV1lzpQOiDlHr1FCgiYXZRDg6dDx60HB46Jk0EFhWqcsIKziHxxHqc0e9MTv6yHvSejW4J607xL6kVYB1yfSpsO4zqy6zXCurXuiTI2lAxRwfVZVcenABqv7K0rmA14wvfT0SR7PAg3lDGx2zNtB4NmbKoSgZj4Zo2zTA7dFWcxq9smSCTMnF8+GzzAfPVjw9G8wXy09R31AE+mGgiQHvBFGlpMFCiJzHe4eISZU66oL2wG1IaxhMZ+ed4LzDObWsEWoe8XYepQhcOQENSIm4IrhiTqhNyEzanumko2kTDw6FLzxqt4QljiCeIIIXI69RV8aYgPGetF4Z7knr18Qnz686ocbgOWEzvQq2lctg7g1qivaThZHWkAr9UOgHZciOpB4lgguWBx3IuSOrxeu54ExnpEBK+NLRkphEx+ODyINZwIOZ7jeaaMipmIuBCxvSs6bXSTYSmJpCSMQ2sCLK4BYUGvoy5WLh+If3Op4877lcg/oWFxtyTTyYi5pEVf2VtGSTUJw3/V01su3Bl1uMQswOabGjW9pFGpK139UEiBupSzf++6pKEaV3gqpHNCBlq6Pyojjf412Hcz3zifDmccukicymDfNWmESIzkjOk3GaERTNQinOrMJVIT82ctcqDOxIZ2N/FJQqId4kvBv99ZtEiPekdVuMg4rdwbf75vaZKyNpjXsTYajBvl3ODKWQirIeCk9OXLWeWfygnU3QmtVgPDuiiDPLoYrHhUhsbOtV+jUu9xw0jodHc96cCw9e7AP5EeQNoe7ki1ez8EnJOJQgaq4YbmClkdOryLvPhX94MnC2EFIJtBOT6EruKDnh/H5j63rPfToQSR8hvRdBSiFq4XDe8vBIeHgEx3OYRszIIT2eHpFM6R0lx7od9zsmTItUKJVtFYiWixoALUrRbLQmgvNyjbcsxfQWu6T1eSewe9K6LcaZVceF8VKmqFnRGANwRfBaA3BroHEC+mw6q2U3sOp61sNAPyhdmtVsokZutgWy52OWURCKFkoZEGcabnE2mDUPOB1onXI0DRzOWh5N4HAfJ/eRsICci1WxcYJz1aV14x5QECcU8ZyvCh+cZN55mnl+FejLFIIjBiPQ1C/JORObw5s/9UJ8JkhrT/fW6B3TKHTrFSWvaHziwTzwxTfnvPGw5WhmEhc64NTuqKLkbAGgzgVcCGAeEpasIikxmCMxgOZMro6qwNZ/T7Cz3dD/3ZPWPT4em32M7WmylqrYVXC1pNVGsopmDcwwZOgGZT3kehS6IdeYQIBmw4RapbKbhAVCzpl+6GknE3wwE1jOA1J6JhEOpp7jWaSNjsMgzDf7vk/GOHlMMKzbwXGCaJXDRAHHcmj48KTj/Wdr3j/NdHoAocVVh/rUQ+6XqBZCPLjxSy/G60RaSpVAKTgSQRKNz8xa5XAaOJxHDmaR2aRlPim0IQFW6EMLiApOPCK+ZpyoK4YHi65WyyVWtlKvxTxa3KOx4HXWuiete3w81GL4qPxVxlhBqJLWqDSBVY702fyS1n1i1WW6odAnSEUoeEolI18HoRmudknLzqt1D5Fzoe8GJtMJIVojcloSXeZoFjg+aDicBZxkpgiTPYKgwVwC0E025h2SUqBYaBGQi/DhacOTkzVPT9ecLoB4jGtMSkgJ0lBAO6vuI5ZY8GX4bJCW3Y2XIWlmyIkYPLG6kaA9kjuiK0wax3zWMp9MeHikHM0sx/2Yh99VbvJgIULVjwuXN32glZe0doxUiX3j2nvNGeyetH4jsVux5ZOgpYcy2Mx2DpzlWlDMiTFvFMvKs7Vj2SvDkOm6VIOJIasHibgQrfqMgEtDpYWPSliKkaAilAx5KDSNs/zp2kNZMZ84y15w0DD1QqEn4mh2w00+AakvCA4/flzqhlEqWVXP/HWv/JdfOU7OE1frwjoFfNtuvN37HlQTMZgCPu3kyPokfDZIy5aLlyELZAegiBYjO83mcqL1MaaIf3ToeOM4Mp20HM1b5hNLShgdOC3V0cUkWZWA5Wm1RWsDdVur6Pj3nrTuSetWpKXJwmWcp+BQPAXoUqbrM33KpJz44FJZJVAVilpsneJRgjmT1rHpoOY01w1hYVOiEtZIYIa6g0CKKXwnMfPwsOHBUcO88XgyhZ5AILBPEDTkoeqIR89IzbV9psNaF+VqPXByseIXvwos185K27sGXLWIZkhZcU6J0XRiw3Dzl16M14m01AsaYeiUYeitbqQIbROIPiAoOSdyGpg4ZR4dk9bXtDiOh0dwOK27QVYoa1K/wjUPEGrKa0y6GmWrm64cZRTBKu5J6zcMu+lEXg6TPqzEvCXbSwr9AMsusVwPrLuBPiWucsNQbOUcs4qOJIduSUuAxo2WKyOoFxGW1srQ0UMeFJfXTHzicOZ4dNQyn1ogtJBIOuAJBNnPfFjKzvqeB0qxGoUSIwk4X8PT8xXvP7vgw5NDUomVuM2rvnpGANswGTDpax98NkjrmnzzschAFgWV6joxNl4Rqc6loyCewGXwXpk2hflMOZwLR3NlNs1MmkwTE04yMEewYrM3c6iavLr9LSOtLe5J6zcMtyEtFfMgV7Ug5SHX+MC+sOwSq/XAuk8MqUCcoxI25y/VL6tojWCTqqcQJbq8M2WqduUGYYHF3jYBypBoGDiIysODwPE80saqXyGTUsK7iHd7klb9KyWT+s4U8j5CjKwKPD2H955f8f7zS5bdI5AG50bfKwVsovqaKEKt6td+LPCakVYpVkcyBI+vwelaDS67xO39uK8eiSfhXUcbB6Zt5ujAc3QYODyITKcRqcKtF2dViCpZWaLFUnvI7lQpI60Z7knrNwy3Ia2hCEOhZlmg5rGyo0tGYMmSAtA0U8RtJ3Ap5k4wmrErZ1Xi2hKWUrM81EG5S1zOQeMKgcQ8wvHE8WgWmEXwrkBJpDygqjjf4P1+pGV6+ILmROo6SwjoJwwIp0t49yTx/umS08se9Y/MkoU50JZkwc/BBWKoBoNaVWdPO8BrRVpsJJ/6ncouY1C4ZbJQUk4EH4huNKL0lLRG8xovA7NZ4MHRjIfHBxweClMPUVLNfCEEb8kJTZlQkNGbTpWik3vS+k3GbUhr0RUWXaYfEqvewm7WA/TFodKAi+DN2zt3NhO9t8N5IynFCCznZIHHCuKbjasDjE6lO4RVx6GoZeOcNcKDaeDhzHHcQiNAGdB6Tmp2TRf202lZ+HOmJPMt8q4lq+eyg3eedrx31nOyLKxyQPx8Y6p3WigpIaoIjuCjSV+3JKLbfPauMIYCvQxS00RfY7kqbZn5wvyrzJ89o2S0ZLRYvnjnhOi8xStWi6CgfP3LhYeHELyjCUIThBiU4AqeUblfQEGZ71DnPWl9brDloZGUzPFzOzLrB0qCPCDOmyZaPEXMHSEX82AfsklX50vlaq3kYmmOUy6kYls+aj6rcedXqhJatobGzW+b9JWrL46tnlLjCXWMx6MWohCTv7QMRDdwNOmZRM980nAwicyit8wCWCqDkguq2ArvLM9NEYfWWD/d6QIpNdykTrUCFOdJBK46eHrW886TFSeXymqI4KaIdxudlRmxRtu8leEaz31bErrt51819p3qotUYsvOFcVGxUWZXooBKscwbxjSbjBBOHA5L46yqaCk8OOg4mBQmTWA+CRxMHQetMI9K6xNBMkgChZxniHjEm2+gtcHI0sw54312uLFxFVr/u9nfG8n/M47PL2nVwVCn+2b9G0tG2Q0rKAXJGZcH8AEkUvAMeJI61slSxKwHpU+Zy5Vj2e+559kXqmjqcD6i3iyRyUY/Tsy7OjAg2jENPW8eJqIPNE2kaRqa0OA2HjzV6TUXmlFTlZXkAlolwM18KwUpvelLSjHCjg09nosMT88H3n+24tlpYrWOlDLBOXPT+E3GtXXvJTDiukkPL4bmJV4yk+iYTxxHU8eDqXA8FY4mFiYUQ9VpZYuUlyryFrH4SuqoNtnNSNK/gLTqGn4NUt0MP+v43JKWqqI540ZHKKjCu1GYouQykHPGiyOGCAhDFvqkrJOyqiliLEOoZdvsSstQ9vN9ug2k9OanU/NjIZvm4jCP68YX5k3i0XSwOn4xEmOkcbYlM2xJK44rp0LGoWMSKSzVseYeKQNBlJQUfINrpwzAe2eZd58u+PC0o0styhTVSMpVYvwNxl2RFgJKRsqA047WZ+aNcjTzPD6c8OhoysEMmmiLGCilFIYhowghNHgfPiLpfuztutmsfS/qU8bnlrSgenlKXULG18aBxBiCU2xbJ54hwapL5rrQmc6qT1q9103bWlxTC3i9Wojkmn3UtnAj2ZgepGPaKLNJ4HCiHDYd3gdC8AQf8DX1r11ltVTmYlk6vTm/lo0rBRYrmfoqZWWCExIRdVOKeM6W8A8frHn/+ZqLZSE0B7jQUBT6ZE6ov8m4K9JSX7Os5oLmNU5tsZo2wsEscjibMJt6pi28eXhJDIoTy+LlJODx5mt3Q4pS19f2ji0f7ZJ1jFGjgqo24bOO15K09lGaC/VObAhrtMjZYd7rNsH77FkN5mu16gZW3cC6y/RZySORuKqvkuum5lcCsZFWqhjvqsMpah7vnsTBRDiYNxxMHLPYW30+Z3qR7dbQvqTFdCRSg2zH3rJrz2ge0DIgmvFS8N6RZM46RS4XygfPB56cDJwtYSiR0DZmGVNIecCyb/3m4s5Ia1xYtOpZyXjJeGfB1DE4gne0sfCF4xPmk8BsMmU+ndH6ncK5Zg0wQhJQf7lxsbEFx9uxEem3U+V+e3gH2IewoN750WPSuVoqfiQrc0tIpVCKsuiF06Uj5Uw/WBn5IZWqXDfCcjXvlJ37xm/9YyEWGiKVrByWkE80EUg0QTmceeazhtlEmPpy3Vt6expDKRYP6Ry6U3dvY9sqg2VtEMWJOUR2HHJ6BU+ernj3yZqrdUPSKRKsIIX5l2WUdC24+zcRd0ValGJS0sYVBrtnWu+bKmjBucyDyTkHs8DRwZwHh3MOpoFJNCuyBzSrBZTKAL4DRreamhRaQiUwt7ka2fz32cbnlrRUlWEYzNLlA1JdCIbqvb7qCqu+ZxgSV73nvI91UOy6GohZaKp5/8Yu85VBgc4pwQlRwCtI7gkMtAEOJp6DWaRtHU0U2toeXjCBbJybRTI7T6lEaFdlcXKjzLX7vfOh5cmJ8s4HF3z4rCfrAS5O8Y0R1pCoKXEy4trXY3TfEW72+SfhNqQVco/byd6wqz/XMXsIoFg0RHCFthEOpoEHhw0PjxqO5sK0ASkDWrpNxSNz6xktUA7vbSG2atr7Xs1nA68lae1HXEKuRQVKdVnoN/nXM+u+SlW50JXAigkilptqQ1KYwKbjYlezIGz0+q8IBVg7SwncCETNhNIz8YV56ziaByatJ3jFO4i1PuEucW3+qjVaVSkilCppjY6JNu5HYjb/+T4l3jtxPD1VLq4GrlYwFKuDKM76z0zzBZFiqZ5/g3FXpDWThMfSHBU1clK1pQZsYNr9c5QSLQus9njXM2kyhzPh6MBxdBA4mHsmjdAGYVrv9y5M2nrhCPrM47UjrVK2K9EnQcWRxHys+l6rgt0qMXepMGQhqympB4n0ziQqXzOFCKbQ1E2JPCuE4J3Hv2JtZRFYVTKMWmh1YCKJw9ZxNPMczAJNAGq+p1ATV22G4s1Uw5uXTa7aXETdCor3ZBw9sBqUy8WKdz50nF86hgxDcQzFWy3F2gcyblvF2ntzEvwm4a5Ia+oLXmwbqDW+0Pz4bsjFYkH3pZgVGF3jdE0MiWmrHM4DD44nHMxbDieeh75YQsd6bLiqeuZpyRStSv3XYEH63JJWVmGhQtcXVl3PcjWw6DLdAEkdhYCEFnGe7KDfUYCPu/yxLKBmu7GqZUekfnUoAqtoqbpi7piQOG7h4SxyPA/MWsG5QtGhSnttjfo3089IsKMUtYU91pIpOaGqtl2ODQm4SnC6GHh2dsnT5xOW64iKozjLspqLGmEXweMJzkh9MGHuNxZ3RVrBmx/huJswn10jLZOMqNKWo4itHKq2oGpeo2qlz9oozGcts2nLgwm8PVkTY6BpI00TiLUOpZFWJufq+uMiIbQ3m/WZw+eWtNZD5r3zJUNWhqT0g9IXx6CeTAQXEW/VbBLQ7WQ5cNXj2akVc3BY3iREUfXonuXb90VxsG4gdYoblsxk4M15w5tHE45njjYoymApnVWQar0z4rDqxq4qWo23dqaVAiVbPT9VxHtc25KA0w4+OFnxwbMTlss36IaWPvcUl5AoZnksQhrAl4bozEeoq7GVv6m4K9JKaE2nXcjFJC5RwbvRJw9iNBVFP9Rte7UUjgkMRRXNhTxYapy5rPjq/JTZbMLh0Zzj4wOOjqd4D+J0E3Way4AQcHsG2H+a+EyQlla9jlX7TTgneG8TUEmUujUTwIdaqLQeBdlYA9c9rNeZrh9YDYVFjlXMrsZE3dxaVMZ82+PvbwdW/cRGimFHOFfcdQ3pJyBXSU1qCI/z9lu5FIacUOdw3hOdENcgOhB9z3xSeHjoOZw5JtECZq0NYpWgxUT4UdoZW7NplTHX5jMWApQoJZNxSGw5W8KTk8wHJ2uu1so6TUnFm9VRiuk76nlMn1fTrUi1pu83D285uW+++mLInjGC1HO+tKlVSpVRxB77dfev1g8CipLULLjAxo7rdiy14y0oAsVl26HXTB+b7d74oRown7NYZgywjX217nondnj7K0C+6s2tRexwUnBOcTIaWyyv/4MpfPuL3pyRm0jbNDRt3JRvszlgoT92Ja92Qb4LfHZISy3XeSkJ710lLRNfS0nVCRTET4AANVVxX6AbYLVWFuvEukv0g+msBje7+VMfA617wX1wO9LSnQkxhr9kLSTNFiDtPRHhaJlofGEyycxmhfkcpi005nFQp0H1r9lzYGklFy2Jupsgq6PTwPvPEu8/6zi5KCSm9OqtLNkrhNyCtIwXX0ovAJZj/eaLL4DWrfdLYfP1I411I1FVi974topQnKvv18/uvL9LqoNCYkCwSAdTfsuGtEbyV0CTbQuljkdBEakFRdBKULYDmBSpzsNCCBADNFGI0UrKhZoyZ94oXzqoeb6clTLbPV7H4OrPBGkBaLE6eaoZ761DRw+5gjlLKsrgoikhazDzcp1ZLBPL1cCySxR1loFIIgP7irq6XVZfhh2HvJdhdwtlj200W5BrJZFiQctvqnk+TybKZFJo20zbQOOk+jk7SxxYV+Z9UUqm6ztCCDjfMKjj5DLzD+9f8vQssxgaip9R1L/yLd/+PXU70nK663v2yXih0eAjLxiKWmiMwSSnzXOx/wQsOWKVeMa3q4povMVmxKnVl4aS8c7hvFi2jw372RavqDkEi/Zm5a2inVFbsewOGwnKCOnNwwlN8ITgaGKgbTyTiadtoG2tqrcfCXS9qpZxO3YJ6560fl0oUIoRk4hN6urJaYJrrU6iyloCXVK6wRLurdaZvi/02ZTvupFEPGXPrJ1Q7+4+uIU0Mp5RgZyVnDPOCSF4mqa6YgxA7vjyDOaTwHQiNI3iXE8MEGu5dXBQzF64v9eyUnJmuVjRTKe42LDs4e/fPedXTxacrwLJHaBuci07w6vCbUhLb0FachvSuvnCJ0DEwl0sRRA2BsXSBO0uFClB11Xpqoa++JqgUeoW2lEvvq41Y0GjUkBzouTBjCNm6YCiTKeZJqqNEe+I0dPEQBM9TXQ16aAjBsejoypN1Syp3tkxWr63Q6Q62VXsktdIWK8bcX02SMuWG7vL412vK6Ql3FNSMuXkpQbzs+p6VuueISlFq4evDyAWzKBqktje2HPC3Ia0xmtQtWvIpeCwcIwm2OAqCRw9X3kgzCaeprEcSiKZ4EzB7sbku7kSod/vwkwvp+bd74ywnp2t+a/vn3F6pazLhOIPGIonum26mVeFzwRp3Tzlx3xRAF9Th47hNGwyyG7v4+bz9fFGr7grrOt2xXJBcd5SBjEWv8B0UEEgOCE4k+qOj4S2Ebwz9UgM3oir1pPcFEFx0DaWW0uwMblp8dhQtYYIVmfxk7BLWq8DgX02SCvX2Sim/NG6bRoKNRtoLRaRCudZ6JJlMRhSJpc6NcTjRi/fmi007VlU4c5QK9mUmslT62QLYtVYolgq3UksvP3YdBLejyum1phC+zdOBAWQfPOXXohRf5IRy4112vH+syuenHZ0pSXLlOKmDGqe+HsLcHvitqS1mekvxf6k9UKDwQu+LDUFEFgzqg2lOnlueUAx4vD1szq+qMUsd6M5r34hNIkYE84ZQTVBaIPbHE3whKpgP5jZ+yKjvsrGQqhS1HU+6bdyZLU2yGh1qNcsaufS8GIXnZtO2q/LdvGzQVpj0T0stedQc1ithrIpbNon816/6KGINx2NCxS1ZHy5GEEEH/DBBtbQ3fyhf2KIxQAWrdZKZyuhK0ooiYmHWeM4nHm+8JBa3MDyIo2EBWL6kXEgCij7kZZKzc0FfHhSeOfJBR88W7EqEfUzMg2FgAs7QbavELchLcOLGOZFuMVZP+6Uws4Fm6I6VkWj2ktGXDUZY6mvqdZlQNcgZlUepR+3s1EYpdZ2MtBOEiF4pm3DvG2YTiLTRmiCFSnx4/Zy58p2+25ztWPDVMnYiiyIkZU4+/uiXn8BZ42EtUtc96R1G+iWtHIRll3hap24WidWCfosDEUZipKlgeqVPmYC1ZqPfMwCahYYwb9iJ9BbY0NagPc2sAFXMiF3HDTK0cSKUhzPbahpda8wnd6Y2dIOV8ej6lZH8UlIEugVVj388r0l7z9bcr5QwuSYVDxDtsl4cOCtKvR+p90bL5g+H4/qmrEPtu4Ce+BF7hEbhq7yVNWaa47XdEGWQtpEFxHzmbJx2iNc4Z1lXYgxmO6pse1cDOZiELwwnSnttKoFvCN4qdv+8RgV7iDjjR7JaONCMf7uzp86GK7tqMfHo5hI/erH7A5vSlpU4vqs4zNCWqPVxtNl4WI5cL4cuFxnuhJIGkg4sooVXGAreYyrnEkgkIZMGsz7u2n2q258VxAxy2dWU+Y6b1uQRjIT13HUKEctHLS2Cm/H5o7id1MuyvZv5nO1n6R1lT2nKzg9X/HBszXnSxh0Qmxm9AMMQ0ZEOZgH+sF26a8SnwXSuq4m07q1LteJS8x6l3or8DZKTaFu4YMzpbevSu/JxHN06HHiNv5TMThCTR/jq5VQpFrxfM3eQBXjqoS2zQ9f27qR/KqMPepPR7LUceALw7iCjUr3XQX8zW581fv+TxmfCdJS7c2xQQKrAc6ues4WAxfrwkBDcS3qAgWrIUcV2anSx1jGCaDkQskWdCp7VqK5K8hYnaVuNUSU6Itlo2wzxzExD5mJU2JzUEfXdjaOXAValdT12HMb92ylvHPa88GHF1yuHIkZLhwC5lGt2SocN1FI6jf5vF4VPjukZX5P1n+5Ph5dC0Yp39wLTIckxACtd0yCMAmONkDjjaQmk8DRYWskMW4Nqx7SO612JDvnJhxnh3esYZYnfldRNZLWRjGwIa2do6Lzlgxg7OPtYYQ4/pgwSu2fH3xKpHV9cJbSU0QpElj2yslFx9kicdlDkgYJUwg2DIarAsUqlvjNvbABB1SlpqUV7u5IEb/hErYPhK30N8KN9fAUUrV5TxrleCq8ceA4Cj2trvGaCPHhtQSDWl08RATnxZxsyVWn4ncG5jhIrRd0Z0v5q7Oe//JkyZOnF2SZEZqH+NjQ99VqKVYbOw9rCK3lyK+n/Thsp9h1fNxXxlt08/2b59lczw189BW7zpsQrf9d+8I4Lsw5E1HEbb3I7bCtn/fCwWEg1ko4bXBMojCNnln0TKLQhqoQp+arqttGN24fN75U46pSKIOQkpGT9wFxtdaY1Pu0oy9DrMjIZmu44xMo4za3Dr6hRldQPzH2n9b0Q4oZA5w6/K7rz0e77iO42ecv/srur++8WsfsXeKfkLSsQ6HqD7CbPqLgSepZ9vDktON8mcm+ZVWTkot3do5kHunyMYvt2F/Czth5hUhqtQudc6ZX21G66mjZroGusb6hmtAy0ITC4dzz6CjyYO5opEfKGs0DIYykVTHuJHYuchySViBM8fQ4Haq0EEAbuhy56mHRwz88S7zzPJFSQfGIWCSB7nS9YARX/CjNjZNju3XZ7WfZUZFo/a6yDZUan6va3AwT64sxm6oWm5SO0cnR7qXKWLV59MzbIWAsDfGm0dVjVLCYUFdLawkZV10KjDyU3Nvz4IUmeiatZ1qPSeNoGtNLNUE4OKhS0ngwhi5ZG8f7fH1TtyWMLbb9qGojHW7qiz76re379nf309c+aLfnY3D9g1LMVWb7ws7hbCCMLbQlzO5lKbY0OBFTv+y0x1TQA25MUyQWr5Srg3iM8VrjP7apvyb+aUlrE3Q8zprN7aRoYFDHVQ8fnPRcrgsaJqyGAcyjwa4+75fqV8YyT68YSQuFSlpixoBxU1dqBpiS7Rpb76oOasCRmE2Eo3ng+NBzOBECPaI9WjLOH+2lfEhAr0ojSqCv+sACRFRbFoPn2RU8P1/zwTmcLisRjt7043Gjb0qoH6l9B9tbtNmZVnxEb3Ld0r6BAlp/XqCKohbgLVSGY2d19lLHyc73d4QnHc+hlnlVsO1YECU4xftCEMXvpBiaTWemGPdC9EIbhSY62mhbvtF65xzEYOd8OQS3x70yvKhnXozR+PJKoVpZpmI8/U5dzbF19pZF4dqtcji2STCvfUHUypmNE1MtK0guhRirE+K18746fCZIS3EU9fTFcbGGD896rroCYcI6JVt3TVFgs2sP3BVpWQU7y7/u6wos9fdMyrKiElqUNnqTAjQRPRzMPIczz8HUMYnFJCWSlaWQ2V63N5VClwcmQfCjbkYVMCnrbCW8f9rzwbMrLtaRXqsx4mWkFSvB7G5DtPLh7mdvWuPq9Wt9vPOHopZ4UUZv7arCEYzhVZPpIEs2ycvXBgCMm0A1XeD2N5UQBnxIeNENGcWxuGl9PgYZHx0f0tTMCK76YvnqQR52ldfcmNyfiNeItEgoy3qV5qo8JhuoG9t6gCfhGWobRlf+HUeMOh40g8TRydnGko5WcrAQvJ3LeNVX9JkgrYyQ1TNkz9lSeXbRs+hBfUufd+oVOoHi9xoCd0VaWrcy43Zhc0PqlrCUYvm3VI1YnK3+09ZzNI8cTKANINrjGKqEEID9UhjnkuiHNY33eE/dPzoyRlgfniV+9XTFhycLkk4IzbwOrPHcsnNskfw2uHj3XdHr8p/odhe76d6dbeH4mCp59sOOonqUasDoX1MlL6u+LMXEOodt07wTArqx2lk+ezh6KMzm5oAZgt+SVvQb4vLOipj6qoS2a9pO05GNbYup9abu6yLz+pBW1oG+LHDO4yTgCJappDpv6c4OoRHwLtWb+ALWKQVSoh8G/GSKj6YrK2ManRrXeNf4TJBWwvJcdYNwtsicXiVWg6C+ZShGBIji/KdPWnXBgt3hpZguRk3C0mITYhoKjRcm0XEwDRxOLdWMl4KWvlqrHN570P0kSGPHRMqD6YR8QIksi/D+84FfPVny/snAOjmca4mxfYECZJfADJ2arkyqZ/xIyiMx7xL0MGavqKe4RnJi/bH7nlYiKwrogGgypbNkIxGnSMm4MuC8EL2nDZ5J9EyaQBs9bfTEYEaWZlIIUTdxd85ZGmqToGx7OCrYbckb27jV0QmjXqw+xhyA9xkywqgk3wf7k9Y+6oHbo+oDdyVits0y/asdmzqZBUpOZB0QSbiouDDqCTKQKTw0lQSQUt2qe4cTy0e/SVp4B/hMkNaAo1PHuhdOLnouloV1DuCbmivLLDLBO1T3HFh3RVp+h7RGqULNOqXj3a/XNwuJWes4mESOarWUIIpTy2bBGLjqxsqFL4dZwRIpJXCWzSLhOLmCX3244J2nK06vBIlzgg9sS3fuYuyY7XtrdZQaZrTZ8oqtyYJJOPZpIel2eyk7pzPdl127fdaIAx1LwyccGecK3ishVGuvF6at42Bq6YCjczQ7oS5tcCY9eSMmC2QeW24WwlF62n0Mtruxto/qf/trklI9SfUdKHunJ7or0jLyfJXYhPaMElWBUkONnNiC4ZzRmYgVLC61UpWSwZmwYF1uSvtCoZSpzTEPfZ9tR+EFL5Z/zQLw67W82kv6bJBWj2NdHItOeX665qoTBo2oM4fLlCwDRAyWQ2ufIXCnpDXeBMWuqZKWTY46YQUO4sDh1HM0bTiaVMFcc83XbtuRIrZh8df0Np8EM61ntW11nx2LXnj/+dpK2F9kVnlCnBwYv1apb/f7xi47z8H6exxmSpXoimVs3Vh96/dktllFRdl8RlQRHaO6FecKIWYTTp350wUPMQqxKsRjMKI6mHuOD2uefqpDZ9U7eRnTPdbFoUysOTuXYJEQ1dyvRlpKTQM0Lg7IRq8j8gK9ntuXtCoZ7IXtOH857oi0xstSSDmTSw8u43zZbNlBybQMTCjUEnv1GBJ0Q7FsKr0l2Xx82PDoqGE6haHPOGdVf4IIWgqOsPUPe7WX9NkgrTWOVRYW68yT5yvWyZOZgETEw9BbIrsYzcF0nyFwZ6RVcwDaJVT5uq72G52N2EQ8niSOp57DNjALgtfBHKRKARdRF81YrxY4vRcd13FdcPQKF8vMB8+XfPB8xflS6PIU9Qe4WH0ok01gw01T4PaxuAkyXleBogk0W278muds3Es4P8GJ2+ieTP9kUlAYpTOBpnEcPwg0IdA0QtPApLWUzTHu6rfssuxxXQB2JCip2l+LBCg4jpAX6Z8+ZnLs9upm6O0+x74rfs97AC/Ycn8cbvzgJ0D3Puf+2Gw4pU4KbIHJFqthvn91E90zoWNGAa7WyuVF4ew8c3La8+zpiqdPlzx7tuDiYsW/+rO3+PmPv8ibb0SGoeAkEWrER8mFQLTixvrqd72fCdJaiWORhatl5oNnVwy5Qd0UCFX8VEpOtE3c+C+/DHdFWmNSOdsK7hCWM0uWhXAYab15CEetMPUwkephVWrAn0RwDbkuhN4UPjd/7iMoQBLL3LBYZ56drXjv6SUnl4kuT1B3iI8T02MUTLkN9dzW/9u+30pdThsEs95tt1ij/1OVpDZbvQ4nVEdMT9vUJHQxMGkiTXAmUQUjKb+rhL+RIUHzOC5sKyJgCl1hEzhubdpeh+Zolq1RBzPO9Z05P356M1d3oOxwzs4H7Tr3xN4Es999hduRls2hPSBWsNcWOovO6IslJFh0sOwSi3VPPySena/54GTNapW4uOy4vMosl0rXefoUGQbPkBwpCf/NT+EvfvKQr331iFJAZMC7TETIqRCkwYk3S2P4+AXl18FngrSW4lkkuFwk3n96SdYJ+CkqAe+h76CkRNsE8kel+hfizkir3vhxKzJO5uDA75Qu997xxQdwEJWGTEOqW6e6r9GAugm5es3vS1oZoRdh1RVOL1c8PV3w4emKq7WQmSH+COebjUQhm8GtO6RV5dVNaAvo4JBsLhzBW5ykr8G9IZglz1wXlOlkTfBWXDbspFhpo6P1jhAcwVXrnttJQHftsO2mlkqE4tDR52fMNlAn283xrmqT1raoO1r/nR4cHSZFd4KKxwfXTmgdZVvjjRbm5dibYPa7r3A3pNVn4WzlaoFiZbHKnC8KZ1eZs6vExSJzucr0feZyKVwshH5IrPuePhdSMeIrImQVsiopF/7m+x3/i5884Dvfesvuke6Q1pAJrsERyAO45jaJK1+OOyYt3Rkho+dtHayb92GJ57JXzi/XPHm+oMgUCTNwHifQ9xYn10Q3TreXQnbG6KtEDX0EqFumhFAIDiaNY9I6s3R5x5tHMBXFkQg6VJKr7gcqFGnrZB1TZI0DfEfvtBPprwgJYVng5Dzx9PSKZ+drLhdKrw0wQ2S6aaudwXyPpJLrGGoyhrBQdXGuV5xaEYUYPLFxxOhoGk/TWFrf4E0v9fBICWF0H6j5njZOnWPsXW1x3VKaZFpf3xBSHRuK+dm/YMu3uYU3FqtrktfOO9tX698xIRYmuY26R3YIamtfHM0h18nDvr7767rp1/FKN98biWf8uJSd+gOyJSatv7fzU5rrFrz6/9VTW/vqeBjbmkuwlEfVPzAVqzo1DJkh1VxzuXC5Et49aVh1iatF4uJy4ORi4Owyc7FQFitl1VtRDWWGyKH9iivgFanJB4sMJB3oc08aev7sq5f8ix8/5Gc//TKOgpehOvY6K0cmEafBwsU2JcteDe6QtEZ6Ge/KeBcqxrGksMhwusg8O7vgfDGgfopvZrjoycnS20rNjW2r7PY0d4oN6+lmFCaxPU6INVFhP1D6FZHEG4eRNw4ix1PPJNh2cZ97pThyP7pyjFulZOnFEAQrzgnCqsCzFbz/YTE91hWkMifWbRgFcm8OgAnIbrWp1BKkEFwhOCU6s/hYkC88bh2zaBkKQnQ0bSWs1tO0luJ3tCQGHDIKOJ8Im5j7QDb/vVr0atobJ5a2etOizcqzPYpuwgI3ussbH6nPE4XLHYukr4dDCIg6yhglH3rEDfVXHUUdOXtQix81l436+6sEZWXWuigQxzFYqhbK9E8Fx5I3rBDxYKmHzhfw7HTg6cmKD58veH6y4OJqzdki8OHF49ryEXZh4zzahA+pQzZOyGzaPBLsdg4rj8O7/NkfTPhf/bsvEfqnHDaREOZk9ai3pV3weL3uHf8q8OmQ1g3Lz2Ulrednl1wsB9RP8HFLWrkqsj4LpKXOU+ogSzmjZSCQmDbweBZ4MPUcNEJ02Sxje90xoeTqpyVqjpfOJpsCqKeouXtcrYX3zuH5WeL0omexVlKJiIsmfZQEZcCR8T7jY8G7bejKJAaLv2tcdcZ0eA+zaCEtowBkcb3VZUGKPa790KrfcyO1c89fiipdvGJYBMPYEmv1C24rjKW+xn9atvnZKsNpvRxRBxp2LIhGXuY3VvVxO6SgY6ZZBWWn5D3jNtjezAwmdUvY+kAB6w4WK7hawGqdWKwSf/+rgatFYrGyv5fLxGIF697T50ChQQkkYJn72s7a1k0/2wOp/1k9z+01bYjqGmnZew/lXX72vch/+Ddv86g547AJOD+1AikuoSREHYGacukV4lMhrWuko3A+wMkicXqx4HKZUN+apOUdqequxfLofeqkhTc/sWHoyXkgOGHWeo5GworQuoJjoAk2kF8OMR0XbPI82Ypq0lzO2+PksvBf3kus+0w3KFkdWrfRTjLeJZpQaCJMG3PS3Gz5gqMNnjYG2mjpV8KoIK+EtYvx6otade1RUda4F3t//aMgNvFfNXaHSuUGu45St61Vl6gC2kilOEWx9Ea6MbaAVrcUKS0uW3iUbjIF2RZOXN2GVjLSpJDttXHeF8ygk1VJJZNzppTMJZ5VFrpOWS4LV1fK5ZVycaFcXSmLpdJ1yqorPHm+Zt1nhmTS1pCElCOFBpEJ4lvzv3KQONvpgLrcyObRBrrZgo9zdSSs3cM+eKTv86PfE/72X3yZb3yh5yj66uflyJJI2kNxtG6y+dqrwj85aZkCcbx4+/N8baR1frXkqsvgWlyc4pyQq4eAjKRVrg/EO8ULSMs5oWhi3a0gJ6aThuODCY+OIocttAJOC1J6YvB7ktZuT9nvaBWwUzbnvX6w4h5PTzv+518tcC4QmobYNITo8a4QfaJtCvOpMJ14pk2gdcFWf0wKMLeE64VFbWxmilgrti2ustWOTgpMQb/fVbGjz3kZbJv1yvGRwaJQspWSL1YEuJQCTnDTSb3669ZK0ybW74JFL4yB+2qknikUKRau58Ytl2Ul0cFbtW5nRpwhW2mxVW/Wu1XX0/eJD4eW03Xh8mLNycmCZ09XnJx2XF4W1p2n5BbViIon+2Txr74h+BZxDSImXamag6i56BWQBTAuSnYl1zNOGFRG/eD1OXvteZUup/lDvvOVxL/8Zw/52XfmPGi2Je6yDHRpjRTHNNaUvK8Q/6SktZWQjNIV+8iTJTxf9FytOpZ9Ad/i/MSS6CXrd0fNT7W7tbxrvIi0pKDa06/XeCkcHUx5dDzn0aHQOEvbYml6s3lvXzvhi6EopfSIq46PVcVdcJW0Cl2XGIbMVZd5vsi0bcOkndK2blPjzjslhsJ84hASHmXUlMnOgLPBVTuyvpbykqRp43gp4hCxeDVTGG8Le+qO1fETIVo3OPvAI+yXwWNfyxnY9e3M1drusf31rxYrOuLH4PLxbcsSu7HAjieShMpyI2VloDiHOodK2JSxs3voyUnoB9vinV9mTs4Hnp12PDvpODnvuLjsWa0TZ/mQVQoMQ6IbEkMq5KLgHD40xFjDsjxcrU/RUVdX4wqpurScCikVSlYcnjbuzu+b2/Dt84JaeqAXYpe8IPanfO3NFX/2k4b/5udf5s2p26xPg3R0/QpRz7w93G8S3AL/ZKRl932cNDsufArvXmaeLhKrPtElUGlwPiKyTR8vav49e06XV4MXkJZnQEqPloFJdBwfTHlwOOFwuo3wsZW5biWunfDFUM306QoRh3cR56LlvcKZsn+wOo8pZZIWUlRiaIg+EmtRhFEx7mp6YJFC0YGiaRPcOyqOtyEslchEUJaoRR/WT9rViJjS2CZrneOvEWlt9E7CTpvH+1kH1k1Sog7fInWVrH01WjdloHdLcBb3WbB04KsBrlaFi2XP5WLNukucXwxcXGa6Xs16tyhcLmGxdKz6QJ8iuUSKeharhiFbVABSwBVUUiVJcwZVTFcSmkPbTqtNrupNtNGf2L22UVhqBjS7vO2IvPm8oDdCmT6+n12/4q3DS3787Z7/zV9/k7ePHL5+fNA162GFEJi3hx9RO/xjccekVeqKs3Pja79uVn3gv54PPL1K9EkZikPFvGmFKt1WScvXfGYf35WvGC8graAdQXqiFw6nkaNZy8HUMwlmXndigbxUz599UDTT9Re2avqIdy2I6bhKLT82pGyKf0nQJqKLBDwOj1OrxLL7a6pQJFEkfURhbBLTWL3F4F1XCWa8T9VyhN8m2qrYJHN8GapRYT945OMqMNzAbUhrA8WU62PLq05H3Hi9GS1X1bG1tkV9VU7X6zehjMUAz9cDQzL90mJVuFop51eZi8XAxSKxXGX6oXCxgKuVMKTCqsus+kI3wJA9hYi6FvEN4gLaRcgecRYEjiuWs4pk23dNNYZT8e6oVuDZblmE0QhgY1AQCsoNNfzuE3teX1I13/gt6riX8fH29TIUjtsLvvOVE/77f/ttfudxw6QK8L2u6HOHSGTWzF8v0rKUr9sJw45OazPuVPgvpz0fLhK5WIoadRa4KWq8J1qlmM8AaTWsLRB60nA8a5lPHK0Hr5miVkHauVE3s59iWTXTDwubMC7iXIPUjAOKEVAqStFE0R6VjuA8Ho9Xj5Rqdq/adAVSqboVlzcamXHltc4f74FdV3RmcRzvkx0jaV0fdXuTFrt9+BLo+Hsvx21IS6uHsdYkdaWopWYRZx739ScLMAwnFrzuIkgkJ0/KjiFZJfC+V/ohc3oF7z5zLJZrTs+WPD9bcnK65vwqs+qFIUegQVykMCfrtKr2q+5LC1lKTTFuGWNFYKotgWCS007/ipgOSjAFv6Ks1gOqFuwsYql4nDNKkg0P2Z3qr/PU5tFGxzW+WKh+ZNvxbqS1GYmbDw65YeLP+Prjd/jf/7tv8d0vH3LUGKn3rEg6IBKZxunrTVrjWLvm+avC//y848lVpogDAirbijtSzLPd1jul1En5T4IXkNbcDxxNlMNZy9HUMamEpcXWM+e9meI2k34fKEV7k37w1wmrHuajkxHAE0xjsvlAHXh1xFrwTR1vuTqR7nqZ7/wuo71MU7WU7Upjptuivrr92r6kNTbq1eI2pDWUniLYNteZL9VH+rbqppJYgPC6r/qnC3j63HLsP/nwnKfPL7i4XLFYNfTpEeID3re40IJrKDSk4klFGLKSM5QUQC1DhQvgq6NlkUIqHSn3pNwzlJ6Ja4kuWO4rFyxr6DjysxUozjUrbmhtJ5NLoZRErumbRARfIzK8cxQc3bBDVSNR3XgMNTVzcZXCx/G/c+yoBTo9wHPK2/P/zP/ub77OT77+Fm/OIQ9K9iuyyzhpaXzz+pKWjbPx8e4EEP7T0zVPFtl0BBIsnGOnn/wOaeVPmbSOm8LDmXA8D8wb86aR0qN5QMby0DJqt/YnLZMh63eqxL+Jc6zBrZCgeKRviKP6p1CtFQkNoMHkpYIQcPhcZfYNf+yK+3YoSiFstHB1SN9o3/Y1Z0vyzvsfB7lFH7DzO5+M25DWKq/MMugDzu4WfYHlqnBxteLiYsliseZqmXlyMWfVw2qduVoVLheFq6VytVaWndAnR8oOVQ/U2BQLkgS3E6WpSqr1N32BUMZsnrUQ70YUqv2v9jhjcYK2RR2lpno/xnxtap9X8zy1i5R6FzfWP5t9dqstCqJ+bPe/+nB7n112SB53CaOENRLV9bjVlRwjes5b7f/E//ZfvM3Pv/VlvngUSH2mxA684lxLkPAakdZYoEC2ykKHVs26WVUGFS4WPf9wUTjvBBG/iT9Ttn00Tn/R7UTeBzd2NR8LqZkK8o0Tq5p53FOIXmiC5+FMeTi1/E+NGyew+WXImFN4M1n3bADUwSHjCEQ3hGXvmaBfbCXsA2EkLQWK6Tssp4tNHAUCHim+DsDxwzsdu+lJBd1WbFG2Tb/+qWpguCZpXe+0m6t30a3Vcfv6Tr9UgpaxiTfeRixFjqpRq6rlfRLZJoMsGIcaYdhjrWRwcdnT9YUhF1Z95mqduVgOnF11nF2uuVisWK4HFivhyfkj+iT0Q6lbQSHlQCGCa/FugvhgGS5qDK3pycyrbqT/OvLtHqgtBzYYFar0als9h5NqmcUxoGS1jrCRYL1v3Vc3+WIdlrP5RMk4eOu2EWwLXNQKBVuIWSWtjwzH65ZEKQ7J4yJzc6xU6au+PrhDSr7k0P89//qPj/nLH3+J3/1Sgx9Wdk7va9Dh7ZatfXCHpFUHUnVTMAtXgbK2Ce1aLpLwd++es8xTMq+4RqFA/shNejF8zfU0ZKXs3EhNBYaOVjJHbeD4YMLjOczb8QbaSviix68dTDzb8CZsH49D1kirIFjgt02SsS9qv4nWKABTAmcFt1MabfsDW/uqqlVvdraL3fmoAqYrVE2UkqwSUjgEsTRFRc3nqU92dMnyP6Ws5ALP3oOzs47TywVPTs55/+SSZ5cd511hrYHsGwgN+ClJH1ooS22Cq8KG1OD77RXsuI98jlBv355wlDzguOTb3yz87V895o++GXnAOeQD0BYcJKfsGz+xL+6QtNSc3G6SVu5quozI+eD4z+8baZVPkbSEnYDOUcIpUFJP0IFpgAeTyNFhw3EL0/D5I62kHUXTRu9l/mL2b1Tkj3/t8ne3OBXj5VdPc1XBabDFS62ARam2eRXzEndVSnA+4+irrFB9nFQ2Pk9gynMQBjIdhXVRLi+VszPl+Yny/Hnh7LRwfm7e5F0HV/1AlwtDVoYBhuwYyig9TSBEE44ddLpEsWrQu7x5jUPtEeU1vtcfh9uRFmgeQJd85UtL/v1fv8Wf/P6EB3pKLEeg5gk/uEzYzWL6CnCnpEUlrbLZ4tVoXoRE5Kx3/OKDC9ZlaoPoVeIWpDVKhb6GsiiWI1tKx8Qrh63nwbzhYOaZeYg7viyfF9IaWFCqy8Po4GpuCGMuh3ooxKKVtEZLJJW8xs+NL42OdaYWyFqDfh01sVYNb0FqlGAyQwyRTGDIwmoNV4vC1dXAYjnQdYlfnZ/y7GrJkIWu86xXgdUq1iOwXgf6wfI+XciSLIqTgHcNQRo8TVVy7+x+gCJGWhvI9r3R1oFCkXvSEszxVkvH8cEz/v1ff5E//9GcN8MFM52DTigIgx/MuPAK++tuSQsr3Z2riO0pUMxK1hXP87XjH54t6Mtk4wD3ynAL0tKaOzsEm0tWVHRNlMTRNHA8bzieBdpogfdeP3+klejJ1eXB/tkyI/itsbDex6CrOoNHa2RVRo+kJTs53Est8119gBK6SXxof62Sdj8Iq04YEqxXWgOEq+/TZebyKrNYZfpe+eWHV3x4sYaqG1UNFI0o0R7XWAAULsKK4iCIJ7pI4yJBA0EdUgQZG6MFJ71JgePl1msYH2/n8z1pOWfprfOQCPI+/+av3uSvfnrEVx90THPE6YQijsENNP61Ii1QEVNwF5vsgqXpuBqEpyt4/6xnKG3dBrxC3IK0xoT/0debVjpE1xy2wqPjCQ8OGmZxlBZrqauKzw1pjYG/O3qczSDeGciikMtzS0fozDfM+VCdYV2taGPJoyEjdKjVfraqSwXWCVZDYd0X1v3AkAsXFw3PnzdcXCx58uyCD59e8vx0zcWikEoLfk5sD4nNlHU3pR9sP69SULGsGLhsEpskkIKK0vtiUpKai4j5bApeR3cao2dRR9AWHYuYjhK3VOPPDmkJtyls8frgNqQVgtUC6Dsl9+/zlz8/4l/88THf/5qj7QuBFpxnkER0+8fg7oN/MtLSAq5YDidVx3mnfHCVeboo5NKYE+OrxC1Ii2rBcoDkhNM1rRt4cBh5/GDG4cTVaZhtwI4FAj9HpDWmgBepxEUdxRtUcUsK6pcbe2Zf49xScWQ1dw/nG8QHCo51hn4orNaFq2Xm/LLn+dma52cdz8/WnF+uWa0TXTclDcdkFYYCQxYGdQzFSogWPKVal2Pu8TlZGmGoY8cI0zxqR9IUIpZfvpRsPk3VqmZC4lgf0VXhcCtBf4S0dl7zKsS9B9frg9uQVtNmUMd65cn9CT/+Lvzlz+b8xQ+P8d2K1jW44MlSNnnMXhXumLTU4udqJhApA9ELWR2nq8x7F4mTzqEaa/KxV4hbkNZmh1PAlTUtPbNGeXw84XjeMAmCG507xzD+zXc/26S1t09THks/2VOV0VlRjbDqaFaBbhOKbbUS14Oy6rLldlp2LFc96z6xWCkfnnuLnexhuRIWSzXfp6U5cK47S6tSjEVsa+kd6gR1juLcdjtZXV4O6ZloMmJSj5YAGigloCVUPypjmINqci8KqfpPjd7oKtvC25aZYdiIlbsktZGyRtIqQrPv4HqNcCvSmvSgnvVqjqYFX3/7kn/2k8i//Ys3afo1ExfxwVNGYeDmCf4RuEPSslVLtTo7ZiAPNNGRVHi2SLxzNnCRG+RaQrVXhNuQVrUeuVJo6Jn7zNFEeHTYMm0c0Zmp3/yEPp+kpTpY+ugqsVjkgVDUUdRcQVRNaj5ZmnuBlZaCq1Xm4sqkprOLFRdXK5arjqslPDufkTMMyTEkzzAEUo5kbSjaglYXcZ8gXNWZY+E36jCHSbf1fkJgrkpbWUTVQ6kOn8VTSr0/agaEmVpOUcVCZvLOoUDeCaWpOa+3fVIn20hY4wuuCGFH2v684DakFZoFqpGhewBFeePoPX72A+V//a9/iyPX04rDu2Dz6vUiLUXxVqOvklYbA0OBJ1cDvzrtWDDDqX/1RShuQVoI4AuBzDwUHrSOhzPP4cQRxQhrXIFRM8Vvvvo5Ia0sfXWQDGQiCcv71A129MlCXLoe/u7v4fRswfnFkucnFzw7W3Bx1bFcZ4ZiToXiIy7MCOENSqnJDAuUXAvuiiWNk1HACooLVybZ1GyhiumlTNrZ5nanb2EIG0nQzmHB6mNl6TFPSlon8wMbE/NVFwuq5/lW2W5xr/UXNpNsdxKPer6tNfXzhduQFv4MtKGkN6DANLzLj7+z5r/729/my0fQqJqesAmvGWlpJS0sz7vmnmkT6Yvw4WXHL0/WLN0cr+FTJS2VgrpE65UHrePxLPJwBhMxHddYXFVqTOGOUfxzQ1pX2rFMmdVKObvMnJwlnp1knj5LPDsZOL1IXC0y664wDGoSpwSQhuKs3lAmkjWS1PRbWgqq682uzyJejFRMah2l1wLqcUREBOfG/F2u+ngpJY9xdoXiJ0aMYBRSC3Y4KfZbGGmJwOBNRrboBkVzMUNK3fGOMrNQizfKdvKODqW7j1HIThjcZ+9e/2NxG9LKPEO1QfSLaIIo7/KD373kv/03b/O7X5wQspXKm0wnrxFpUYUTxcIKign4PgTOV5kPLjrevxzIzSG+OG5R3HcvKDBowYtjHF9jseVxsQULNnVBaSeOaRSOpoGjCRwES+jnNCOlbLevrtaR28HHkVWpg8DUQhaQrC5sUjY7xhjUOnvGDKGjVFeVxRtFE2OfjsoWczAzWcQcFbaii1VM7qtWoVTLXTfAcg1Xy8xi0bNcDaz7zLNz5XJpinVTmheuFrnG32WW60LXF1KqYTQu4HzA+1hTq1hGTcVbALJKzQy6tji6Kg1tSEuV6vBgj9UhaqS1TThoh1Zn1aLFnFZ9QN3oZ239JaI1zm63o6B4k6ZG0trE+RQjt9HpUai+YxXjBB5f2X1cBPLH3PPXHfteleo5hUjmDTSDT+/zrbcv+Pd//pCf//5jJmGgaCE2s1qS5dXhzkhL638C6JCqz0MgOccHZz3vn3ecrhU3PcRneeWkVRT6kggu1LLfNeyxKpu9K0Ci6EDbCMeHLZPGM5vANMJoz6yGfGOgVGrMz35Gg77mAQsK5CVooYQG9Y1RiYIVLuktKrySlk03m1DinDV4swJWUlLL37Wdi862rWrfVITLMnCWB3J2dL2wWAkXC+X0snByNnB60XNxNbBaZ54/8yxXO97vYspxrb5245bIzh0tvcs9fmMhrCni6TikqMOvn/C1hxf8yz+Y8Dd/9mWOj3MtFNLSbNJQvhrcLWnVFUpTrXIijkEcT857nlx0nHbgJgd3QloKDFgcXBU8rC0KqFV7Dq7gA8xax/HM0QTHpHEbJ9KRsARbXtUC6ZCxRPJLcNVlvBQL+5GuLjeBTGNZFXKPzz1eBysZhpj8VR01tRKRuYyIRRYEiI3UlgWy5VJlVXOO21HoUuaDDwbefa9nsew5PV1wcrbi7MKCg7M2qExxYYL3k6qIL9dIa5ewRpKyx6967bzH6wYnPUUcvc5J6gndU37r8Iw/+67j3/7lV3nrseBcphBoXhuXB7bMVbJtAQpCVxxPLjqeXg1c9OAmc3yW/esf7AkVSG5jxMRjmU+1KFp6hETTOKaTyFErPGwK3kMIQvRWAMKoo8bflWp3HzllDyxyj5fMxCWgA7SWdbIIgJRW+NTTuIKLY1Cx1cYrGuyoPkrjpnEosEwDXV+4WifOFgPPLzqeXgw8u+g4vew5X9qWb1hG0rIhZyFlrRVbhKIRkcb0Qi7iJOAYQLMpplW2pAVGoPW5INa59/iNhvODebyXGTl7/PCcNycnfP+3e/7Dv/wGX327ZdqY6iLWONZXhbslrYqSi/nJFGE5CE+vOk4WiaskSDPD15TKrxIqkGrJsVHh6mUM8rQS3rOJZz6f8LAVHnoL4bB6f6NayBx4hJp2V7fv7YOrtMa7ZKSVFmQcJUwozCi0lNLj8mAWymAb0oK5hPSp6p5WcLnsWSwH1l3ictlzctnRJ1h0hctV5nypXKzhcq0semE9wFAcLjtbEHAbthXxdmwCkSsR3UjzsCtx7T4HcHsq9+/x+YULiSKOlCeU7PHpnKPwjK8+uuA//Kvf4zvfOODhHISBQHidSKsqQwvkInQZLteF51c9511hlT2EdhNS8SqhAoPfbLiq0jsjOuAl0QRlPgvM5y0PIxy7vrqE2+pQ1btWrl2DZb4ct5l79v9V6nCSaCWRuwXFNyQ3I/mZOUwOlgJck3I5CKmY2qyrlVvOLhMn52uenS44PV9yteg4v0w8P7N6hwVP1kimQaWluNZyjktT83qZQ+9um4W6R67K7TFX1TarspHU+GmTuqp4X7nKPO/uies3GRKzRbukBk2BUJa0POPh5Cn/7l9+kz/83kPefgSB3qzCrwdpmalOFRRPKrAa4HQxcLrILAboNaA+WP7+VzwHCjCIlab3zpTepB5Hoo2F2dRzMA20rePQF+ZSq8ZoTTpXvfmVaKZ9rErKqB/bB2MxdI/VQSvScN7D6dreW1xCt4DFZcd/fOeEi8Way6s1Z5cd51c9V2ulTwEVq7gd4oQhN1xeBZxzhGq98y5sy5VZt6NWI3RTVmIMerbLK1b7T3ON3wGZAXGHrHZVp5scU6bo3/Ucv8dvJqSx2gN5CLgc8Tog+YRG3uev//wr/PlP3uL3vgxNWVvNg1eoir9D0rIpU4qgLjIUWHTw/KLnfJVZJ0eiobia/O0VzwFTxGeC94SdAqqtL8ymYmlmJq7qnJTpyEa1ZpnqmHU11Lz1deLehrTGbSmW3/vZZeE//vKc//cvzrjsZ6yWSr9K9F3iQhuGDENSS2Y3CH32pOLJGqwIpwRL5Vzb4sEKsKIWjD66Z9TqyV3x9FoJLjiCd+aKVItwlJzIebDte9tQQi01pUZaJl1ZcLBdsxUbUXdPWr/p0JgpKPSeWCY4CjmfITzhj374gH/1J2/zo28I07zEucmm1sCrwKs700eg1Q/H1nqtNNZnJWWlqHkkv2qyGiHV1cDlAikjOREFZk3goIkcNJ6pV6IknJa6DbRgW6RWIagVW0RqJoCdjdM+MO8o0xUVdVytlF++f8n/63/6gP/nf3zO//fv1/ynXyl/957jyWnk+WXL2WrGoj+gL8cUOUbdEbhDVGaoToBIDELwikhCy5qUlwx5wZAXJF1QZIX6NaFZ0U6WNO2CEK8Qf4nKJcVdoW4BYYXEHtcO4EcHh3qdm6wI1YKqWh/frg/u8flEppBrpW4zIVk24uRmPL/suVwmUq7j6OaX/5G4Q9Limt9RqXm1hqxW3qpKLXcFwXIokTM6DJATrRNmTWTeBqbBEat7nKAMaqlTMqEWedgqq69tC29Bsl4GRHqQhDjI4rnq4OlF4vkqcqUPWbq3WPImXZ7Sp5aUGlKOlOLRYlKOrzu36JTGZZqSCGXAlQEtAyUnkhYGgd47+hjpm4ifNcwPA+1UcCFT6OnzmlXuWJeBXgvZOzSG6sxp5CQUHIrT8a8Rl9OaH/4WfXCPzyeKVofxYvPHqh21EOacLzNXq0QajLRe9YC5Q9IySWt8VHW/VntOsTLkm1X95ndfAWpUBrlQhgSpEF1gEoVJhOgEr5mglu98UCskb2UszDtrY0Grp7x9MwdgDXQ4rzQTT5hMkXZOmD7Ezx6hzYxe5qDOtnrOEb2jCULroXGZQIfkBZIukW6BrAfCAI02TPycdvKAOH2Mm75Bad9kHR+x8A+5Socsl3O69RH98ICUH1P0LVS/hOqXyHyRpG8xlDcptBvX0ZG4xnsjaC3jNjpB3L4n7vH5gmqNUFArUSdgZc98y6q3IiJpJ2vIq8QdklYAJigNqKmKUp/pVwtzKg8WVpK0Sl0v2HZodQnSmtNodJXKasl5s4cS7UgOulxIo1+WWMUth9I2yuEhPHhUmB1kfBwoujJVu2uIvqF1Js2Yyt3VdLyWbnij0XlRI18A3UiYyRL8lyNUHXECPhZy8miakboEZaDxK8usgK/OpNWSOEadiCDeIz5ACOTgSE5Iolb8syTIA5IGfBqIqadJAy6PxSCsMjEkRBJOepz0eAa8JrymKkWNVacrfYmVSc9SyK6QnP39TXfT0qKkZHlesxdSdAxBSAJSlHZQDjt4vBbCoKzJ5Aa0LeQ4MMiaVDpEhahT2jyj6WbkBEkH1GckKvhiiQ2d4rzgxKEF0lAtvq8YGyFijyMUaIlM/AEkIUihkYzrFb2acPJh4v1nay5ZkDRv54TqNhh+42ZjY3NrNvpk3CFpieVc0hr0miEPiZKz6UVkTPayJa2Pg44EVt0nzLvecoyrs8DovFPECaqEoBADTCaO6Uxo24L3CSEhrtTMmw0iZn3bei6xcSr95JZ9FLuDya4uQCUfHwrOF3NUzZ6SBygd3g1QPc8L5vm+OUzOAakVpJ2nOEdxUkncylhpyUjJuJLwJRNKxmneGRzjUa+fhDAg9HbUijjbYbnT78KmGnK5E7H49YITiCKbgg2pKF3KDEVBPMFHGhdwSYkSiX5GSY6+g9Q70Ih3VhOhlJ6ce5SBUixejzo/NlKKmMFlHIp3QVgjxnnzssMhePEE11AUC1inIFkpQ+TiPPH8fEXvxjE6xpuOgvo488vO4/2u6w5Jq6JKUrmWdhdnRUG13pjbYrypztvgKQVyymgum9Qk1K2o94lJ65hOAk30m44THJ6Ilwj60bLvrw7bLaaIuU55qVLgeINkdOC8x+sCD0wFpiLEIkiv5K6Qk6AuoE3DEB2XMuB94Mh7WMBwBmXREPIBjT9AyfR6xlreJ7XvoK6z8VgcmqVWe/abxUREzLnZklF8uhBjb3Wm38qqluHVCUU8V6uey+WAuJnpuyqMuCop7AgZt8GdkpbWRpZiqWmGZNUjLKGcTWLZn2ANWsyat+OhoMkkDSdKkIxjwGlPGxMHM8/hPDJrg1FlsR8blexaaojOnWDrUie1jNoo0Qk1dY/a5+7x+iANA8vLC4bViojjeDrjjaMjDqYtqXScLZ/zfPWESz2lH97FrT/ggAsexMShU+JQyKtEyQrBEQ4C4TjgQ8DVZIYUD+oRHQ1C4+In+O3TTw2WWVYo3lyLBrIlVPSehOPksuP5eYdw+JG4t5uC4ujKvS/ulLTMcmBSVp8LfTZJayStfXVEu5BNmfB68caMiBacVvufyzQxM58q8ynMJhYIHZyJtaLbjWAp1pa7wfYCRSA4MwBYO9i5Xb9GR9zj04P3MJmiMVIkU/KK3J/D8JRpOOGthwu++TXhD34w50/+aM4//1nDz38kfPd3Vrz9xglH06e07ozWF6KbQnlA3z1GygRXqwRZ7T1f05DX3YBUbxz/GXA8EaumrgJZCkmMtNR5skTOrwaen/esgVLcR7a0VdC6/nxP4rpb0sJma8rQpUyXFHXR9DZspaXbdL+r4SnVcR0HeHEW4KwZTyb6wrRRDqbCtIVJhMYJjfME53E1iwJ6u9++LTYWyOrv5EWJTitpmZXO7tNdtuIerxwxovMDUhsY6BjyKZI/5NHsnN97O/NH353wz396zF/+0TF//pMDfv7jKX/205Z/9rOGn/9h4A++B197e83hZInLPbkL6DDD0WwiG0x3ZLGvqC2siimUxuH7qUIsiL5UxXqh1NTVjkLgaqWcnCcuVxaaBru6OJM4XkxcL8fdkdYoBokwZKUbMn1RilSXgqpYNGK7+eUXQwSrnjKSVq5KUR8IzuEoRJeZBGU2ccwnjkmAsRJedJ4gZhsc9cnbhIB3gXriencCSnBKECsLsRHx7uz373EXKN7TTyNdKHRc4dwZjw4v+N7XHX/x42P+zZ++xd/8fM5f/qDhB19v+N23Iz/81pS/+uPH/O1fv8Xf/MtH/Ownkd9665KpP8UNC5oCjVOiV4LYsu6oxFWoPlFVmf1ZGC8qlpix5Mqw1QwmjkJkPXjOL+Hpc0hpS0emV95KVp8xnZZNSudgSJkhFYqKuTiMe9wxi+jNr34CRoLR0YpR/bGi8zReaKMwmwjziWMaHUHMK90GwWgPrF1VrAdeYYTBR7BzuwiY1Sk62RoN4J61XjMMOXG5WnK1eEYTLvn624G/+uO3+Zu/+Cp/8r1jvvHGwCNZccwVB1pocsD3iZAvOHJnfP3NNX/5xw/4X/7rr/BXf/qAr33plPX5/4joM5qQCM5cUaASAmP23zG87GaLPgWoWjrtXPDeLJ06WgmJwJT1KvDeux1dZ3n6r28RR33uSGQ7i/hLcHfTtTbCCaRKWhkhF8sagFTiufm9l0CrLszVnON1x09wQtsEpq1n2jraaDF5tlpVkXukB1XLHYUV9dyIXa8YmwCGKmkJVnzB1dTA403akPg9Xgt4Lcx04GHM/PajwHe/OucPfu+Y33nL8bBdE4Yr8nIF2SpZNwJTP6UpguvX+P6CQ7fgG190/Oj3Wn76+w3f/72Ox8cDMfZ4P+DcYDnvaw79UixsppTRR+tuxuy+0JpvX0smuFo/EjWncXFEPyf3kffePWXot/5XH9Ft7Tzd94rubrbUvS5SJa1SrAbiGAVS5/OO+8lLoTsXPWY9HgkpOKGNgWkbaaMjers48+Tefq6epDpbjkfddL9ymGuHwbywnFTXDGtIfX/fHrjHZwGhZA5zx1eOGr799jHf+cohX30jcNR0NHQbX6XcTSi5GmA8RCJh8Pg1tEPmYSv8zpcm/OS7x/yzn77BW294Qkh4N+BcxomFyFBDZkouG2nrU4datInmTHCmUx7nl4D5puXIhx+cMww1g8rul+tCvj9VbXFnpLURFXdDd8Rq6NUPWPqq8fO1/Zvp+6J5rOYTIlUXtSEtBe8dkyYyaQJNcPgqPQk1S4FW0a7uo8XeHCtL1NO/rANf9v4n+Z7Zb496OXM8vcdnCaMV1/7fBpDbe9tPudwxGy753bcO+f5vv8k3vnDE3HWEska8x7eH+PaQ5Rq6hHm1SwZxhHDAtHlM6x8wk4Y3ZoFv/fYRP//R13n7CzPmk0ITE87VZGvUrCM7bpioXIvUYGcX8XGjb1+MNPKyQ8YGqeLEWXvGCkcKwVv87Onpmn7YzDi7llEJf613de+cW/9o0hr3ozquBpsyT47eO04uEiU3tP6AqW+JWiD1lJzRWiuiZIWckGLKx+DsGP1RipE6qSh4Z8HXGbTvmbDi8aTny0fw5WM4boVGPGRn3uhmIwZxNT+WM/8s8aYaLwHz7Cqs+p4h5U0BDBKkPjGknsJAoqfsEWpg3sw2hBRnrmFFyThcMyHOZqRSar550DGX1z0+NWQc5zrFNRPmPnPQn3KsV0ydRTWsUqS4ljRkWj3ha49+xU+/4/nO1+DRQSL1V1a9GqWTzMIp/Qy0YZPzH+fR0KAxgnMULbiiTIvyZlD+uz99wH//zyf89KtnHLj/AvoeyV9SJiDThtBEs4KjTGRKLFNCmhCyZyKBaYg0weNQUk70KTFktfRKexxWj3IbBfFJhy+BSEv0DcOgpM7B4Ah5AF2w1itOU+D97ov88vyQk8GTgkd1Re4GdHBARF0C6WrqqP3oaL9P7YGPiqy2VnVDsjQ0tSKHibvZQk+qlDge41Jxs4O0nt+ktfpZzTgybVSmrTBtoAmV8ETwG7twPXYloI2DmK2lWgpZB7yvDq9VSrPt7ViW6tdZx7afHzeE4jzeh2oqNjHx5RLePf5JIIWcrdK2c45u3dP1iayK+ELXnTEJK7769pSf/fgrfPNrMx4/wKqQewvNcWL5y9w2uxGM91/Mam4WNiuNZv6FhSjK8XTFN78S+dM//C3++R9/na98QQj6nH75hEBP4wNCS7eGfuhResT3iEuk0jGkNTkNAHhXs+0iN2SkTzhuNbwdThzOVXeMAhTTa1mVq0xSoSsNJ1eFRW99YIFp1KSAVUmyIYL96Gi/T/0aUCzEpoxkU1+zFu/EVVFJpHrYVreUGxFJph9TTCEmCo5C8ELbRNoYCH78gdHvbf9L01LQNFhBC1fADSA96pINPmfiryP82hkYx8t1Ijg/hjWMe/t7fNoQCo30lNyRCmQ/5TJ5lklJmnBuhcvPeOvhwHd/9yE/+oPf4c3H0EYI4mjDFCcThIjHE70Qq7Ho2u98rPoAcuk4OHB865sP+LM/+hI/+e4jvvaWcujP8OkMyQOUQNGWLBdkd0FxS7Jb05c1fe5IJYEITjxegqVylFqE4WXHrVQWN0nPsK1XiZGSwtnlFcuu1E+pkXp1XQJq/YX9w+l+vRm4B3LRmjtrTEUzktaO5n3860GDQ8fCmjWjwzXCkgKS68o0EFxh0jpmk8ikNS9ztcgYO/V+12/QgqQBsWLwFrxa82AhpaYZduatvGfHfgS1QeKEUElr29ZbWCPucSdwKFPpCCQKjk6m9H7O4AJZeySf82C24Hd/2/G9b874yheExo/zXfHS2l5QQ13eoK1qjpsYiWurRjDM51PapuDyJV84hr/62Vv8mz//Kj/8xgTff0B39SElJebzhnamENYM5YouLSlidUXFx5qoYNT9yo7B6WXHbVbQLVld46nNUK+SVIFnp+dcLruNIOKD35CWzW9PUUsssA9e0KWvBrkoXQ3dScVCeaxNVWlX56mzlzbBl6OUpYxbzvpsdBXQjuAT01aYTwPT1jI5OGfCptt01/4I3jFpAiUP9LmnJ5OAy75j2SeGVBOu32Yh2oWwKTThnMPXtMamkNyqKO/x6UFQGnomjdUtWBQIB0eENuBlyUE450ffOuYPv3PMb38BUrqg5BUljwVRxpQjlnbEam1ny3xwg5zYIa7xsT1vCNLSOnDrZzwMC37w9Za//Yuv8c9/+kV+681EkKektKCkgiMSw4wmHuLDHJG2EsDoXpNxkrbWqpcd+7IGdUzXQ8e/VrDKRrQIiOXufXqy4OyyoweKOCtAfG2Sukq013/i43BnpFWKMqSyyVQ6EtHIVsJ2iyib/0ayAh3jdKpvk6/WwuAyk1g93qdWWNXXqHfndsui7w+RSpoKRTxJA4ssfPD8kpOLFevB2EqHuiDdEjvDE+88cZe0dGzAPT5NCEpUS5uUEXqF4jLerTiedfzOlwJ/+N03+b2vTHl0kBFd42XAu2KqCNkRPurWQtQKmmx+4xOIC4DikNIQaZgHx2HoeTxb87UvKH/y4zf54x8/5ne+knD5lwyLFTJ4GjdjEo8QnTAkxzBYI3xQfEg4n3Ya9rLjFhBFbxww6qGdHThUHSfnPc/PexYr0N3g78oKu/rrfXBnpJWL0qdCn2yLuJG06qoySlo3sSGsUhC18JsgSuMsfnASlFkrzKeOWWv+L5ZRM9e5f8vOp/5osdVSZUpXWp5fwt+/d86HpytWvfVUGhI5/xqstQPnHSFaLiWTJH89or3Hq4UAQR0p5WrZLQzpgijnvP2o8ONvPeL7Xz/ii0eOqTffpOCcbfXHiuM372OuepEd3CSqaxLXRl/bEsKEIIWoSw7bFd/+essf/eABP/7ehK9+ccncFZoCIQuShJKEkszKrijiCt5nnMu1Yfsc+0NRVEa1jSnxTeIajV41NhHhfAnPzwfOrxJI3AguSq0INf78nmy058duj6xGWqmUrV4LrnWQsCOV1lhCsiJlW1QhsCWsNlg84XzimTWOxlEdNVP98lZ1fxvknBmGAfFTigQuV553nwz84pcLPjzJrIbqZiHDplDHrwvvPGFH0gL29k+5x13CpJxulchpoImJ0j3hOJ7ynbcjf/aDL/LlI5hoxiWl8VPM+WAU83cOYRPo/CLx4UXEJTKaxe37OghDl3EIh5PIQRx462jFT78757/92+/xw2885tEkUZbPuXz+PrlfEb2nbRoU6NNAoSB+px0vO24xDmUThradb3ZdYweYGggc6y5ycpY5OR8oEutnTPm/yV56i3Q7d0paQ1FSNvavaaxg9yaNpLxDWJoLZCuD5dSEyShC64SpFw7nLbOZJ4SqaMTyaJmV5vaERZXmU4GM5/kF/PK9zN+/M3CymLBMMwYCCWq65Jvfvh3ECd57W6nGmKt7UetTh6qQ8wRoaxB+xxeOM9//nQN++PUDvnIEbVbozds9pQmFhj4VVn1HX1LN7FrTUQuIaxFnC9RN3CQue9EkmFIGpImE6THq5qx7RUrm8TzwtTdavv3lwJ/99Jgffify9lsrZu0J0Z8TgtUiUIRcHDl7SvE10G2f4wVt+hgo2JZwlxMZr2E0qJmWOTPl4ko5PetQdeRsOxvbHg411fLeHg93R1paPeFzKeaTVCWt3Xu1eVglLUqVsoriihVT8JjfVXSOxjmmbaD1ngC2JdwosquziO0vtz+yB8QJzgdSgafPM79695L3nw6kcoT6Q5LCelDE5390cLWI26bX2ZE97/EpQ4WUI02cE4InSMdvf3HCD373Mb/3WwdM3QDdClccjogWUxyrBBOqfKGQLL/WaLF5yY39CHG5Jbgr1Pf1nC3iZ4hMcSXQqjKj52Hs+NY34Ie/P+H735vzta82TCcLhuGMrlsgCMG3qEZyqgaCfY7b0MHu5B0fS/2vbg/HF5UpqzVcXZkPWS6VIDYJ1+vfl/TXiFu0snLL6BRZD3MW3YY8SPXNyFlI2VHE7exhDWPbTAm9ZWhxVmfQpJAMxWrjtA7mQThohEmACPj62+aeVk9Qqj6stm3byvpb10RgpWg28dR7sp9yegXvPFnwqydLTi6V5CYUFxgKdEO/+aV9ce3z1aLjXSH4hJO8LaDxgi3EPV4NrJp2NepcM+6I+QuNSSUR1Dl8VKZNz6NZz/e+8YDvfP0hX3gYIS3RPCBIdUC2keS9EEOspW2rngdznN5pxfaPjg9sWyRQ08+ImQB8wvmavhjzOWyCJ0iApGif8HngzQdLvv3NyE9++JA//MFj3n4TJu4c7U9w2puuTT0p2Uy4Nhd2m1LTOHtxY3ne/bC5vh3lRr22rSAxTreWxUo4uxwYRqOc2gMTP7z13fidl8D/H/6H/+H/2DbNzddfiKJKXyxvjqDI6JCWelDz9hZx5KScLB3PlgFcY86Z1SVhtzRVZRKKU6R1NFOQ6OiL0g9ryrBi3hTenAe+cBB4PINGCkEKHnAq15UJss0zowK5ttResKZaKhwha6IbriBmkrQ8z5H/x39c8P/5Zc/7556VBFb5hMOjnjceOt46bpm4iIjJePtgyBlRZ975OaEezpZr3nl2xi9+dQUcE+QAGY0P93jlyN0KLclWZy0UzVamLUaaGG0cFtvmTI49i+Xf8Xj2hD/5Xstf//TLfPFAccUsMX46oUhHkUTTBIt/3Yw+cz92tRScEYWab6GUmvt9nNgZZA2aTMIpjtID0qLSALHGFtq5R6L0PhDiBBcDwimzUHh8OOXLjw44DOCGNWm1YOg7cJ4sYtlEyxokU1ymSLZCqyRUC16UJgiT4BGBtPc4lGt6O/tnM8O4YefIkaG7oo093/n2Iw4mYvVGE3g9gtKgzoxz+xDnrSStF0Lsv92fMi/4kTBGM+GW22/COUvKlxJW4LEUonfMppHZJNI0Dh8sEvMlp7oBt2V+pzi/Vf4p4OMM1ZbnVwP/6e8vePfpFYsO8BNiMyfEKd41OIkEb+XEbofaL7LdscqYnQLd9tpe13KPXwdt0xJdtD52nhAaVLxZtofBKsUI5NSxunyHLz70fPebb/Htb3yB4wNv1ukximFXxNoMwnrsjMlduUaJFI3kAv1g6WVMARutdkJJDCXT14pH47Tn2tI4Dh7begkexwElBSRnjg/g+999zM/+8G1++N2HvHmcCOkUVpeErMxmjxGZMAyZrl+SyhLnB3wo1PWUvlPSXYXAiiOr0PXKxWXNZDr2JVXHvXPdL8OtZqFsfmDn9GrvjASlWGBz3tW8vwSCbe1SV0h9h6MwawNH8ykHs5amkWq6vYXXbi0Gazl/rGQW0qPameuoi4ifcLXwvPP+ir/75Rkfng+sc4QwxccpzrWgEdRKjO3XpVvYPbn+LSemiDd9hg32Pa/oHr8Goo8EH2yiu4gLLbhgtTPVys7lMpDzggnP+cbbE37/d9/i628fMW2U4IrlihJvw08Cbke5rjdu4M3naYC+q+/5QvEm6fQZ1kUYgOwzGteo7GuZdrhyiOYGitIG5a1H8O1vHvDj7z/mB793xFceO47DktAvyD2gHu8C3jtEUq2BWYw/1ZF6Ie9kGH2lcILi6PrCs5Ml/WC6wOoRvl0H9pwJtyItXuDZC7uWArEVJZVbkZbDtm6l79FhoHHKfBp5cDjhYBZpoiAuVyvD/ueVDCUpWhLQA2sSHUWsbmIq8ORp4r++s+Sdpz1nK09Pi3pvq2+JpMFRBgv23q6we+JmjCXgqsvDaOK2YNH99/P3uB1cjcNzPuIrYVmy63GmJHJZ41nylceJ7359zre+OuULR9BIR3AZ52wLlFJBXMBVE/Im0Lfi5nOwwqpDb2PHhQQukUl0qZCKZRtxHnwYELfv1syGoaclOCHSEVnzpQfw/d+d82c/+hJ/+K0H/M4bhQM5Y3FxASXRNpFpOyF4kzzN5cbmtJW5v5tRKE4Ax6orfPDkkvVgfGGZPAviqiW97Hf9tyItwfzotv4Z4xvm/ZoUhkpaKe/XAKi60VygZKIUZo3naBo5nEHbQPAFEctJNHrevhRqKgPLqghKz1DW4EAl0is8O4df/GrJOx8WOn1ADsdoaCkC6wH6dWG9yvT9nr95A8ZXNySt6lwqsjUh3OPu0PcDqkITJ3hni2pREC9WsFdXRLfi8ZHy8x98ge/89pQ3D5RIj5QVohlR2zmkAqUaTUYfuxEveq5qjtAHk0y3fsZq9YQhnQEDTYwEaXDq8DB6fO0NEQgBonOIZlzuiax5PIXvfc3zp3/wiD/5g0O+9bWCl6d4zgja0Yhn6g+JcojTSbXqD7jYGaneBZyjiGfVKR88uWDd18ASJzXXmLk65Rp58jLcpp/gRROx+mWUWhnZLG35VqRFyThNtEGYt57DSeCghdaDlXY15f1HlrFPhH3WOQGpOSKcIxNZ43l2Af/zLxP/8GHPxbqF+AAJM3A2qEs2sbkkh6bxejea1P2wlXs38N6bAtiZvs3iD+9xV0hpABQf7O7lPFqmO4bVCU7P+MJD5fvfesyPvv0FvvTQ07Ck5EsoPaq5JrHUqteqRugdjHdwXMqv3VHpEHdF8AOTNhCDSTlD1yE5E4rDJ4/03kqH7QUF16Gs0DJADnid44cG6ZUG+NLjwk9+f85f/skb/OzHc77yVseEU9LVBWWlRJ0SmKBFKKxxzRIXzSXhbhDoB8fTkxWLzvZMxhDVmDcKL3vg1yKtbdfas22OIBjy7UlLyARXmDbC4SxwOPFMo7k2WFGKcRBc//WXwtzqUREyHmXCwISTK+UX73X8p/96woeXjnWZoxquuXh5KTTeqlBr9XozI/T+FLNprW7+w3tPbBqzMG1E9HvcFbQq2hmF+ZLR0iN5QemecxgXfOO3Wn7y3cf89hdaDicQpEd0wIlYBXMFxeG8BfrvDoFrOqxxAO28P5SB1dCx6JQhzyl6SGGK6aItRA11kJq9k+DZD3QUOkopVe9qiS8lgaSO+bTjy18UvvftKX/+02N++HstX3lDOQgrtLsirzs0ZbOmhwJhAHc3kpYCKp4hB07PExdXsBpGDbXpqkW1Ztx7Ofb7VMXoF3XNDwPZnKYopFy3h7fYH3sptLFwMHUczSKz1tJ6eNQyGmKKPPOP3xeKylCd/QSlpTBnkT3vPe34j794xi/eu+QyTSluTuotS2lJCU+mDTBtG0JVutoKul0V9sGuyWJDhs4RR53WOOjvcWdwNfpgyJZRFxJOO5wumborvvSw8L2vHfDD37X6mF4KXoTgI85HCp6iriZvHPNjWXGJXR3WzcVnfL8rjucLx3/+h55fvOP44HTCMkWkneJawOd6DvM+3B82Is3Fp07j6jIgmvEu4aXj0UHhp9+Z8sc/eMSPvnPE17/smbgzcveUPFziXCY0kSyQ7mgBNQttIGtksVROznuu1iNpFYomBAhuv+u/FWltUX1Q6kWKONSicEilMORMvoWkFYIyabG4wtbRBhs8QjJrZfXYLXnHQ/VlkIK6gUyqCUIaVup590nHL945551nKxalIcU5xQs6JDR1uLIiSE8bCo0XtGRSsgRmlkx33wZgtHVDMHROCGG0Htaxd487g3ihkBlyj0ox5143cDDJfOMrx/zwW2/xra+0PJiY6V/E432LSINqg0iDc81OMj9btLfPXkxYI9bM+c/PDvm//N/+jv/T//l/5P/6f3+P/9+70DlHT2YlV3TpauvwtRcEZYq4Oc439r0qO0hU4rQFaeizJw2Fhy7xnd9q+eMfvsGf/vQxv/9tzxtvXBKaE7JekZJjGA4oeXrzh14Jihq5KpE+BU7P11wtMhlz7i7F5rl/ccTTR7B3N30SKufbxFazyt1C0CIEoW0cTeuIEatConnjvQyCFkdKNZXLHlCUItUP5//P3n99S3ZcaZ7gb5vZES6uCK2hAgGtqEUmRarKzMoSXdPV0109s/p9/oTpp3mft1mz1kyLWauruktkZVZmsTKTIimSCiRBEtQECUIjIhA64kp3P+eY2Z4HM7/XbyAA+AURDJCML9aJe92vi3OOmW3b8tsYOgyrm8rZC2tcuDJi4h2uv0xwlpBLhSwBKz6/2kP0tE1DM5ls7Qq7EVo3MmSnQZP01/xZ817UbewaqhEfPD6kKKBIxNnI0qDgwVPHeOTUEQ7vcUjbkIJXKbroo6ELgBSYXJYXg84U5t8Y18+PZ1/a4HNfP8tXn97gq9/Z5AtPnuNzX3+Fb//iFc61l2hkAvVU+O1465tAUEo0VqhakA5MA2ZElDFRIpECZAnHAmXoGFjlyD548L4+H/7IQR58eMjefYG2W2d1dYxvh6CD67/oHYFq6sSFFER1bI5bJm1am5B6S+zi4ncntBTJ/p1pcaWmAZTUnz4Am02HV4sYh5NpXu/UhExNHmIIED1OIr1CWKotSz1LvxCKafflLKzQmVomMajxqISUZrFVL5XORdUTos8kaILEVCXfRsOVdXjh7CYvXWi4uCE09JCinl4BuBTZMxQYLKodXpVJF5mELk9Fi+xChZ8GJ1Byx5LUqcRC6hhkIOXtz5ufcxsAGhOliTUGI2lMUsKlxSBYIg6PE4+3kWAtxpSUain9JgcHEx66x/Keh3qcOGwZ1tn9uZU7ahC1iNpU5rNVaJE3URGisURpUcZAh8HiOwhRCNYykYKXLo756tPn+cJT5zm73uO1Ucn3X9rgM0++yqe+cJbv/KTh7IplIgZfNKiZpHzCKBBNpu9Nc1/xqU9nXupb+13Ovkc0pfKY6Z+m1Dkpz5Cuo28Cx/YKT5wa8JFHl3j83prjewJ9xriugyBEKXJKUAMyxkiby6kLjJaYmWz9qatoSw7M+HzTX1LzGBeFIucnBim5eLllZdUQYpVWuYSU0nSjXf4G2FUZj2pytFuRpC5LcqIlZ6dj7OHspXU6qXG2whmDKkSmhP5CCIHoWyyeQSHsGRYcGgp7KtnyYyVf0KxASpPJOkEZ5ZvjiMEiSKKUFU+MDT6kVk0Gg2snYPpcGTmeO9fw3eeu8cpVw1rbI5g+GiVxcVklOEANlh6CI8qIqBUg7Nur3HdCqelhNPlI5kEngqpgY0rKNaJMOsulVfjFC5uMGodXSUmFW404buOtEHyLEKmrOpfHWARHYRyGgKXD0VGYjk0nSDGgJwVVA/3uLI/d0/L7H+3x6D2Rwo4wWlGUJc6m0jRBsGJxxm71qBTRPERCFJd6lssq6AiLYGKf8VjxhaFzlitB+NyTr/HXXzrHd3/R0j94AB1WXJl4zpyd8PIrjtDso1cM2bMkDPtXUwAgCuorJG5XUyAQZZI3t5QRj8ZcJkO2Cx0iBSJFykubrh7JTvBGkeCpJbBcBY7uqdnbs1QEulFHN5rQBYd3PVQmiNnAygSH4uhhtUoVIZI27ZwvkAZENPNO5/yrKRMpSWD2olA5xRaBEAOTkefI/n3ccwxKN8Ian0sAq9lhfkPsStPaiakTMlHwxcyjl26g4BXakATWVuQ/AhpwRqmd0CsNvSJ1p50LCh4h8UsmTWXqGJXc6KIsDEZSwSnVHlbGhjMX13nl7GVW11pitLiipixqClfg5O2U58yLaZ1AxpT8cM7LvY0bwxqLxRK6jhi7JPRtJNqIR2k9jBtY31TEG6RraUerrK68yD13L/HAqaPsW1wEDIUpscYkq2/OzUjVE7WlYIFSDmL8Et3Y0xsY1MHFtY4f/myTr337HGcvTnClY9RMCCL0h4vUi/tY24RvPPU8f/vZZ/jCV87zwrk9rEyWmVDQyJiNdo2mHaM+Igo29qHrEf3u5qrGlJVflI6iSCkOk/EYdMLRo30++IHjfOx3DvPQ/cpi/zzN+itY31KxhGU/Pg5oQktnRkTbpHzHrsum8vUTOWtdW0+nx6qRzrd0nUesY9J0jMYNTZs0U1L4YOdHvQl2dwdm36BsbwO5c7QPSQdRwKvQRiFkDTeptC1OPT0Lw8qyUBkGxY3J/28EBXwQfEih6O23JY0Ptnm1ApaxsZy9FnnxtQ3OXBwxbi2YHs7WWOuwYrfMtjRdd9443TEo89/UbWRpvWMQp3/JPFr5fG9jflhJ/BghpNJfNZ4oHZ22eJSAI1CjDDDeYpoNnF5m3/IaDz2wyMm7l9mzMMTGCicVlqmvdN5xCKATbKygKyBaisJgikCnhpfONfz1557lu882rEx6FFWPSePZHDU0XlFXQTHk8rrjJ881fOHr1/hPf3eRn74Cl0aO9dBi+2PKegMj69B0MAYbBBMt3k/dFfMhss0lYEyBM5bSRhaqjiMHAg8/YPnQ+2qeeEC4c9+YRTdGmkA3dnS+IhiDNw2eEYEGawyyZRnM0LRsTfSpFEgamGrAe0/nAxjHuAmsb0zplx0kJv2UGzkH5hQXCZKUhZk1mASWqsEHpfUhW7aJ6crrtpWrMSCxozSBYWVY7DkWe5ae22arfWtILjS1KZI4RfSob9GYB9MY2mB4bQ1eutBy+lLLtU1DNEOM62OsmzLEppOL+Vq2pOv0u7bv/W4myRQ7Lmv6ZdOMfsmCi9md6TbmQRJaueOMVbABLy1NbAiiYAtsMaCohhRBqeIm+4ZjHn+oz30na44cgEEpFNTYWCCqCJl6aLr23uSQlAiRmBl8fr6KTGLD6UubPP3MVb7wzdd4+VrJKA5QqQjREbrUNyEgUPVozQLn1kqefrblU/9wkb//5nm+/8IqFzdBXIVxEaSBOM504NmyiDMJhW8FST0bt0JaxlDYGicGx4TKrHFkX8tj91d85IkFPvRwnzv2BSoZEdoRXRcIKSxFWt1K4WzmhJv63K7HdJ6nQ4mEkJJ0VRytF9Y2W1bWAFOmpskqc5cR7UpokU2bHeaNJud852HSpQGJAlFky5cYgkJosdrRd7DUL1geFAxrQ2kiRt44GjMLEShsYl7QmezhGDqadsK4bfAqREo2Wvjh8/D8axOubDqCXaLo702dcGaCQBrCVs2T5h1XNSV+pufYkZW2O8wSpF2vNqeft03F3UPUYDMbmXMGbMTT0YYJasAUJVUlDHpQq2epbDh5vOAPP3kXdxyBQU5ctlgkmNSLwPi0Brf3qTc8jBhK42jGMQW4HQTZ5OL6Jt94+hU+/7WXee1Sga+WaaRmNBGMG2LKIcYWBCLeBGJdMDY9zm8W/PjVjv/9b77Hf/7CL3jxnGMtLDMOVZo3VQe9CTgPVilyGdg8EFGs9Ts5vkyiv4mtJ4zWqeKIwwuW9z+4jz/6nWM8/kDB4b3rlPYyvr2G7wIaSoQ+1lRYm3y02Ws28/M6zAiuJN+EqJZAydqm58pKh1CnTtP6Bp9xA+xOaKFIJi8DUglAnGbCK20XiGKIxsC0G70CscNoR2Ujw55lsV8wqFKUR9Qj8+4a01tkhK1+p1NnoHFge4xCyeUN5ZULLc+8eI3zK5GOAWVvTyrlSNyC6S0m5dTE3O16e9dIO4huaV8CZEE2/6nCdBiEHdNeRGacqDPa123MBUEycaIBLDGmgl9jDc6CaEPoPL6BpXrCqRMDHn/wAHcdLxlWEyzNVrArxuRzEZNcG/npNz3Aglb0hgbpQ+cmXO0avvmjc3z+a6f54c83KfYch56AE6LWhFChschzqUN1jaArdHZE7FvKfXs4v1HwhW++xv/0b77DX/6XM7z42pBG9pF48lbArKI6okvMfnMiIjRYM8O6q0AocWaBQbGPnixQxJqBhRP7Ix9+7yK/86Eejz4QOLC0ApNVGAum6yUe/WZC8GHL0tqpcU3n+fYdMwLWOYwt8dFRlAuMJnD56maWJinmmwl93xJzvixBsuTelqDbmmrnlaYNRE1xhW3eKHASqKwyKC0LvYJekU3Cra62c46Apv9MbicGJHI9MSl9oVhgZeJ45VLLc2c2uHityU0papAcku6SlmVMzpcy+buzcJoKpvxVW1/7drStHe/IAir5svKXZO1r9598G5DMCe/BewG1lK6kMBHt1uhGF5DuEkcPRB6+f5kHT+2lbwOlibl0Jk091dT+KjUHnnMeYiEWYJXWtFyaTPjRy+v8/ZPn+NnLMO6WiWohjFPVvkksotoZYpeI48R0UHRQeWIZaGxEq31c2Vzku89M+KvPnebTX7vA91/oWPF9xmLY9A2T0KS61bknjeYmxNenFAjG1BR2QCFDjC8wXqnthOMH4b0P9/nIe4a894GKO/ZFhmaMNJv4ZkSMTa4OketnecZUPqQ5LhJxLjFtdNFgyyHjVrh8bZPNSfJTaw7YzYNdCS1y6He6mpMZlQKf2z6tRFUjOZvLEiitpkLoXsGgctnxnvas9KnzI8UOI8akWRc1Ca1oasbqOL8WeeF8w0sXJkxatsojQki8RiGkop6UspFzc/KD6XnsEFizfq5d+7amAzfzOIfQp9rV7O+3MR+EtFHGIHgvBG8QLahcicUjfhUXr7Dc3+Deuwvuu3fI0YOgviElA2Q1Xck9+6bjOueqyW8YdxOuNR3Pn5vwxW9f4Rs/bLi8vkRRHSC2XQphdomhVESwFNjoMEGwGimsYm2iaI6dx5R70OIwV8YLfPtn6/yXr57mb588y3d+MeHcWs16V9FqKtqeF2lmy/aazae/ZdFl9UsUNCRGwL6J3HWg5n0PLPG7j+/hfadK7tg/YVitYljHmG471SJbITsxlRHT+a8Yk4gUfRTE1Uw64erKmJW1LvFr5freeTD/K7eQtaPcrGKazOqD0vmQO5KkV9oYKSTQKwwLvZLFQUVd2qwl5Qsydlc5AEqXuLG0Q0OLCkRjGXvD+WuBl86PefmS59KGw9oCax2iQugCvm0xxC0NMOYsabOltm19Sb41WyO7/fSuMBVQ6fctzAqxt/Gpv+2YChlVQwxJ6zFa4qTA+oaSDfYvtDx8csDDDw45fEiwAqEJaChSgTEk5g8JqBVShuDrltsND0iKy5WVdV650PLUT8b8x787z2srR+nMEcTVuBgpJhZGY2ivURaGxcGQhWqBigqdaHbkGwgFhJJJYwimT7F4gLa/j289e5V/819+wv/33/+I7/+iYBz2YcslJl2TSmPmgkGoIFpizBqlAZWOIGM6xgQikpOr0Rq8pUY4sVjxwQeW+OQHB7zvEeXuEyMWFzZxZXydX3sL0w14yyJLvPzp3iUGUxVoWmVlbczlq6tMWr9F4z8Pdim0dgzbjmejprZh04WuGlD1WIn0Sku/LulVSWCF0OG7LtX07SapUvLUUo/3DT60GJNab6+NWl4+c5FXz61wbSxouYi1DiMm37hA4aAqLdYKIXoa3xAl5mYar8fOmrKtVON3BMK0jdqc134bW0hlIYoYmzPic9Z3iISuoVcEjh8e8MH3HeT48R513aLq6fcWiJ1F2/Q5xpG0nFzqNS9C9ISuZbi0jx/8+Byf+9KLnL9ykGDvZBIrmnbCsKpYNPvo9xexiw6NEyabY7pxwISK2ixQ6gAbB1gdInYPeEvnfXLS9wTfG3JhVPPUjzb51//uaf7m08/y3AtXKMr5HfFJq6wxUgIpuXvcrjGOq3g2EDMGO6aNLQGwrgdhiN+wMOpYsCNO3Rn40AcGvO/9y9xxZw+lIcYws6mzY3PfRpIXKcC1TcEeNPnAJ5OO1ZUNfBeY9h+ZB7vKiE+IyfmZDTUvwnoD65OWcYh0IeXI13iWbctiLSwPSoa1pBb2kpkbcqv7rXUrbD/ISSU6/TlNXlXFiMfHDp9zPqKtubyhvHRhxLOvbnBhvWDkB0TTxyiIsVufIWK2GEOjJlvPGJsD2JIyczWbDiYJVQmeA0uOB++uKCU1h51XekVJaqhVAXWJLdXAZtvx3PMrrK1XdD5xll+Xhvobg62hneN4/TM3PgoKrBGiaejMhCghqfsTqOKEh+4c8JHHl3nopGHvUKhEcCoUYlJ6Q3YJZDdmakhBgWvTBuiNwaNASHWo3mN9wBpLFwKtCpux5CtPX+TvvnyJ7/48cq3bQ1d6or1GlHWsGgrdh7pIsCllIcZUiqNGQYSIA0rQEoMD7VKXJpNSE8QUBHVsTpQLVzZZaxxjlqFeYLi0iTiFWKT8rU5SFr0ISCQKdDln3WZfbdqDUwDIisGIS9+by/KSbZG0UgMYKxhnKF1Br1czqAsWa2Vfv2NjU1kfK7ZIgbioFhWHMRWiBomC1RRDCKEg4ImM0DihMAOCjxgb2bu/4OCBAYt9R2nnS76ef3vJUM0spSJ0IgQDG5MRbfRYZwm+Be+p6VguO5Z7sFgbesX0y1KR15YzMXVpTTcTIEfpYs7xiqT0iZT3peniY0idRlzFSms4fbnlxbMTzl8VJl1qoqkKYqstapGp/R28phQMNRhTpOhnbrlmi4CakHdei1dP03m6Lt8m0Vy6NBVcb3F0CiHRmMQIITgKAwv9jsW6pVRBfIFosbVsf9MwtRLe6phzH0gQEBuxZYOaFZA1CCPCZMTBhQGP33+U9z28h/3D1+hpRxUtJSm1wTjAKlP9ykrKrrdBEiN3m+iVPIaIItFjfYN0LbRps1xpleeuef7icy/wzR+2XFpbRosCOA/uPFqsMgoTOrEEtWgXUBrUjQlugjddWjtaEmORpr9vKCVQiSZaq9ZipcaWi4RyiWubFd94LvCfvtHy778M33vlChdGLQ25M9ok9z0NgKbWLflyID0FKNYYKtejNAs4HSKxh8TUuMVKwMQxYjtMLUhZgKkRahZswd17Sj56b8k/+0DJoyeVPUsjCrsGcQIKQomIQ6hSVyINWDxeK7qoaNygMGugHV76bOg+XlkpuNZYOhRj09qa0vq80bFLobXNEa8KOk0GU1KuUwg4Ufqlo1cVFM7l7Nmdn7INTTNQZavPaowB7zs63xLjdjPW5DBXmkmDGEddLYApOHtpk1fOr3JppSFohaXEqcHOqWpOIZrMwa1TzZcm+ddpjHM3a4tpZPB116+pA5HIzKr9LYcwc4ff/BiHVTbDKmIrKlmijJZSV1non+VDH+xz190GV3ZUxT6MmbMluFHoJX+PUSgRCipsqEEqKApWNtfxznJxreGzX3+GZ1+9yMpok6AdhADRAT2sqcEILRt4bVMiF7lp6uxkkJijeoHE3pc4vzrf0Y3HtG2HQehVPaj7jNc2+NkzP+ezf/8N/v2fv8wzLzgaC20NG3KZoBvpFgVLbJXoR2gY5++a5lbtnIxTQQBTQ2f6mp0qj5Ai/s4lEsuPfOAwH33/AqW+hLRnKdmkMor6ZCip8wQ7pjVrqESMOJyt07rFZLeNYWVlk0nj8TGZkfNgl0KL7YvOizzR0EQ0BEQ9VSEs9AqGvYq6rjLh3czblSzxdPvG5Cik5ueVmApXTR5UPEpHCC1ERdXS4Lg6hhfPjXjlQsuVDYvXwZa67HYhtKanJ0oqwM7PTH1OUZP7PzUemx8pH2v6WflSs/izzk0l5fVvu423gHcdrW1pOqgZ0ouRg4MxH37M8vgjHcePN/QGSmQ4N3GkSgC3ga06SgsuQLsaEZ8WcOc9sbfA6asTnvzxa3z2m6/y0uWGsYKxmnJpfIHTIU6G4ISu2CCYDtUiHYnWMpulubGr8ah0qHT46AkoYk0igNcU7Y6qWFeCLQg+cPnaiO89U/Jv//oF/t3fneUXlxraQY+2jnSsJ9YJbahVqXN00My6YqbXPKvBxJxYzVaUAw2RmC0FJZmszjl6VcmRvWM+/Kjhv/2z+3j0ZMGCu4pOLlJISwibeCYE19HZNvHxS5E0MKmIIX0WxrK61jAaRSZNTGU+c+BtCK0pMid8lwn/NOW/DErHQs8yrC11WaSUf9kWclE102RJ+noRkNTkdepzslZSUJEktBRP0I4YA8ZWdKHkypry4msdr17yXN4oGfsFgg7QWGCi4HJH57mwZaLMZmNpqq8SIWik9Vk473jjm2O6ae3UNNMnpFIISbvLbcG1pUXNdThLtBbfBowP7Kvh/mM1H3l8L3ccblmqJjiJNNFcVz/6xlCUltTGy2pmH+66VCJGZCPCqu/xvZ+v8JWnL/CTVwOrvgdVjatScwm8w/oeRmswENwm0fhUprJ1JP9q0isSLdFUaCW/T+Kid0WBIMQQCT5gjKWoa8r+AFP0eeWK4+s/XONTXzzNX33hZX7yaseVztCWincbWOspxeDUbfnupgpUuotJEOk0iqoxdWLIQi7GRDoQYkxWVF5PhbPUVcn+QcvJQ54PPLTIH3z4OI/d12f/wibanoO4RtQmuXOkSEscQ4yJmSWo5nNxTMawuQmTJilA86yEtyG0dGslRk3dTkIIGFFqZ1jsFSyW0C+hKiyFzRwKmi4+xqxrbIn9RHcxFVrGJNaH1GcwJmZDTaU2IgbskLWx4dXzG/zsxatcWrdMdIlol5P/IBpMBDNnHRPTsVS2hEeWsbkpRuqP13YpOjqvCsuMdpVVOMiTBZSidDk/LGmWt8HrhdMbHGJqoCZ6j4vrnNhf8J779vPYyX0sF5Ei68Vtl6OMWeN9s0OBJho6r6hXJELlOtS0jAmsBsuzr7V89enLPPWjDTbHy8RqH7Y3xFUWIxGrDhMqJJbpTG2KTqMpuXTbPMwzTDSbhrnTFDG9XpLvyYigUXOXGqGsavrDBerBIpvRcvaa4Vs/GfHvP/Uyn/7aJX56umXFGzoJyXcnJiW1vu4OJuUhkvnzJakHCrnXQ1rb0700aWIpv9EZoS4LFp1hn/UcHgY+9t4+n/jAER6+t2BYXqKQFSQ2qLdIHKZor0Y0GLppZysDMQptV7C+oYwnMrdWvEuhNb3s6YUq46ZFY6CwwqAuWOoXDIrM8Z4PmFqE6b1bZtNMusPrtZH02mkahbU1ZTFkFBwvnx/x0+cv8dJr6zShhykGiE3Oe2NSr7u5kz4yprIlB3YQ2PI7xRhpuo4wLfeZE+k6Z5/RLTbWokht1VXn3F5uYwvaFdA6CsYs9dd4+L4Bj9+/wIK11PTQ4PCt4opt8/ytkIp2l2gnQtdMwIwwC4HWNaypcH5c89ef/znfeHqNc5eH4PZh6r2YsodYg7WCNakprAaTamNjGuukXWWzkJxntuP3lJWPS7TlbdfStC0ac3G4saBC1ymjScdG02IXhuAGjJsBL1/u8x/+9nn+w9++wLd+vEnDfhoGdDHS+QlhNqgFeI1pA5ZsN+ZIaiJ4MgRN2iB5Dk9NSFHFiuIMiFYY7dEDnPc8ckr4k987we/9zmEWy2tUYURPS8puSPAjYmjQmBKCi8KgKJO2o2sLrq50jBuwpZvu7W+KXQqtLH2yhz8ExXcdIkJVFAzqgoXaURtw07ApSWMi73jW2pyGkEixY8o8SOtZIyH63Crc42MATeRghoKowiuX4MULLedXIuO2Aukl11CWUZI3tbCLK5sKLOJs4sG2EyBpWh1xl4KQ6WfNaFxK2mFdsa1pbbv5f8sxG058s6PtKP2IvcMJjz+yyKl7SvYsgoSI+Bq6GgmOMmsr12tVNzxItC+FrbFWwbRgoS328NKK4zPfeJWvffc8564URJbAC7FL9bZdVKIVpBBUIiEGCAKtSz+n5/2GyLPOmrRgctKSiCSHtQohpM7tXdTUwb2zUFbQL+kEzm8UfO37m/z535znzz9zjZcuWza0prWR4CMxJL9VjDH7r9L5GElOcclzfUrYiTEYm9gcjDE5RDlDgR5LCBUEoTAtTjc5uDTmd993mH/6Bw/x2N1L7HUTFqXBsIEyQSRinaGohEjHpGloOseVyw0bG3F73b0FdrG0txFjasaa6CYizjmq0lEXiWqmNCnzaapZiCbVcnaSTJlM43TLyUjCMKQbHSUlxUVD28DqNXjhXMPZa8pGW6PSR6JLAZicthANBAvhDRJGb4jpnMrBgXTbNAmV7Ihvuy6bh/MjncH0YOZ3pXAuaYRb3oXfdszeqzc/ahmzvz/h1ImSxx5Z5vBhcEWHtZEQFMFR2go31xJIEJKWXVhwBUQJbATLmfWC7z7b8NknX+PFCzCOiYuN0EHr8W2g80o0gpeOjoagHaIOfA+Cy70Fkqmaprtmvxb5Z9LEktaTT8hIjrynyHoMaUc2rsS4EppUSiNVAWVNG/u8crnkWz9p+NQXzvDpr5znp69MWO1qfEiMoUGTUz/E9HN65bOJzulZyXli6UjzNGcIxKyv5eFQBEOgkBHDcswd+4WPPLLMx95zmPfc0+NAdZVBPcG6FsQnX7UNKbAWIzFWXLvWsLrW0s1pdLwNoSV4H1JGe0jxtKJMQqu0JrcFSIKKbAtPHdwyvfj8SbNTMWkjkpzT2Z424hAMXQurK8qZ0yu8dG7M1XFJtItY1yd2AUmMHYiQulwLhPlJuhLyiWy9S7fNWI2pOULK6J3ntk6x4wrTMylEg3UWyRN4vqG6jSkW6hF3Hfa895H93HO3ZbDQEc06pmwJOsHaVPmwmxkgOTHBWRCneGO5Oq74zjMjvvjUVb7zzIRG9yBlgXMd0CDBoz7l4EWBwAQfR0TtErlgXEC0nPFbzWrUU/fIzJEFB0YSSaVNnPeaGi9irKMoK4qihDDChA4rDsohmCHeLXN5UvHUMxf5d5/6Pn//9Qu8dNbQBY/PgipqzAGl7X6QU0G1JbSmlsH0TI2k0IFqanSrifi5BYIoSupcVZtAGdY4tgc+8qjjE+/fw8kja+zdp5R1RHO6qw8TIj4JRNtjda3j2uqY8WT7bN4Mb0NoacqlyqReYiylSzlZKV80q5FkoZUPZoTWjk/b4SRSjBisMVhb4GyFCIxHcOHcNZ599mUurjRMtEaKIajDtx3EmHZIga5raWNHTJ78ubGlaV3ntNJsvIXsn3hHIMlfls7vHfrM3wjMCvk3PhYHE+69q+DDH+jTK8GaDldEvKwh5RhxHSiptm/O2yu5zTw6SnWtUrHZFnz6i7/gS18/i1R3g1tATYe1IxZKpbYmCY3M2Y4fQxihsaMwJZUMsVK+7vy3oJILAfNBNiWzLrZlwhmDtRYUmqajGY9YHHhqGwkTC6M+9A5gFgaEXmRDx7x6seFvPvMSf/2pnyWG15hywOLsmpw5lWRfbCsVr7ttqpADYgAtLY20RBtyuVxBKQWD0mH9JuI3OHZwxH/1j+/lrjuXqHpC1IbONzTNJqqesiooi5q2Cayvj1jf6K5ffjfE7st4cqqCs5baWQaVY1g5aicUWcMVzbtIThnYUjWz0JrKEsnakZlyS2mKdvg2EDUizjFG+MX5yI9eafjFxR4jW4FJDktFk9i1kni8NM0+g8PolHPprQ/Jk3aHIBGHswUSW4ZVy+Flw6Hlkp7L9YwiWykRb3QEdahEhA71iTMIY2ginD4/4aWzDWsTgaKeOzT/64bXc3/nWbnDTxWx2lHQURUVPjja4PBa4MqK4MdYNljsjRiWq3zysQGfeHQfh5cKSoUCwZFqEIXU2AHSnJIuZ91JBGlnTLNkdvks2NLQB4K0rHjl2Yst//bvnucLT65x4dIixh5A/RrRXAFpiLpIkOz/SReUhJc4RByIECXlYCHJX/OWh5JUtmyyJR0mRRNT6c+2pq7G4LG5N09KTpWYklxjLPA6YMPXnF2d8N0XXmRVa6rhAnuWSvpGqdXgOpKmqJEmTgixxQBOtnMrUwegDaIZodIhxmHoZ39bKgeadkNKhehJiDtjqEvHcFhQLCnLVUe/G9Nd3SCEEu8GtK5gpV2hdpsc27PAib1L7N+X1s6WGTvjVkLeRka8aoowWGupssBa7pf0i9RJx+XuM3Fqo99AYO34MDQ7SrNsV9CO1JwVxyQqZ1cir1xtOL1RcsnvQaUA1VTHZWIiWTNKSMObHItpHewKKiBSJE5rQupoIjkSGRXfXpfsMuOTuMH0m/m7yQ0pO1DBSoEzDpHMqWRiJvb6TcXsuM8IKnQmnpUO0ZBC/NEQtUSpCEGwEijNiL5b4YG7Kp44tZd7DvcpA5RRcdHmVIMaocxaS0RM6lycasJS+62clbSzODdXc8Q4ppWS01cjX376NT73tRc4dyWAVKjvEJPEnVdDhyOQNk+BVL9oylR7J5agHUEmqPid8vnNjgAmCiaH/lPuVEwCy6RNWvIcb6PDKyABsR0SJ9C2xM6gMqQzC2xojxeuRv7qG5f5iy+9whe+fY5fvNLhY2IuRUBiRwwTYmwRPDafb7YC8zyOqc2XAxVLjOl6CzGYrGik5NkCVYcRR1kU9CpHvxAevsPxsUcHfPKRRR4/VnKwUio6gjS0xYRQV1zZEF4526VIp2w3fg5xZ26katyd0HqnsNMkzBJDFWJH6zcxhUVczdVV5dlfXObi5RavDnFT+//1AuL1+uz82I4FTBfYthM/9ZV7M7z5X28IEYzZ9rlcfzt+GxGN0IphvWnxIaYaOQtxsknPeBZKz2LZ8JH33MWxw9Omomm1C+mepqdm50Vam5o5yskMmXhFvccIuEIR62njmNUwYa2reOa5CX//+Zd57RyIsxSDBrWX6fULSrsXo0vT037Xw9mKYe8gT3/3NT71Nz/j0184zUsXYMWDLwXtdwQzwjoonMGZ5HCPPvEXilqEHpYhlgFCScgld/NBWSRw6tAiH3n8EL//wbu5/4RjT71GxQoLA4cpe7y26vn5mRXIsYhkeb1eVujb82n9crj+JCCpxNFHuthiKiUWhtWx8vKZMS+8MuHiVWXiHRTZ5Jw6LrdMqplJ+naQTykJrxzZzPuyatrf0sZ84+94I+e8CNPYzM7nkVzetM1F/9uOgNCIpRODrUqsKGEyYqmM2PYqBwaej7//JA/cAYv97fcJU99lms47NXoBCQQ6fIgQHerBYiisAZQYJ/gwptOOcTXkyR+d4++/epYf/xzaeIhgHNFtYMpVQpzgWKI0e2e+492NEITxZoGxd/LimT7/6bOn+X/+L0/z1PObnGuVTcCVqbRmMpowGW0kzdYmQw8PGkqgj9ADcUkbmnfeqtJuXMFMrrB3AB94WPjT3z3Exx5f5q79HUwuMG5GTKgJ5Z6tt4lIpox6vZ95V0JralvOc9wI1wusbSe9JBI2AXWGa5sNL5/f4IXTE9bHi2xOeoxbyRzN1zkub3QJb0OGabq/27747Kechqan2ld6XXZm7nj/jUXX9QKLfB9TnlZaOFtS87cYUQzBlVSDISKK0YaemcDkEkeXhSfu3c/7H9zPnhoKYZtjf8vUTPc1CSqTK0gNQVqwqdbTt0roUr5SGhZPpwFvDCMt+cmZlk9/7QW+9ePLjON+gt2T2n1ZARNomgkxWsycTUXfDRAKrNkDZi9j3cPp1YIvfv88/+tffZvPPPkyZ1YL1kOfKMPU1DWm3oZk/cAIyLTj9bSHqU3kBfNAROhVQyRGaNewNZw6Dh95ZIFPPLaHR0/U7ClbJhtXuHjxAqurm7Q+QHZDCcm/pTMZCDdY8TcHNxJYO2AMagrGajlzecTzZ9Y5exk6lum0og058W5LUM2Yir+kE3tLYM2IkO0jC6ucVbzjrHcGYKZPbWHHWc08EIGiKFKZxuxrfpthHNg6CfLY4HSDvtlgqdjgkbuXee+DR7jjINSMEG2u841NBRZ5m9ieI4EINqULaMi+mhDR2NGGDi+OsVacvaZ8/hvneeqnK5y+pvhigZbULEVMjxAL8InAMka/49Tf3XAYGeKlpHMlG6bk9KryhW+f51NfOs0Xv3WVF1+zrE4qghkiRUkwEaVJjmEDhpyYGlJJnTiPzO00FlyxhLoeHg9mg+Gw49Qx4cMPLvEHjx/m0eM1i7LC+qWXuHz5EpPJODncjUFMqkiJ2QlpflVC63oBdf3jqSAPpuTymvLia5u8dG7CalMnto/EUZbfNyusrq/nevvYFlLTgtZZrXQrp3/nm7hedd1eRNcjLaRtzbIsyrRAp9LytxzGFFhbMtrYwIQRJWv05CoP3DXgg48f48F7DIVGrB8hOiWOCjlQuz0u6ffZTW06bgaDwxlL1MCknTDyHu9qro5LfvDsBn/5ty9wbrWP9PcyNh2dH6GmQmQRuh7ievg4punWZs783Q1V6LyljR2NmRDKAPUC6+EwX/32Jv+//+MnfP3pTZ5/DTZ8jav3EUxBR0dknPou2oBql9iC4xiRHECaC0KLI5YLyHABSgXZZFBscu8B4U8/sMwfPX6IRw4pPX+OK5cvMdocZR9kCjpsW2RvU9O63gx8s2P2y6aYfTz9exth5GFlDD99bo2XzwXW2z5UC4x9ElplAZLJ+7YKULeE1fXCZPfQmTjWtFnH1nOahdkWA+RO8/B117j17/WYvrQocrazptf/1iMAjWLaBtOu0DcrnDgU+JPfv49770gmoUaPK3uJ9z9nlsxuFElgzQgwSI53tndrsZJolp1g60U2Anz3ZyP+8+df4uXTBWvjPuMoxDjCLRZ0XUe3GUCHVPWAKA0hbmyf97sciuJDR9AJ6BhMxC4uQ7kfb49z9soC/59//TX+46ef46mfjLmwXtBQE0wfb6ALI8bjVUJosdZQuCJv6/NBUZoWugiBgkCBFwjdBNOusyzw+N1D/ukn7uWffPJBIEcMpwvluk2Jra3oV4TrBdYU4065vA6vnldePuu5ut6nY4nooM2KiJEk3FPu1TuL7Wn/+sdTx/wNobolhGaF2Jsjvcq6nE4x57t+06FdQMaepaqgbycc3S988Ikj3HUMhgMQk0PfuR1cMg/zm7cE2E6BlWBSzV6buZpMRJyghWNT4UfPw5e/e55v/2Qd3CH8xBLGHpyhqBx0DbQtuUNpzpf6NRozAVNqIikMDrSHUKNS0OHY8AVX2wGf/9ar/PXfP8uXv3mVX7wKq21K62hDoO08qMVKiaGC3BF6HgjQl6RgaW5Lo1JgXIUTg/iG5V7g1F0LPPbwEZaXlqjKMjGskJaHSHLKT/ErE1pvJLAAxl3LxZUNXjy9wpXVkolfoqNHp1mpAjRocgjeTKRVsfPhDK4Xbq/DHJbe9O/bXXrf6kN/O2Ci4LxQETm0p+KBk/t47OFD9KoWYQQ0qXdlnNJn59GYBg9nMPs4IrkbucFaA9oRJdBp5OzlDb76nef45g8ucO5qD1ctAXXibbc1bdNC7MB6sJ4uNFkKuJlveJdDFLUht8HuQzfATywxBAINnYtob4kXL3i+9vRFPvelF/nm06/x8tkR62NFTYGxJdZUCAadRhOnvRTmQKktVWyxsUsdlKjA9MBUaEw0y8NFy6HDQw4c2E+v38eYbbPQmFTUrVl23DShNbsOdwip600phVHbceHqOi+fuYaPS6ip6SKMWyhKgJbQNZjUUXPncUO86R9viK1XK1vTPn1KTpidS2Be7+OaYua9+e/GbAutG73jNwHXX900EXd2dKbPFaagZxyja1e47+6jvPexOzmwxxD8Nbp2PTm/jaXpIMTp5+7sw8mM8jVFiIq1Bb2ew5SZ9qVrWB2N+eHPXuBLT/6I517dwA2O44OnXFiiWjwAWhEuXAEHZsEBY0I3znzMc1I432IoEKMntptgB6CLMK5hPYIfQTEmFhOubazT23sHa5MlvvbUGb7wlZ/xne+9xGsXN7DFAoOFvdjCQthudpyCX3PMXI2pQ7XfwEmkkESG2HpLF1I+JoVNG0MR2L9/P/1ejYghhJC6f08zEjKJ6O7LeOZEJBUut77BmYiRiETPaGMDTIlaxyQazq94vvmc8OMzNWvtgFYc0ZiU+GeSdiVqEmH+tMxm9rgh3vSPr0fm6DbRojFirFLUJrVUUqFnDcPSc+JIybA0OJ1mXyWn4OtOKa8jiT535C7TRJeQqJyDZXND+Omzl7h4TYmyvItozK8PLJGaBmsqYizxWiB1Radj1LSpz56vqU0f10QG/gU+9sFFPvregnuOTRi4VSq1lGYJY/qpbMRFjG0zaZ5ixOG90jaJccFN6b01RQgbH3LPAANjRcuas6Me//CzCf+v//h9zqzupZNDhFiiMoHYEkOHxIC6AoxNLglNoy1ic8b6LubXTcD0298wDJWfFAxIkdiDTdIYcTGVG1EhsQf00ZxEGnWR05fGPHfmGhfWAtpfprenIGY2qcp1WNuBX0e1wToQiQQiQWLuqRiJ0hGlAxMwRQ2uAuOQ7GV0olibOtGnczWpCmUrWSVVy1hjU9VMvih5O474+REBn/vSleANvvW4UgjSstkqV9bghdMTzlxSVkYFLTVepmUDOV0/JqkuMk2Vvf573gkogkfQrWRFMYltUTCoWro2udZfJ6DeBEJAVHNNWv5cFKNp4KykgqfkH3irT/v1hDFC2zT4EEAMk7YjSirzijGRIXYNVHbMXccK7j+5wJFDjmEvYMVjpUiNJaafJyFPA9lasqmg2G0xZyTuJ4+YSGkLJCraNURa1lv4zk9X+OvP/YIXXqtYGdU0viPENYSQ+nXGAJlVwWAg+1Kny+ndMlZznYWQamRzKY4xIRNl2tQFSktECmKEjsDYRNZ9wQuveb763Yv89Wd/wT988xovnAmsTpQJgZAd+oLi24bxeETwPn+PSTmXJAZUxaKmyCb1dNRSh3cjzPgHp/c3rREhpzdsCaztC7ppQkvwWDoKW6BB6DqHV4PrW4LzrEw2efX8mBdfbljfmI/Q/uZimu+VMu2nRP/T52Ock+xnBgJTD/Hr3mqE7Z1mh8H0mwQhiqPxHT42ROnoui7RtcSS6BVnGkK4yJ49Ex555CDHjg4Y9h3W5M1OZqyA7MxNUzqxhCahZSlKR1G6NFzTSlQjVC4xxHba0RbCL86O+Mq3X+DJb5+l6w7SNo7QjVBW8w752wvPGG/X6S3VSLHAa+eVJ795jr/7zHN849vnef7MhJXWsYklpl5sBA++Tdw8lqSFCqnrNyG1H3unXefv7KfNILdyxQLNBIIKZX/AWDs6a7gyavnpC5d45TyMJjftNOaDZOEy49SdLVNQTbVru9aIZqOOSvZnpeiTsbkZpsmawW8gogoTbzCVI1pPF8fUdQWxREKJjUI7vsBwcI2T9wrveU+fE8dh0HN58lfbWlZMvqyoHjCJ0UEtoiaR5E2z3CUVF4vNb9KItUBV0vVK/vbrP+Spn16l5U6azWUINa4QerXfMVy/WZgm87z5oaYhVhN6ywN6i4cp+3ezOTnKl79xiX//n3/I577+Iuc3HGOzyDhYQoCqP2RhaZmqrDCZrpwAJhqsmqxIvbM3dtfSYitH6S0OcIiW+C5gctfyUQx0MuT0Rc9LZ1uujSsm0iekGXbrMCuMknqUNav0XIzQ+USXc0M/+xtiqrnNPpecx9aCswZjkmbwm4ioStMpRa+irC3WBeraUhrB+Ii0m5R6lUcf6PH4IwscOgi9Ehweg8VIDVkoTYt0VQwxpoigiCVEpe1a2q7NrAipTYhXpQmetl2jVeX8mvLnn/k5//D0JU5fLTG9Q1D2ISgxxExn89sNW9S4csDV9QmbnbDpHattSef289q1gi996zT/07/9Bl/94RpXRhVaLeDV0vpA5ztC9EgmAJ1S6pm8T2/nLr7JvznX1q6F1tyIBRpqgnqkbAlFy3rnOXcZnn81cvqCZRR6aF2mPm+3GKLZns6yK0bdSqFTBd+F3StEsi0MdUtypVG0FlxhMEaT0JpzwH6doCSesxAV4wxVZVHfYNRj4yY9u8ndx0oef3CRkycK+i5iaZIvEAsUaKYpSeSdycco2WRPd1cw1mCcQQ3EzADVRWi84i1cWJ/wnZ9f4T99/iVeuthntR2y0SSntCkNhoKumT/36NcOr+PAufFhpER1gB9FJptjJr5DK0drSy6N4PmzHU/9aIO/+vSLPPmD87x0ccS1VmilpBWhDS2dHyPisTZgM91cllpvfcyJmyYtprzWaiCahtY0rI47nn1xxEuvGi5dq5nEHtKTXE5+K7E9WZMjV4iZ4haSdul9mHsn2MbMItD0n6KJ9M6Bc6m/o6YY8sz7fjMgIhjnmDQNMUbKwuHbTfAr1HaNQ8ue9z1ykAfvGnBgISJxA/WTrKknf5Vm40UzEd40gif5jhkDReEoEu1o7tWXCBiDFoxxPHN6hc9/61We/NGINX+YVhbRZhN0lV5tcaZH25S/iUNwA8nwxoeGAu0G4AvoOpAGKQPeRRocq+2As5f7fP6rF/ibL7/AV35whhcvdaxrFlxAG1owHus8xvm8Wc+72883ALsSWtebgG92RE2VGaZweGDTRy6udPzwZ1e4cNkxboZMvCHYxOx467Ht01JS8460eJJ56L3fdszPjW1Nbfowu862NS2bNK35huvXCyIp879pGtpxi3aB2ga0Pc++hQ2eeGiJjz5xkKNLQuFH+FFHGAdoTSpGlSmhR0BNQDLLRyKOBA2eqKmZaiQSNNJ0HlVL4QqquscrV+GL3z3D5771ChtyjE1dxJZ97MBBu4IhYm0PZLjLsf11wusF1I2O2Ak6KTDlkP6B/diepR1dRovIwr4D4Ja5eD7S6gn+4enL/LvPPsM/fP8SL1+BEYKUQ0xVEyQmEkRtiDrJfQ9fLyNed1x/2m+AXQmt3SCaVDXQAZvRcfq1hmefv0ZkkYk3tBFsYQkhNYa8lRDSCpudsrMCShXC29K0boTkMDYGrE1UH7u3O389oKRcqV6ZuiZ145Z+qRzapzx034D3P76fQ0vQ15bKG3oypNABjhqZJqFKh7gO4wKCJjNRFTQQYpdYF7QjEmg6D5nquA1w6UrH337pJf7he1d5ddWi1qGxI/gGEyI9V7Oxss7maIypip2Bk99ClE7oFRDbMaPVVcKkhaIGtTQdYHsUS/tpgmGlPcxPTg/5i88+z//2Fz/iK9++ymtXQaVHoGDUtIzGk9fVDb4p5lxfN09oSUdnJrQoFy61nD495vyFjkCFqwpMkZyrRhI97S2FpETR/CtA4lya3kTNjS30jTLe3wS5yDo/2DrEpBwmkUx0Nu+I/VpBk9Cqe9RFL5VhdWPuuXOZhx/cx90nSgZFS0nAUmBNRZWbmUDeM4xHTMDkTjYhpMYqSMo3EhOR3E9Sc25VVLh6peUHP/gZTz59mRfOWWKxDAs1FB34MWHcUYQKDSZp+kXiYv9thuAxTCA0EAOCw0gPYkXwlhBzP8TS0tnDXBkd5icvBr70jVf5wld/zre//xKnL4zpOocxNdaUWcTsQnDNgV0KrdSnMCuTmfs8pQKopq66MQYUT6Bh7BuurnlefHmTM69FNidD2ljh6hJbCN53OCO3PHKTxUgyR6ZP5MdIilhBgc+cWvMjCaRpz7sUSUwOf2NSuypn5NdvrUyb2sq0MzGpqDwlnaUJrx2iKaG0LB29qqBfQM9NeOjevdx/9yJLlcfQpvsiZXJjFa+flVPWMSXxOk27I1tX4GyZUz4j1qV0h7Ux/OKVK3z6iz/i2Zc6Nrtl3GA/dlilbPDYEttA8Jay6GEKl0t5f7sRYkvwm1gJ1GVF6SqIDrRA1eK9p+vGFLWgbgDspY37eeW88LVvn+MzX3yOJ79zhnNXlECfouqhEhBJNEJKTESfIrmbdWZTEXIwYL7VtasynqAw7gRTKCoTujCibTus9NAIXSdM2hVsuU4nFZdWF/n+j6/w7MvKxfW9NLKfVhyTkCa6c4roZsqx2SGRZ3++s1L6RlARUlnjhBgk+U1cgSk6RCwWR68oOXF3wVJPqOdVeY3i8YRcKGq0wJISJzsiL7+2zrlLwtr6QoqgzvmxtxSq6KTDOYstHa2JjFVQVyO2QEJAJyuUcRVnlUl1AINScoUji9f4xHv6fOD+kmNLnlo6RGto66Tiltn/vrWHac7XSomkRg3WCMEKXorUTCJaJAiWMWInrMTIT08rn/nmOv/zn7/KqjmEmgHaGRhH6HLn5sISpgxHgMxq1r+lUCR1GLIucdxp0mhTiZlPzbWs4GNAm8vAmLJeIuh+rlzt8/KFgjOXBLUV9RAGSw2FuYqTgKpPm40pCOLo1NBpivgiHpEuVcFIsVVr+EbHrjQtyQ5kNEVxSldSV2UO24NKwJU9xCywvuE4e7Hlympg7HMGrcuEf1mZMSiiurWT3lII0zhVejgjL5PiZZPvbRenOk2ZuF72Ji2FTBm8bZr+OkBEqOo+iKHtWjQGSmdwIkgEVYMteoirEWOpFCZr5xmWIx64dw+PPnSM/XsGlMahQZLfxGiKIM/ep61bkisVcjpCGqaQawRJ9MlEopQ01Jy/HPnaU7/gi0/+hM4uEqVInaE0dVUSJZdqJS1xazh3Ma6/qUjTO9+bHbdk5uZknjykBTPC2IbBQk29Zw+tVPz0ufP85d99i//06R/w1I9WWOMoYyq8cXiJrK1fpW02EO0ojWJVMVpkdo1q50J5A+xOaAlYk2hijFocBYW1YBowDaaI2LLPuBly/orhlXMTro2EDosWgrrkoE/zz2cpft2KvgVIpzAN7c2eS/KTkJ2/+jY249kdYufz06+apkPu9pNvFQRTlgSEEANOoOcMNgZi69Eg2KIP5ZCIw03WWHQb3HXE8dCpZY4dFnqVTTsqFVElFfHOzYQJjojTDnSESoNHGfmSy6s9vvODy3zze2d5/vQaMlhC7C3Pp/nNhE2Cy/t1VMZUfUPRr9gIwk9fvMZXvnOBz3ztEl98asTZNceKN2x2mvj6TYvVEcZv4mJAOoHOon4+N9GuhBbERHUbIkm3TrkxyBgpGqQQOuD8FeHls5FXL3iujS2tFJlsVInGg0ySpJZEYP9uwJbcmnluKqSS/11R3VXvpIypUE5h+vRryopPR9xFHsu7Az4TjYoIVWGpDBjfEpqGGCK4kmh7hAjF+Dz3Hyt54oFF7r/bMSwVi6YSHFPiygpsB6a9/mveEE6EwgQME0wZaDFcWheeeanj0196iZ++MKGRvWi1MK3nuY13GM4aDIpvNtkYX6ONY6QuqPccoCsP8tyFgs88eYX/+c9/zrd/vsFLFwPXJpZ+fy91UWB0QmzXsLFDfCS2uTXlHNid0NIIYZLcDlN+9ji1eZUJysVV+NmLE14447k2qmniEE9FEAhMUEaIbTEmJAGx23q+m4QksHZqWim0noVWjKmI+m1oREnTMltaG7mUR0zuKPNrJLQUaEPOTTcGiUpsWug8FqVwFlWl7VID0SP9CZ98/wne9/ACy/0xbXshEetliLNgkqN2fqRIn3UmpdQEx89fHfG//+W3efqnm0z0CMN9J8HUxGlw4DbeURh6ODNEbA8CjMcjNiYjGrGYhYM0xSHOrA/45jOb/L//t2/wxW9e5NpkkREFHQVFUVD1CqDBFkqZyWjnwa5GVHJ+kcs949RHfICIo6Hg2gieO9PywrmGK5sWtX3E9VEpCDESQotIwBrdaqocd6QE3BpsW4bZu5T4xrbMw5jJx95O7aGQBNYO61CSHy9xbU3Nw18faEykIxoj49GYZjLBGuhXjsIEtF3DxnUOLAoffewI950w7O0rVtewOsFITPtf9zYUV4AQUa80wbHp+/z0pQ3+4alX+Nr3zrPaLtPqUuqTucNpdRvvKGIPwhKiw+SPUgtRicHThUiLo3NDumoPvzhd86m/P83/8Zc/5Zs/GHFxraZhEUwNhSHEEZ4xxs63ce1KaCGCcTb1gZPkAEUcgT5rbcGZS55fnFnj/IYyocIV4AoSJ1VQ1GsirhCLiCFqSqF4V2DLdNt2i2+bhWmBJs1rd6tApixMOxTKLLSMJhP516qMJ3UClxjQEPE+EBFs4SgKQcIGRVxh/6Dh/jtqPvyeA+wbQqEjHIHSWYQk/CPTGk+zq6kYEFotmMQhr14Uvvbd1/jyd85wabOHt0s0wdJO2kTgd50v8TbeGcRQEn0PDTVoCVIkU9xkH4sBjBCsY7M7xDMvCJ/98hn+6jPP8q2frPLqFccmCzSUNNoRZYK45vqvuSHmnykk4SNSJD3OBnCCuJqOggtXDc+dHvPSxQnrpoTaUBa5KbQm7V+ixVEhFGh0hChbLbtuNd7oDKaCK6qm0p5dCZeppLr+NscsH5NP69eK5UEVfAO+S1fmSlzdxxYFaEdorrJYrHPfUeH9Dy7xwClwOiZ2EyqpqeyAEANRIq6cbgqJgndeeHF0ZsAowHd+vMrff+00P3h2neGBewhFhQ8thIaqLLYbJNzGOwofBR8Mqg7UIiQiRleU2KpIU95PYLSGlPvR4gRnrvT4808/w1/8/XN845kNTq/BlUlNZyooDGLmC0hdv5reFApEDJFAlEA0kUkHp1+LPP/SmFfOBdZ8ja8qYpEViAgmBJxaCioKekgoCF7wXoipXe31X/Urx9SnNaMMZa1q6tR6G6FD2CkOd3zE1DycP6nu3QIXPY6As5ayn+rNWlXaMKZftZw6XvP++xZ55C4HBkRaRC1Qo1T4GAhMwIB1Bt85fDf/HOjUcnUMz74C/+Vzz/LsyxFvD7EZDOIUKTqM9fTdTMrXbbyzMC1UHdVAqPoWCITRCL+6RhhNkBCSRWaFrutooiGUe7FLp/jKD67wv/zl0/yb//w859YMrQzBDNE5aaznnykpEZouKm1sCbR0oWV1Y8Irp9c489qEa+uG6AY0FtrY4tsNYtcgMWDVUkqZWppHQ/SG1P16vhP9leAGp5HFVj5yCsS8uOFrZz5ReHfkqO0CIjCoLKVNIj5iaDxMOo+xypFDSzx4zwHuP97n0EIgxBFV7UAKRhMhUGCLAjERHyeIgBOL3UWUr1PD869e5S8+9V1+9twGm+0yFPtpukATRjjnKV2gWV8lhjlDUrexOxQdUoyJMka1xQkYY0EKxAumU5xPY+ubNXxsCK6idXu42i3xs9MdX3rqFf7jp37Id75/jouXJzlP662xK6GFaiocjsmk8aFjdW2Ti5fWuHatpW0LXNFDRfDB47uOGFOU0BrBmpTnJULy6mSfVi4KmUkinB6/GghZCwoWNKUmGBvT7dF8iySZMbu5ZYkATbY4nsKWX9hgsDjjMHYXYZNfBZSU8KsR0YAQAE8UTzCeYCJiHMaUqWY0RLpmA+IaywuBh+/bx4Mnlzm231IWE6J6irLE2oIYBI0WZ4rUIir7CY1NAZ6trSFGYkjzTAAkuRB8ysvmudMjvvKd83zpm89xed0TbYnJVMvERNYYY2Q0GaWa0dt4x5H8sZ4QG2JsEVGcc6mZq0wzC0ziRTPrYDdz3wWHcftYbxf4+asj/vbLP+BHPzvN1asjCPOtrflelSEKRVRqaymwaFTG4xGTyQTvAxZLbaBUg4SCTmvUVrnILiWWkbt6WJtc1MGDxtw1essh+ysWXJrM2NiliJO1Eed8rrkCFYMUELWH6i7aR4XUAMXHyIgJnYUggvoCQ0HtBpRFie4isfJmYVo/KgomRmwMWO0w2hClwZsJrW1obMuGN3hqrKmwocE2F1i2F7j3yITfeW+Pk3cIg6EH8VjbB4TCGfo9l3K0osFqiTMlqoGIT+6GLLRi6IhdQ+zaZJYLeBEm0bDaRj71xYv8h7+7xqXJfiZO0WKNotyg7jvE9AmNo51EsGaaSH8b7zDEG6Sz4A0xpDnuNaaN2VrUFkRT4tXBQgP9EYUZU/tArT3QBda6mldWGja8En1AmpvhiJdEp4JaFIc1FXv3LHP8+F727rWgq6xdW0stzGyBOIeP0ASlDYlWJAoYC4UzVGVBXSXt61ZCkxK5w5y73uGenPEz7brnRVbjZpWpaRKrkdSEcttkvIWQdM1ZOURlGiRJxYCiLh8WSiGKEoNio8H6MfecGPDEI3vZsxyw1qdC2zC4/lveEEE7ujjK1YYVRitEI5gx426FzdCyEeFzX32RZ164xmbniGaALZcQNyRqSdcY1BvQAkwFtsodYm7jViF5iXugPbpY0GCZdBt0o3Msluv88997giceOM7BfYtQzheM2dWIikjSkKRAg0NwLC72OX5igWNHC5aGDbSrmEZTln9REMTQKflIxgaSfO/Opujiuy7AM+N0lyxkVBOX+K6FVsY0B2x6rTLNKk4k8e8CZNNMdJqQkdo/kSofRB0mmtRIwgqdekLXUGrHqWMLPHbvAvfdYVgerAGbeC9onG8SQmpY4UMLCsEnzdc6ARq89VzeHPO9n2/w6a+e4ZmXN1hvHd4OMOUSYvv46AitgpdUcW0LTHFbaL0rEGoIFSFaWiKdX2HfUseHHlziTz98J4/cvZflhXLujXt3I7q16hwxplBnVRkOHSy540TJicOOPXWgaDvEp7kTjaDGEo0lCPjcpICk9adE6PnO9eZjRnjqlElR0n+qivc+NbyYF1mBmvHaTT8OAGdtStR9m4LwnUVKvxCmWlYSWCkVweVss8S0EAV8aBEdsXfQ8YFHDvLoyT5H9jQM2ERoEu3x9V/xpkg+zq7zyQ9qIjjwBFpT8uL5Ef/lH57hGz9d45XLno1gaKUiuho1JVFNbteTxsdYQ1Fcl9R7G7cAggkVhDKZWX4TV27yyL1D/uTDJ/jI/UPu2u+oi4D38wVNdie0Zs0YNYlDSzsGRceJIyUPnlzi3mNDhrTQdmhMGpUtDNYl/0LbQeuT8Ioh4lsl7m523zRMhcrWVep2pvxUaL0tx67mbLQtqZU1LWex1rw7MuIlk+AJyfEtFpVsGiYSGKwajBqCF6LfpF+tc+pu+PgHe9x/omIg45RAah3GCXEXs6uwPUq7yMbaOmIbpJd8YqNYsN4s8r2fr/O//sev88pKQUNFRGlQui3hqDkZMDWssC5gXbwttN4FcNFhpUzjs3meI4cMn/zQCf7Jx+7hzsWG2m6gcUTj27ksmV1MK7aW9bRvqREQ9cCYYanccXjAIyf3c8c+YWBG+GYdDQ3WbDWYxeeaYwGsmLQzznGiNx2zp5DzsqblPZA44zvfEcMuJexUDmQC4eTbSl9WOEvxLtG00mUmcj2dalti0GzWimrqY6kdrp2wd+C5/x7Dhz/QZ+9iR99OKELJaE0gFGA6VOZzrAKoN5hgWVzq07HOxK8xoWTdL/M3nz/DZ//hNbS8A2wPnEnJzTqh85v4MEp5Q0UEF8C0RMYExu+ODeG3GAJYIgVjjF2D4SYff/9R3v/gPg4vagp4xRZjlLLn5qpg2KXQAhBC9CAR5xRnBdFIibKnZ7nzENx71HFoKVDoCONHSJykxTo9n+zTsg6sfbeUWiTBMdWyphJ/KrjelnmYkVza6eeUqUhQCudwziLvAqFFvtbpL0lokbWvgIjH0OGkYdGNuP94yXseWuTkHUJdrGHwGAY49qWuwhLATK77hjeGKNgIrrBIZRhby/mx4Zs/avnyt67y0+cD2EPQX4DKpRfHNmVdhwbRgLUpfUJMSjLx2twWWrcciugYF69waLjBJ953gN9/7xHuOzagZ3JaEan8Z17345wvmyL5HVQDYjqsDTgRTLTYaKiB/UM4eVy485Bhbw8qxhg/gjBJCzepHZkjPQmueU/2V4YZIbJTaIW3IbQ01xFsazPTw2WhvVPNuzWYaoNJYCVTXkVRiUlgSYuVhtJOOLGn4YlTfR47tcieXoelTc5z7VHWg8yVpZnXfT6YXBwAkSA1K23FM6c7/vYrL/K9n29yda0Pbi9ltQBFLhOZdnHNjRGNCtZYRBwRQwi7TAa+jZsCIxss1ms8fFz4b/7gJB+6b5Eji5lmPPYSGweGGP1ca2FX4iJZTZI1pIDQYVCc9HChwnZKLYGjBzpO3VFzz9E9LNeKjWPETzDE1FFZM/nk/HP6V4JZhe9621pVCSG87vm3xjQWt61oZlUuWTlGUqhsjsG6uZA8HbIumAWWSgDpEGkQGVMVI544Be85VXFiv4XgEWp8KGmDpOCLgsFh2UVOGxPQDVSV1UnBs69Gvvy9S3z2Gy9x+kqEcg9FuYD4AryBaMHUiFRItEhn0NYhscbQA62hK35zG7D+2kCxxSYn7yj5/Q8e5v/0u0e4e6mjbwJiK8Y6wJshbRSadjzXKtiV0AKIQRIPFB2RhjY0GAoKYygQxI+pi00O7684eaJk77CmkojELgktScKq7aBp0s93m/BKMiXdvqkg02nB9G6F1pu8Xgyph98bv+RXCp0eW34tEnWO+Cy4Osoi8MTDQ47tVwoNlLKAYRHrBogzTLpUVG4oMHOWZQDJJ2XXmYwnbI5qnn+p4Ytfe46La4pWPWyvRqMQJgKNgVBQSI/S9LFaod6l5OBYgWahFcp8EbdxqyACw6Hhg++5hz/86APsdRuU3VW0GSdaKweNQsDOXdy+a6ElhtxooESoMJTbtCs2tXDC1CwOPHceggfvHrB/0VFqgK6jV0JZRIxJjRyj97nD8lTbuP64+UhlKzPRPUn5U84kFmCJYEzN5sQw6oROU0mJ5kExkkwhkwugM2kPkLLpVap8fW1idFDBo4jNPuU4JUi/dRApEa2JsSREJdIQwwaxHVG0yrKBB47U/OGHDnLHkQGDWrAaE82Q2mzuKyI+MVeogFqMWJRIpw2NjgkmEoygOIw6jAfTtokYsBDWWOIrP7jGZ5+8yM9fApWlVPql60RdJdomuRc05beppA48YkFtTM1bo0/qnmz1Zb+NdxhiQmrdphWxK5LiIR5rPRICNnTUjNg7WOeffewQv//+/dx50GKjItFh1OAUKoFCoZSS0g3mWgW7EloiqbGF4IAehgGF7ad5MfWnlTXIIgUtBwdXePCeijsP9lmsDeInFCZSl56y9BjpMhVEyCH3fPwKBRYkbchEJTcwBrFYI5QmkWpKBGv7rE8cm62hVcFran8E2RmTD5EUgYsIjQRaI2j28QgtkUAXhQ5FXBJaTou5BuumQh2qFo2GqIrGBsIYacaUXcsdS47feWiZf/bxAyz1K0RN4gnTiMEj6hEJFIUBEjV1nPLqS8DT0uiEljb105Y8xK3P6rawEvs8dwU+9bXTfP6pS4wm+xnU+ykIaHeNGFeIZZuYHARC7PDaEq2HMiCFJzJB4wSjHcbscoLfxi6Qi65CkboyIym3TjtcjBR+zJ5qk8fuhv/rH5/gg6dqSp3QhQo1ixhTJddSTE2YSlNQmMFcm/dNG1PBYihwBO6+c4m77ligLsesXruARKhcD2NKjHXvuqxlTXLsl8bsJp/WaH4i535JDki8G5SBiV+nidegWKMqFas9irjAoKypqks8/GjNo48tY6XNWuNbQzWxLiCG2g7omQHt+hgTWqx0qEzY7DahrOjcXs5c6vGv/92Xefa5S0TtQzGgrIe4oo9IyqqmK7f7ft3GLUPsKuLEQLcGvQn1Qol1fbp1oTQFtRlx9xHLv/oXH+TA3iFGsj6wlQs4jbxs5QTNjZsnLdRhQkm/gGOH4O4TBccOCiVjtOuQaHC2SoWI74ZVmyt3krBKEmvX/qvXYacDXkgsFmm8kn/PGsWaX/Z7fnmodGDHWDdGYktPevSkpO8aPvKBfTxwH+xdXqc2XTKD54FRpPCQGs5R+B5F5yiiBx3hGRHrgk2pefY15e+fvMyXnjzD5RWLLRYBw+Z4gg/JPDd2gGgvOeFv45bC0UekBBnj6o62a/Gtpd8/gA2bPHxywB9/7BgffqRkcWCwEjFbvpapVTW1sLJ7aM5o800TWhItNpTUTlkslaMHIyfvqDmyr6LEo13ATtlorn/zrxpKKhWensj1J/Q2+f+SwJrqV9Mkzfy8SPKFGcXYt/Pp7yxcrlogKjaC9ROWa8/9d9W899Eljh6M9GRMua0vvjVEM5lMauFjOmHo+ohGVCd04gm9AS9ebfjqjy7w2Sdf4+zVknHXS/S9RmmbDdrQoSIYcTiKlJR8G7cU1jhKV0ANUZvUPq5TaqvcccTwu+/bzyfef4DjA6XnYuYDTPMdExOzyQ6BNfVrvzVu3uirIGpSjzpW2dMfc/JEj/vv2sdiBRLanGoz9WvdeswoWa+XXJkr/nXPvwm2VGGdiqz8dk358caAtRFrb325SVFUONOHtsZ4cPEqR/Zv8pH3LXPP8YrFSrAKZhemWQpIpM47Ou07VlagicqkNY4NLN957iKffeolvvHTq8jgOF5qutClfog6IdLi1aPqk5/xVt+s28CYQFkqvcoRGw+dUqhnUK7xoScW+PiH9/PIPT0qv0apHieKyT5fjKJZeG37safHW+PmCa0tRFQ3qRhzcGi4/86aOw4PWOpF8JuYONpl+6ibgalAyjIlM5Tq22zQOoVsZT4lpIhaZnsg7TrW5K7dtxrBYkOfIizQrKxyeN8mjz3sefgB6IunjouUYQ9hYlPh61xIYkuJqYyrTDcjBEMrfUa6wM9Oe77w1Et859nLbDLADPbgmxFxskJVBuzQQamoTgjdBiLjTAd4G7cSajbp4gqT8YiKAS4oy9WEx+4T/vDj+3nwbsPQTCg7R6EWJwYrBjEm1fIKxGnVRV518+LmCS2TDvWBkpIKS03HwQW4/w7HXUdKBsUmlZ1g5VYLrYw3NQ/zk9f/7U0wK7SEnI81DTSiWFGcVey7wDzEB2harB9zaE/g8YcGPHjS0bdXGbiCUmskFhjJkmcupFLrrhsTYoBM/OrLRTZ1iZfOCX/92Z/wvZ+tcnVSw3CRsW/BCaYwqZEnmvvWGXBKiJuobvdNvI1bgyBjAiO08zAesbcc8d77Sv7ln97DwycL9vQVh0G0R6IMtRhcYjLNR6IRmAqKGZbgt8B8r3o7yCvWe8FoHxdrnFcGFo4dhLuOFhzaJyz0Au5d4Ii+HlMhNdW8yJrXbiCZ7G96pA9LTjwhrUVjkyP+Vls8RjsK1ljsr/LeRxd4+FSfo/ssfQO1cVs5bLuh9BcVHAWha2nDJkGUzsFahJcuwDd/cJUvfO0VzlxwdLIEZYH6lqosGDgHXUC9pE7mtsKUBSF2xHeJO+G3GUE6sJG6KrB+lftPGD75gWV+971Dju2x9MSl5F4x23xsqYHgDO1RPjQLsjkTgW+a0FJRgvGJjyn0kNDHBYsJI5bqFFG858SQvUOZl7DwpkPzf9Of2w/eHgSmBXUJO6IOyb43uQbzVsMyZthf5c4TG3zsd/dx19GKBVcyLPZkaZV8EWErrfatYTA4KgwRz4ixrLMp8NoafPsnl/jcV17iuRdaGn8AdcuZ/Q8q6yhw0EjOaq8R08MV/Sz45/v+27h5CCqIcywMavYuNPzO+5f5/Y/u5ehwwhCDCTlR2ZJXwpTmaFvT2qFtada45sB8r3obUAIqkaKsIKZaMWMqbOwwOmLPAtxzZ4+lgcPdYp9OWgfbmtXW/+/o2tj2Z6X9JGlXyTk5nwPyZqJtVjh4MPI7HzvAgf2rLA8dg3IZfC/dCLNO4BqNX0d1zvONQAe9XkVRCy0T1v0mP3/5HN94+nm+/+NzDJdPUvUOpYafPlDWfSbrY0arExw9hr39GLOA+gLvBTG5Keht3FKIq/HB0DabfPJ3H+RjHz7KPcdA20tMVltiUyCSynSQ6SLbfv/2wxlb5FZrWqR86eRwsykfUI2ipkCiUGrgQAXvP9Xj0eOWI/0NzOQCfrJGFCFYQ5PLZQoHPdtRhjWE7rpow/Ty376EEQxGCpBssolFpAcUYEGKiFrLZNJn1Ahd9BgrGGMSrUzIBGOaPi1LozQIQSCSHNKiU/lNaixv0GhTF6Ad1zF7LdNBne5E8w0sQAyGrjN0vsUWHUXZpTILFaJPepCzsDm6xKnDIz54j3Df/j77ygUqKfNpxBQo8QHtfPIzCYiR7UPScb2Nm55zaLREeoz9kBfOwBe+doYfPLNBE/ehZc1E18GPIJR0oaAtBrTVgIktaDqP6UIq9+lsSjDdRQTzNuaHiMealqowWHU4ranMIpY+xlREESIdpicUm5e5w63wJx9c4k8/vo/77qgY2oJa9lOwSAxpWVjTJgqPmak7q2sZ8rSZTvE5MOfLdo+pTqEE1HqC9XiJqDjAYoOnJw33HCq4/1jJHftgsRhhdAwaUJPWe1DQGDHqcdrmllZTls0bLfLdQ0QwJmeo5yx1MCg5Y90qagxtV9J2Bp9bWxmmX7/TjNz6NYVIstBSouiWvzGd9TRRbToM11/PdbuQTh/PC4OqJWguejYBRIkRnHFYAkY32bMQeexkn8fuHHKwXzGwFqtC1JCSTgHUYrGU1qYi75l/01O6/syUNCPHrbDZ9LhwteKrT53jG9+9wCuvBaJdTK3V4gaECUSTsl/KkliXdFZp/RgNDSZ6JEbiL2ex38abIesBqUBrO3pubbnNllEYvB+x1zU8fqzijz54hPc+uMCBRYPDYE2PsrSJzSWOgFFOa0gTZFY+7diGdzG1b5rQYnoeW2e08/nZXXnfHsedx5Y5fmSBhTpidYQEKGy6iZNJYNIAdvAuJN+6HjNLauqJTw+2B02nr0v5WTfLp2WtUBaJY6rthKazdNHhg9KrDY4NrL/Ehx47zMMP3MGRIwfp9w0mT1jQ1NtQHNgSKXtI1Z97DJJ1GNnwBRdXC37y/Ii//Nvv8cLZTcadoQmRGGLqd6ekDNSt7oYtSAsyQc2EaKfHOCci3sY7jegL/Lima5VgWjpZYxIuo1VH8CMMkeVeDdcuc++JvXz0A/fz8KnDHNhTUxlSKoqkvOCiSOQJPmynE71TmG/2vQNIAuz1JgTA4gBOHIL77lzi6D5Dz21i/GrKzAYUR6CXqHb5dTINkjaY/O+CTPeVafSQVMbj7C6yzHcBZ6F0Std1QI2PFU1rcEVBbFcYFms8cMLy0Ud73HNiwMJiiTHQdp4YcyZ75olP0R2XjjnPVgVaCzLo8aMXNvnLT/+MZ087iqV76R+4A1f3GPb6VDiMV6wGrHqM+swW0aKmQ02DmgnBTgi2Id4WWjcFRksk9GnHDWo6qDwUE5pmFVNZnLY0185y4kifT37gLj7+/qOcPA59OhwtZjZ/TkiOdi3mni/z4iYLrXyyM9rW7P9Te6yQwHIf7jhccffRHgcWArVsQLuGlUjhBFskc3HeXX63SMmk2TibsdJyJ8AZBWp719j51A12k2y+Js16KqamdyDR2VirFG5WI3vnkBZ+BwhRHRoLUEHjGPwVju2PfPjRfdx/BJYHqcwiBk8IqShazLSa26BB0CApqDInvEbWQsvTP73EV596gR/+bI3OHEOLA0g5RMWwsbaOU0dta0yUdOT6zOlNUckZ1LluTeetfbyNXcEYwVkBJ0SjKa/OOYiKqMfGdRaLa/zRR47y0ScOcs8xWHBgNFGqE6dlD4kZSBGMrd7xNfvOftoNkQtYttbljJk0XcpxTG3GHFgU7jky5I79FXt6HhdWMXGCs6mu2pOzyt9h7NBe8+9TucWWMEtqbhJuW6mms9Jt5v35wZaWRboPWQBMX2gkpt6PxVaRzzuKGD1RO6qyJPrUbr6wARNW2LPQcOqOmifuW+bgoKWSjhhbgm9AA0Zku1xGQdUQohDj/MWiUaGNke98/6d8/8fPc/max1V7abzQ+IAS8b5DoqTEw5mGsDLV6tSSVs+s+/Zm3K3bEOOxZUvdd2mz8hZiCRRos8FSNeLxe3v84UcP8vBJy54+GD8iNpuo7xL9dXLgEmJM/jAptkvY3iHcVKE1FUrbgis7u7nOTAwtNo7pG8/xgwUnjy1yYn9F340wYTVxM2tK2p4VF7cGb/79W8KOdL1ToaUIyGwTjzTA7iZqWj54QgwsLiwQfYP4EX3b0LPXePDkAo/et4ej+y212UTDmNC1xOCxxuTARD4pIZVfGEfURMc8D4wxlEWP1147y7Vrl3A2YHSC37iMX78K6tm7dy8+RiaTNoeYXeoQvXVUiY001omNNNa3o4c3CVFGqFulv1Ckezw2MHY4KZDJNe46KPyLP32QDzxScWDRY8OI2KwTmpboc/t44kwC8M1xe9xUobUTO09/KsQACltSmAJDoGfg+P6KUyeWueNgj74bE7urtG2b2BHnzRHaJbbMw+uPLQ1rpg7xeseiznzAzJJOHKY7tS22XhoTCZqBwr3Te1GCiiGKJUZlUECPdYbmMu97aJkPPX6IO4710DAieBA1WLEUpqB0BdYkwTC9VLGpDZwtZoTZWyEqdIF/9V//Gf/tP/sdHrhTKP3z9MsV+nWH1Y7V1VXUGmxdEE1MRyZRhBxZVQexyEeJ3BZaNwXRdHR2g1E7TsR+oYSuw2ye47GTff7od+/id99/nKV6jMRNRANV2aNfL2PtkKhFij46oSjTxhfD65fLL4tfidB63RRPEmtG+ypACowmTtTFHhzdX3PyxB4O7nHUxRh0DWumOVo3A29wZ3c8naTWrGhKAzLzoqkAmwotSdTLO5i18muE5NNyWRt/xyGJY2MyGTMoIgcXA3cfFj7y+AFOHq9YGqTgSNAeIhVWCoyYlKdGalCrGrezLczuZowVy8DUnDq+zB989C7+z392H3/28cMcGa5im4sYP8aHjs6Cd3Hb0W4a1LSZmz4gGhMddhQkmnfc3LiNhGgg2BStl+AorWG59tx5YMzvf+QgH//gEY7sdfTEYhHEWMT2MG4RY4dgalQMYlIKkTUpXemdxi6m4C+PNNW2fVzbP1zKiFYLocORHMN3HVvg2OEhiwMo7ITCNe+K7PE3w1SgpSNxHCRsCy1R0Gl6qdGbxvKgJgmtZjymkIZj+0ueeGAvj5zqs3fYUpgW4wqi1IgUGLFJs7muf+6WxphV/3lNdCuGgbUsusBDd1b8408c51/+yUnee9+QA4OAiQ2uKohGCdKgdpSPMWomIC0iHUY8hpA46bMAu42bALEgFcQSEywDEzm6J/CRJxb4vY8c4JFTQ2o6ijjASg2mQLVANZP0G4cal6d66kK1HXp65/ArE1pbAmtWYmVozItFLe24wTdjSgsH98Hxo3vYt6eiX0fKYhesme8CbJ/p6237tPASx5C9KWoWKJaIRTXSNWucOLLAR9+3j30DhbBC9COsyT0EhdTtxivep65DW5nu2f8WYkfTTOYu45HcgLXvOnrmCsvVRd5zf5//4b/5JB//8CMUJjJYGCZeJZ2AHedjlH5OBRddbgabjik7/228w1AL9Kh6+7AqOCYc3Q//9T95hEfu77NoxxQoRXQYKQnqaLtE8+81zaE0XzTNGaMYZ65f7r807P/9f/wf/x9VWV7//C+N2Yzp7X/5LyLJDMFgxNBZCJkUzFhNodOoFMYx7Al1UWNjw3j1MtcmfdT1qQqDqID3FCa1mEegCR2tJr+Ik2nmPDtEyPQMZ3/d7qicbz5pp0gLVlOTWgyH9xcc2lsxqCC2HWiHWAOuRMWhajBRKaec2KTPFjEoSWMwLmBMgY891tY9F66u8MzpSMTirMWKJQZyedH0zoUk4LC4UKM+gAZEQrpnxlD2KkwhrKxfAtvijKeSEU5P89H3L/CBJwYcP1TgdJ3alJTSw6hLXYckZf5bZzBuWp5DIm3LZyBMm6G+8Syc8iWlnLwkuXzXIFHpFSXDnmP/UsGB5YIDC46wusra2cuMG2CwL4WIxWAUtIvoJGKkxhUV4hxtbInGoyakVAgMKrOsATn4IYqamObIO71qbjkUxOeUGsm5c9MI61RIBJCA2oBWirYeDQahTJ0b2hEaJ6hpMZWm3DcZQFzEdhcZyM/50MOef/Vnd/LRhw+wxxkqLKUkzUqnBf+SUiWmw5308nzPc6XHm82Xt4NfmaaVcJ0Qy5M7xECngYhiTErBNBpwCos1HNnruOvwkOP7airnIYyJISCZoiREpfORENMNU5So19UlvkXJj7ItsKY7xTRONlV0owg+Cj7nNqY+iMnnEzFbviujshUwSIIrGVSqmpqfmpgiiWoorKEqIzG0qXP3lnaTTijdp/yQiEjqGqRKjuRZVCyRSNuN8aFhYXFAiB71ayxWG9x/95CH7t/DscMVpW1BFSMlIrkLkOarFHJN5fQ70/XPns22g347QLEFmQq37ff4GBEpKGyP0lYU6tnbDzx234A//tgJfv+DB/noI4scW46wuULhSqwviZMCfIGrephSiMbjpZu2g5rp2rT15emY3qz848aj/ZuAG13Z7J0HSD5Jug6KCooKwRBCTOvMGow1OY8qNSQ13Ri/eYZ773B8+D37ec+D+9g3sJQq0IEGyYy8eW4YRUzMbpvsV1DyJs/croTd4FcstG4MjanoON2LlB+U+jZ6DDDsweEDQ07edYiDi0LFBrFZJYQGjKFTw6RTuk5w4hLlWHjnbxZAjEqcfnRSRXZME9n678bY8dqsTstu6ngkoK5DrWZhVRBxhKiMRps0kxH7l/ZigsXFEYeWPR9+793cc2KRxb7DQOr8rHmiGgjaEd/E5NKtsOnuoJqa+1pXYV0P0RLfBdCW5b7hgVM1v/exE/zpP7qTDz42YE+9ypJ0mImBSQ26QDUcYOpIMCN8mKAUqaxo+1tu8Pt2neabDMWvOWYE1I4NeXrkvweBRnBVj7IsQRK9kCkKjKtQSlRLCAX4MWU4z9Ct86H33MMH33MfB/YOkRhAk3c2RM0bwy7m7DuMW/fNM3BYHA6LQcRgjckNOgNGYVDCob1w71197jvaZ3+vRbprdJO1ZNfYpG1oquekxlLepOmqGrc6YpsbsRu8yddumUwzMMbg7PwdiRRNGkcB0QheofMKWASTFBDfUQGHFpSH7rJ87P0ld+yFngHxipWS4IUQknPda/uGfqpfqm5MBLFpXFQF1SKNTOwwrDN0E07drfzhxw/w3//zU/zLP7iHavQaZnOTQvv06n00PuJNINiQ3AZeIBhEk3tASP5BIaZDNXsEUo+C193w3xhcv3R1y5WxDUkC3g0x0aIxoCZS9hxiHd6DjjV15pYeFSP2lRf50KP7+IOP3s/jDy4xqJSu2cCJoSxqjLHbm/YtwvVXfkvgjKEwadFBIk0XazASIXaYRBLDsIQH7qi592iPfcOI6AjwuALKXqo4MCRm3sq6mzJdQ4iEkOzDKS0L16nBsza85v+298X8t9zR2liLc/Ofa1Sh9Q6soG5CkHWCTjCmZKHeR08GXD7zCoeW4fEHlnjiviFLFirAhgYTwElqzBo1+X5cITestLhetU97+Pxal6CIUbyHtk1aV+EWcNJHQsQ3azi/yoFhx3vuXeBffOIu/od//jhPnKoZlteI3TWsWPxYYOzADEHKbd8N5JubTZMtLWP667x39dcQOvUZSbr2qck2azarYE1JWS7SbozpmjHYiC0dUVKyM6bAxAjtiH29Ce+/v8d/92fv5f7jFT3AxknyeZrkK5O8RJlaCXMc7zRuMFV/9TCZfipNtGTAIKk9sBAQbTEECpRje+Hk0R53Hu6nejnGSC4OdnZ7/G5WRC7EQPCpMPRGg7JDMDEjtfLzW3/JGow1FlfMn6ilaomxTLV4bgRuHewEo4ZSDT0KyrDJvScsj50acvJYj5oOxwinPt0XnWqJafhT0OG677lOOKXH8wusBE38Z69rXFJhtaKkpCeWWuHgAB6/u+JPP36cP/v9o3zgsR57+qtIs454C7EPPpWECNvm3/R7dh7kv11/Vb8pkG3JsYVZwb39GlFBguRdo0NMxIcOUMqipC4dplunZza592jJJ953hI88doi9fY8JG5QEKjetWc3T9hbf1neF0ILZOZcHRJLgkmwmSmwxccKwUI4fqDh1xx5OHOxRmzHiN8msGIRMPnZjY+eXRwwB7wN6ndDaMqOusxZnkZ5O/8ep0LIG57JDfA4ISStTVdQ0mGJCUXgkRGihJ5F7jg549FTNqRM1BwYOxwijbW4Ma1DNPGEmfeL1uN6Hdf3j+ZGElnWKmZYM5nVlTI+6XKLnFpG2wHYte3sTHj1V8M/+5Bj//I+P8cT9lmW3waKBnhTQKYQmJ5tKPq4zD6fiKrewu9H1/WZg9tp0RmjtFFwxQDeZJDofB2IC7WQTUait0LcdZbzCXQcDH3r0AB97310c3weVbmD8mMIK1pWgyZ0Qp4UftxDvHqFFuhkhpELLbcFlU3qEggZP26wz7Cl3He3zwN0H2D9QyrBKnKwQu46gDW3saKN/e+vsLZDMw52a1vXa1s6Fksp/ps8L6UI1OwaMsTg3v09LjKTC+xCRKDhjKZ1B4iahucxyf5M//ti9PH5vn4OLgkRlMhpjNAksY4UQ8+3NQitN8xtEA2eEsU4F5S7uatLgcqpGVp799npKG1QECRbxgoktQzfm7kORP/qdvfzf/i8f4E8+epQjgw2K5hILZYduXCY24+17PDWJdvTPm37Bu2p6v7O4XtPcug+aRyv9XTUSwxjbcxS1SdFrn1KK/Hidbv0cy8UV/vh3j/Cnv3eK++/ZjwkTBrWlX5W5ntCiuVenNRCDRzW+zgx8o+OdxrtiVLf2CZOcy51CFyFGg5JI6ERS+6EQGkQbFnpw95GCe48OObwEfbMJYQ2VDm+V9p2/V0BKcwghRVJ2Dsr1y/nNT0CnKQYG7K78b5lJNAJhCN0SsRWqYoMjh0c8eB+852E4usdSiSV2JaJVajCCoKKIy5qWkM5T3Q39P9MrUvKOsvVgXiT2BlTS200iiAviafwGm5NrjJsRplDKOrW9j0GoCBwewHvugf/+n5zgX/yjgzx+v8f5l+kPAmU5dcJPNa2sbWnWtHIU+jdb05qayFNMhdXMAKmkOeY8roiIJGYNyhJCh/gR+4aB33nfIT7xgWXuu7OgdKCxTWk6KngPvgkIZivbBO1mNodfPd4dQmu2ts0KAaELShM00aFktcBgSS4ZjzOwbwHuPrrI8QM9FnsRwxixEXVCvEndMlRjygG7bvHOWIfzrZP8BmPA7iLlQXVCCJcTJa5fIkwWaUfQrxtOnrQ8+liPg3thWChOC6DA2WHyhSV9asuymF6CmTYknP0eZkzCt20PGKBEoyFqKmkS41EzQu0m6jbBjTBl6nUYtILYw3SWyrfsq0a85/7IH39yiX/0yQM88tACi/2IFd0WWEkUb/nltn/mQXi7p/6uR7pKkKxdXReIyK9JG6MH6XK370hZVmgILPYKHjx5iH/8+49w3x2wUI0geqw1hKCkeFOiBpoGakLoMCYlld4qzL9abjKmCouRNOFiTOUkIWapls3FokrsmhI7KoET++GuQ0MO7XHURYtzHlOAFOkzmIncSdZuJGceJHNod/M6as4bTVsOkHf1vEi2Pivv8iogsr2g8jtSJnc+t+QUT33fUkqFR3XKhb/1gWAg0tLGFayxmOhg4qDpOLA38tADfR68vwc6SuT6KRsEVxQoNvHt58/aPs9U2JyTBwCTHK5Rc1a1J+KJKJM2cG11RBsjac9OQnCrJHwroXeKqRZnsuDzKF2K+BqlV1qqUhDT4bWlC3keBIM2HTTXGNjLPHZPxT/+w3v4F//4UU4edSzWHYXxWEmaFSKomHRAIgmUmCsG0kJOKR3b45/uQRbi00v/tcF0NuXbquk5kekoJseTkO5DNJ4oIa2HmCL1BS13Hu3z8Q/dzR9+7Cj7+544XkNDpLRVKkoJYF2FK1NQzAel8x0uVz3cKty0Mp7dYHu5bClbFE4oncGZlGgqMu3+4imMyQmklp5CZTzOtGy0q2z4luAc4momVzYpbUFhJeWrq6dwBmtT9vqk8/goqAj2dRN3Z0QtLQ5lqY4c3ms4fqDG6Rjjyb35TN7JAkYtEiWlJUhMDZKJECMEUHUYWxIiTMaRK1dHfPf5mjZACBO6bh2NHTZnLIsRoukwpScYmPgeS8MFCr9GL57hjj0X+OOP7uOxUz329pSuC4jpJRPQpqxlYwQjLuVyzUzslDSoaCCT7wl0htBuAutYt8Fmt0ZHzS9eXuPvPv8DDt+9F1OBV4+RiGiXKZKzrZaW01b9YmpKm8LmhoIYHRpqNPRQrSAWqXDcNWA86nzq4CQl3tdo5+ircnKv4Q/ft492vMKlixdxMaBaExkS7QAtK6J2YAJWWqLfSNTSIaBdixqlqCxiIWpEvQdrUJODPm9bo/zVI1pJm1pUNBgsFZWpKIxDvSd0YwobsHWkqzyut4T6IXFUYMYthxZe5Z/+Ycl/90/2sFc22KeH+f+396Zfllzluefv3UNEnCFPDjVPKgkhVGIQmMHGDMYDxgYPFy8v28u3V/e37tX9p/Sn+/F2r3a7r43d9m2WMR64GNvgy2CDjBkkgRklkFSqUlWpKrMy8wwRsfd++8OOk5VKSdSRQVZVcR6tg+qkqDgnI3Y88e53eJ7KDnPhnrxWrM1mq/lBkNeSda7ThXvltt63BGkdRH4azhN5+34OKBHIsryEHDoYK0jhSM4yi4Zpo8xmCRsrrLWozkduFDH2xhNZBeu6Rtb5B+zhhUlrrRc60iqx1Pl7qEORbn5LOyddQY2gxI4kJC+wnM5EjBAV6iZxdbPhC9+EmATnBGsFKw5rS4SCGIWQQlaGMA5vK9rJFpXscPa48LYHj/C6+9c4uu4pLVjjMMZ1UWvOPbzwdunGGysgyeTgSshyQVZRq1yfRr7+r9f4xN9+g7/46Fe5eOUaMGR1dIzhoMwPHJOrd6SUHYPVA3ZPFUKQvYWuCUQsRjzG2K4amzCd07gyD4dNVhBQwYqh8sJo4BhuHMaUBeefeorr2zXW9bG+RzOZgjOdj2YgppaiHGJsvj4576+klCNssQ5jLGiWUHllbsF/G9QIxnms892DSEiqe4Ui6wTnLEEDaXKdZFdwQTDNLrZ5kt/6tft537vOcu/xASuuwCafj2vzNciR1HMT6TdyuC9Pgn1R3JKk9YMQ6aqCUbqZUUW8xVYFvjegDobxeMbuTo01652DbSao/NTIGWiR7FYzb0ZXXYy0Vnstx9eFU0crHFkqWNShRkgmb0dEbJ4/NHQSNHPS0L2trphMJ00Dz241fP5rLUkNhTfdfJ8DSlRdR1p5e2NEKBHa8TMcX4+84f4RP/XmYxw/7Ol5xYlSiN+zgcqbiLwZ2k9YB9/nyMvkapHkfbraklkyfP/pMX//qcf4xN98ly99aZNLl2tm0wIjfYbDEWXlcF4wkvN9oRUEjxEhadojrPmCV80kZmy+DjF2ZG+7rv75Ner+MV2UPddoGh0ZMFobkkKgrhNNk6jrljal3N7X7UY1JsRW+bpLTuJp1Lzrlm6OUslEm9Je39rtANWUfTcxpJTzFap5zEZRfFmCNTQxQDPLc5xhxpH+hAfvi/zur7+RN756jZHzlOJRbVETnmMNdZCw9uPg+39P3HakFYj5SZ1M3oKRe4B8aen1hETJZDxld7umiaskBTHzbZYhal681mabI6Fb4IuSVtVybF04c7TCEjDJZA1twx5pGfaT1jyf1QU2+0grAm0rXL1e8/lHpiSkU6uwhGhIWhCTIyaTb3QLJgXMbMyg2Oa1ry55yxvWecO9BUMPVhOEhLOCIXaElUliPw6+B3I+SnOXdYxZpaQBnt32/OND5/mrj32LL37pOs3sOLNmxBPf3+T801dw3nH4yDr9gcNZgzFQzwJgsdZiXd5KzAkLOpIiqwN0VyBfIzPfvnYv6f5k8hbTmvygMUXN0UM93vLm4zhZ49Kly1y5coV+v6Jupt2YiUOjJYVE1PlV6M5/d1yNCQ0RUe06vl+5G/GlQFUhtGhKpBCgCajzeVHn8Bpf9fLvrQlb9dDNbQZmmze/xvM//w+v4833jTg6sJSasxZqazCJLMP5gwnrxX7274XbjLTmqexcSbTGIaScKNaAtT4vbiwxwOXr+YZw3uHLvCcPIROUNdlXMbSRGFPXA7D/s16YtFbKlqNrwunjFVabLK/TVVeSjSAJwWIwnTJHNwvXJUmhi/pMjgDbCJvbDZ97eEzoEvwhKnUtxFSgajv5D8W5hGnH6PZF3vrGI/zUTxzi3KtKRkWgIGFVkCTEtsG43EejnTzIHAcJK59PMFhIWTPLlI5G4NI1+PLDW/z+H/4jj359zLRdoxgew7o1mmC4dOUqDz/yKCFE1tY3OHK0h4jHOgWp87GkOEBSmbRSyhriZs+pep4jya8bUVY+d5m48qug6SyrSk6frDh9+jS+aPnGt76SY/EmoY3DlIfBpZwo1XmEZXHGYTCk0KIxIJKljZ57xW9diAjGWcRkiRiiYvo9jLVojFDXqLeklLAYRq7P7Nr3eOtr+/z2++/lA+86xaEyYlvQ1uCLbF8vRroK/YsTlrxMvVcvBbcZadGVdnNEYIwBo6i2hNSQSDhTUHmPtQVXx4C2uREOj5jOwb67b6Ur4eYoa96EMscLk9awbDi2Jpw+UWFTi8Ui4sBCkoiiXTPsnLQyWYnMS5aSG/WMQSV/n63dwOceGdMkUBGCGqI6REqMGHIZf4wzMwZuwvGVmnf/9FkeuLfPoVGDpG38vCVEhRAabNEZre7ziZwT1A3aurFFNMGSUkvDDjN2qLXHV79+lT/843/mS1/dZWc6ILmKZANB8wJPwGTScPGZq4x3Zzg/4PjxIdYJYhuQQGwcbdOgSRHJuuE5t9ipeezNb81paj91HaSx/G9DiyHhxNArHSsrwsa6Y23dsbl1lck4EGMfZ1ap+gnnFNDckEun5dZFW5ALFUCex7tNiMuI5nycsagxGF9kldwYILb4qqB0Fhcj8dom5+6BX/2F07zvnSc51m8ZiMEpQEILk3tIMXmH0OEgOR18/0rhNiSt7kbTfAPkpo2Q5VVSi7OOnrcU3jJRR2inNM2Upm0RU+UjaLdFSV3yWLKQ3EKk5VuOrMGZk708y4fFiO1UinObQo6+bNf7t4+08mH3tqyac/NsjSOfe2RCHQU1liQWTIm1Rb6x4gSj2/SKCcc3Em+6b8BPvOEwxw8LPdMgYUohRW7CxZA0YbzMa7Hdx+7LYb3A9jC0uRqYXM2Mhsee2uHv/vvjfOSj3+Lq1iqmHGEraOQa2gaMs/giS5tcunSdq5u7zOqW4coqZU8oe5L7z9qClPLOaz5gLp092Y0G15zjIm/aXoSwbpAWQZGQB+2FhrIIrK8bTp5cJYSWFC2hcbRTATdFtUZT7AgvNwUqeYTK2By9xxSRvVmjWx3Zn9IYi1hLknkKYD4ZoBRGcSTKWLMSd/j1993Fe991jHN3FRRNjZMSDBjb0FCjpuzSGnltHCSog+9fSdx2pCWk3CelOS8kkhU3xSghNlgs3hSUBVQr0Mxm7O5eZzyZdt31BaqSt4Qp4p3F2GyNtQhpDVzDkVU4faKHJ+Akk1Z2kMmkJQgW15FWd+PlA8CeWUS+Y1VgewKfeWTKLObGKnEFzvdwziJak8J1SrvF6rDm3Kt6vPcdpziyYRkUUIpQmExYmaS6rYPYXHTYx0/K8wlrvl2s20QygqkKWtPnv/7ZQ/zVx77FhWdWaOoV3KDA9xuivYY2DTiDMZ4YS3y5yu645ekLl/n+k0+yvr7KcLTKoD9g4Axl6bDW5R1a7JLlXfoln+cbxYoXJ6w55Ri0FTQYRMHSYmWKkSlVoTz44DmG/VV2tna4euUK18dXaGe7JI30ihIjjpgSMYQc7XlL7NofxC7unv1KQhW0aUgmN11nob8ajFJ4Q88LabJDmFxnzTe884EV/sfffiP3nTX4sMVKsZr3gyaCbZiGKdg+Vkx2lbyFCYvbkbQgZbcYyZGKSn5SaifJockgOJwzFD1AW2IMzJrIrNVuNMjlYxjB2byHj3mHsg8vTFp9V3N4Fc6c7OO03SOtnN+PnaJB7nPpDgOas3BIXnFpXqnqkqbbE+FTj0wZB0jGoMZhrIcU0LCLiVscWW+57+4BDz6wwuvu83iJ2GSw6jDk9gI05u9gLakb25n3Hh0krOe9d4Av2Z0VfPqzF/jIR7/BI1+bkOQIyXnacJ1Gt+n3LCI9UjS0QUnJYlxB1esDjgtPX+F7jz/DbNJjNDzKxiDkhLwFENrQ7Mn0ishedTV/oxfu6p6T8R6Nic0jXSFhNCvFemMZlCWVK9k41GNjo0/TXGZ71rI7rdG2xRqH9xWKEEPMzSDekqSrxOw12d7aMCL4osR5h3TJd40t4oTSKDQTpteeodSWN923zv/6u/fzwKsrBl5wKVEWFaREGxqaECl6g72Ckc1blz3caoTF7UlaMW8jJIf4bUok081UdaRl6PpvzDbeO8R46lbYvN5QtwakwBcWZ/PN0DXOL0ZavuHwqnDXyT6eFi82C6PtI60caXV9L/k2y1HFnLQ0a7rPy8vbU+GTD0/YrRNhLqOsQmxrtN3Byy5nT3gefN0xzr16wEZvC289TktM6OTCESB3PkcRkrgcnbyAuN9BwgJQF9nabXn44S1+//e/wNe+3rAzXiFQ4PuAaxATQQ1O+xhTgjgUQ1Qlpqyw0dTC7rZy6ULD1UvXODy6TFX1Kcse1mZpny5AQEQJMWTJ3j2yyq/87ebzXV27QpePzKknQaPFSoFQ5W26JqyBqjKsrBsOHXFEd5RZDbs7Y2bTlqLsI8ZnTVzJ/X03CibzLNetDRHBWpdXvIB1lqgtzihWW6h3KVLN6159N+9713386nscq72C0hicKbESwGg2sjQ9rCtBmpwn66qH88+5FXEbklamgTnD5P6llLeJZEVLg8s3QRhTFiXWe6IatscNs1ZQPN57nM/yyVFjF2rT5VQ6wf59H6koiKGyLYdWDKdP9OjZNifAu0hrHikIBkmdldL82974yt0PczJegJ2p8qmHd9idJFJ0iJadL8GEnh1zbC3w4Ll13nD/Ec4cdXi2KBjg8EjXaG8MqEkkUZJmN2j2cVPujcpfIaWEdFFeHnmBSWv45rev8zef+A4f+YtvsDtZQ/waTQpdfiq3BmgwGCqsyY2hipJSJMVATOBsjxQLLlzc5vz5C6R4GV+tUPQrip4DabE2b/Y0ZWFAI7n6qrTdFps5teYouvvm2uWZ6XpPDZ14oQDkyplx2YNoWAinT4yo+ocwROrpdXbGu4ipSFqRqFAcYgFTg85wweaGfrprYzrVVUA7GXDbtW/MafVHjYWOKuCM0IaWlCLSjWmZBNLWuLDDPSdKfv6dr+YX33WIc6carBR5itAKiZDbZ2yJ6RoVhZjP5wu0PNxquA1Jq8vedgvXiuDEYvEY9d3NlLMfrulBDFgfKAfgK0ddK01jUQqKMjerttISunEhQ/bWc111CoWI0iqodViUlZ7h5LGC1V6glNyUaTTPzBgESZbU5E77vfYfId8MYjDGdiMtOU0+nrR8+uFr7F4HE0b07QjTCAO7zZkjM97yuor3vO0kd204hkbpMeyqlopYxXiFzpHHiOtyE0pUQ6uZhlOMnfa+0DZtHscwXfLdJL73ZI+/++QVPvIXX2bcjgimT90lrAtnaSc1plFW/IA6RUIKpBQQYtbpsmBsdsCJFqTyXK+VL/7jBTapcCuO4WGh169x3kJ0xKZA1GGNRcURdIcmNl2/UCIRiRLziI3kRtDpBKxEnE2ISdkkpHuJtRi1ODWUKgxVOHWk4fSRhvWVlvFsh2vbsD0ekMIGaB/YxfMsJZu4WYlJ3fbTl6gvSZqnBFDFOk/pPFYMIR0UNvzhkebr5KYvpTCBtt6BtiaZAuPWiLWFWc2a3+b97x7xyz/redM5S08H+SEu3SPAZOee+WMhH9bl1y3Q0nAz3IaktSA6zSo1ihqLmBJjesTkmM0C17d32Z00OOcoyl5uPk1dD0LKOSgRk8c+FJDsXlKYwKEhnD1VMCpD3gRqlv/N0VauhGkUzIIyWdd3Ax9/aJMQ+4happMZpZ+yOphw39keb3/zWU4e9vQsOCK263e6KUzujbKSdbdC29DUU6qez7paamhbx2xW8Ncf/yYf/7uv8q3HnqHVHi05YU1qsaXNIVuElIQ437XdBGKyaP/580/xzMXLaGN4zavO4YzFSMSaFuc7RxjIw7y2h5UKoegiZkdoE6ENpKSUpc2O3AvEJApM2paq3+foiePcdc8Ztne22draYjzZpSpLjMbOWbvPNApSlqg1tKFGJ9tZhqUQfOkwJFJqCfHl0Wpb5JzOEdoIroSyD6bI1nThOsfWWt71lpP80ntezbl7VlnrWYp9Wz4ORFEHCerg+1sRdyxpKZAkYKzDmAJr8uyaNY66mbG1vcnO7hhX9LNyhO3sFkPe5Zm9bUAXsguINRS0bAyUs6dKRlWggC6LLSC5Egb5BlyUtLbHyj98eUY9M2gKiE7o+V1ec0+PN772EOfuKVmroEghd8QvaEmd1SUyCdt5X5JErE8glkTBzo7hC194gr/8xL/ypUcusrWbkGJEFIumFrQm+Xn1zqHqSHbRzVF+ssfgmI0NW8+2PHvpOv1ewWhUMFgxWBMJMRCDdh6MHlFLnpi2uaCh0kUKEaTdS+I/PwJ5/ktxOOcoK2E0MoyGjn4BsZmys7mNUYfRPimWtHFGLAqMt3nbTAAnGFE0RUJbE9lLqh38ZX94LHpIJat4mBJjCwQl1dcYldu88b4+H3zfA7zl/gHHRwWVCHbfgX8QYb3Yz2413LGkhSjJRqwpsCJ4gcpB6SCmmvF0h51Jg0gfsT1EIDU5P5SL6zem2zHzHiNwGljvw9lTJatloBDpIq3O7JVOTiZ1UtELrIHdCXzha7C7O0PihH5Vc+xQ5K1vPMaD9w85ugqVRlxsMCjinvvkfDEYSRgCxGyKa2weJq7jOM8V1o7HH1c+9Ief5qGvXuHSlpJkgBT9fHPSAnXWoxeLMRVGqk7N4ua0lQlfGQ6OE+oeF8/v8vVHv4P3wnClYLRWUlU291alhFXbNcjO/RlyecGY7gFgEm2cIcznM28O6xwpRTRu0y9r7j69wbH1Po7I5rPXCI2hrU3OdfoIhSNZu2dg641AisSmyeMUrqvY3fzXf+lYjIe7/82krgpWG7S+wLmzws+//Ti/8p6jnFqDoYCLuQGbO4SwuLNJKyeZRRymuwmMQuUizrcYJ9TBMpkZZrWg0RPbGx3TZO/KvC00kuVsNOFSYH0gnD1VsFpFio6gcoMqXTK+I61uIPhmmMyEL3/LMNndQdIWaysz3vX2szx4bo3TR2BgEnGyTaEJcRbsYqQlMu8bK/aWe9TIzmQHcSOeOJ/4u7/9Nv/X732K680KbnAUUwwIakhG8wiMSxBDTlqbCut6ROpcrT14Nx18GQFfEoOnbRwaC0RKHn74ES5fvsJodcSZu05SVgXWJTTMSKnFWgfWIAKhTtnE1uQZ00jqFCwWIy3BkNoWm6asFYa+JA6v9zl9/CiHNw5z4cJFLly8QN1M4eSJ/L3bmlTXaEgQE9rludRVnZO4QV4OH60F1grkNUnRhzZAO6OUKQPzDL/+3nv4D7/4Ks5sKCMDtpHsneB/MGHdDnms/bhzSWtPYSGTFolu7zfFeCh6PYztM5slJuOGyawhxdxT5KzNSeqYtwKmU4MIMeBiy9pAuPtUwVoV8YCkrMeUtxR5pk4094EtshZ2p4kvPrpLPdtkbbXl/lcPefvbznDqiNC3YMIUE9rc62RtLlUvgL2tKtntJ7TKtAngVzj/TMt/+5tH+eM//ScuXy1o7ArBlEQcMUWwQtdkn9vlkyVpgSaHMnsJkRadllWu7M2mM6Bic7PmsceeZnN7jHjHYOgYDsF6yY7FHSkao11nSFawNabIPXYHP+xFIBicCGU3jG2MxUTBO8PRYyucPH0U6ydcePZ7TClzpj8ppe/T831CrcQgiCkpqn42Kw1xoev6UnGQ81/slRGpSkMhY1x9kf/4wTfxvned5v4zhnU3pQQkZaWNudwMHUHtx8H3twPuXNLqtnZKTrALdJKzDWINvsz9KW0TmdYNu9MG1YB1NmsUmSz5jGS9LmshtAGbAut9w92nC1Z7iUJyf08mrdT1aZFJSw522b8wxtPIV75+FSO7nD1d8KbXH+FVdw1Z8eBo0aahsN2NKgI294DdDBpz8lxMzgsFFVp1TGrLJz/9OH/xsYd56EvnqVbOMDMuRxDe539bupxYzEO4+KwblgTMYttDkE45LoHJ5x5jSVoxmQlbWzOe3dzi+u4uKi2j9YJef5QLIKkhtTXGd/1UKe/OrPVdY/ECkZ4AKTegggMtocn6/kVhGA4tvaFhOIhUVeLqjlJPd5AU6LmKXjkiBENoc8uD9b5rycjX+JWCoDhpKXSXw4OaN71myG+8734evLfH0X5DRd1p8+cIW19ge/hC728X3LmkJZKbH1NCJGFsAqtZJlhyct45sKK0MbE9TYTY5NEO68A54jzS6qRRUkiYGPe2h+v9SNE1JT6PtOj6tBZYGNM68I3vXmF1lHjNvSNed+4ww17EEfNTPQlFUZFjR5AFSSsGJYQsLNimSBTLpIFvPw5/9Cf/xGcfeoK67dE/cpxZyh5srqxwLvtzpxjQ2OTfoSuTo4DpIo2bvgwWh3WJJDXQUvQHxGRRqVApeHbzOk8+fZmdyYT+oGR1/XieaUyBdjqmdF1vyx5pzc/r85tmXxApdCN5Odpsm5w2sEVCZYqmCccOD3jVXceZ7jRIvYvWNSkI1g4J6mg157XU5IqniL60Ut+PGAalb6aU6RoPnK34nV99A29+zYATo5a+bXAomvJDhrkN3x1CWNzJpCWY3HcldDrnkYgQTUGiJHX+Dr2yxTjHJPWYTse0KZLEYF1J7HqcpBsk0ZSwKebt4emCtV7EzyMt09kz7ZHWvHR488URQuLK5oS7z65y9q4eqyuBnhXq2YzUCoPeMDc6Gs3btn3KDT8IKXpSdESpmYYZ49rw5NOJP/+Lr/HRj32N69ue0al72Am7qI3YwmKNx9sKDRDbFkKLsS7LAHWVBVmUMFTRqKTJBKynGKwQRREPaloikV5/ld2J5dLlHZ5++hpV7zBro3VWegXWRDRMEU0YMThX7g2aL0paIjGPRHV+j6a0RAlM6i0mk01G/SGjcshaNeC1rz7OqITZZMyFi1e5vDUj4LBlgS0NIhOcmWAkktKP/p4RyEWIg9x/4GUlsWKvc+8Jy8/91Gl+8/2nONJvKdMuNiaMHTCdRaIYxLkDgzm3N2FxJ5MWSLc1UpSWQEtNIpErhYbso1j5GvElM0qube4wntZENbiin1VPU7ZSMpK7ym0KrPYzaa339kVaZh5pzYd/c55rEdJCDLboc+hwweoq9KvYSa+UWNMnxm7UyGbNdXneMnxh5BxO3hmZAh574hk+/rdf5Y//5CE2d0ZodYToDVG3QULWFp+2pORydKIAivedJHE3EpRzdzeHACYpphiCVMQA2k5RO0WqlqJnSOpomh6zqWP7esPFC9cgRFZ6BYfXe8Q46cT/8i8RW4OaHDU/725+gZcRRbAkNdQJpqFG3QxfKUXhMLHExR49gVFvypHDawxXN6i1x8VrM6ZJSNbgCiWGLWLYJMUAsnLw1/2h8QJf/wVfRhKr5jof+PkH+cDP3c3ZwzC0M0pRDAVoLhgEmyXA/b71crsTFncCaR2siuy9ugipKwTm4Ry1WPHMVaZEE95mkUBXGEiB3cmM8TShqaJ0Hkl53AQC2IDRxOrAcva0Z22Q8JIgSac9r2SPGjBdPoEF1oiIUFaOYc/QLwRvTO7slhIruaydZZy7NgZpSVGBrOaQNBt1YDKhRE2AIYkhWEjG8uSFwN9+6jH+7C8f4ZuP1eA3kLIkSsgyu2ohGgiCzmV1pBuPMpk0096W6OBt9I4vDjEAABvBSURBVCIv7XQZbJHPfwx0Dho5IS6O0Fo0ejRWTKYFzzyzy7PXxkxmDdWgZLBaUFQW73KEaZIjmUgyXYc/2fVbU+zcs7NjTIgBZ3OUIZ3Mdu4ay2NEhfF4KRH1WHWZGEUZjUpW1/oMVyyqE1JoaKc1zUyJwaJUqPS6ampEpUEkYo3Dko8nYrA2oTIvWCwWGWuMWdTIunx9tatcOwhhAjIlyZheOeG33rXGB959N6+919GziiPkiqpk2zjpqq/CjSHoO4GwuBNIi+5iPP81J6y82C0ej6PLzGBUs9MPjsJERuWMldUeO+OG69cD07FjUPSw2cSHoDOkDIjCaOC467RjbZhy3ikpIj7P/pHQaDCaRQcXIS0jUNpEaQUvFqs+jyVlIZY8JtPN2hkiyITUAprL7zm+g2QCSiDFRFJDI2NqM2MWKv7b313iw3/+Lb7w0GWq9TNEAyoh6+RTQCxQLXKS3+RGTpWEdppfmlns3/RKGqBz6xGxSCqg9aTGZq1/UbAVsEocCxefusZ3L20ybmqOnFxnOCqoKodHQDwikShN3v4nJbUtEhPOOVBlVteEGCiKIke8HelboxTW4sRnUUjy/KRYRY0QW5fVaYcNZ07CySMWF2ZMtmZsPhsJ7Rpij4JbAdOgpgadIhKpfIWkHilkKzhfgrKTL7AuloPUkHIPmnV77TfOWZyFptkEcx1f7XDmZOJ//1/ewOvPekqJSEqoOlR8NjU2+YFtEVzXJH2nEBZ3Cmn9sMjeeIkmOcSPUKnY2Z4xGyeMlIiFOrQkYzAJVvuGsycdG8NEIdme3hifZ+C6WS6jncHlgmvloAzyiyMhBIztEZMhRoP1YI2S4owUG0pfMJ3UtEloUsW1Tct/+k8f5l+/cZnRxt1sbdeoCK4s8d5Tz5o8WP0yLOxFj2htTo5LJaxsjJhNdnjkK1/lwvmLHD9yilPHjlMWWU5bXItqw2xaExvwZoDzVfc4crjC40tHos3jWAt8CxGwTtgeX2My20Gc4+jxY2wcPkXVHzCeTtjZ3aRtruO8MFw7TF1Ps7SxEQbDIdPpmLC7SWqmFIMhMQk6n5ZYBFqSYiS0Y6RMuDLbdaVW8Joo5Trn7h3wG+9/Az/9qhV6Ra5QS1cskrm44stwHW8lLEkLEHIkk6yj6BmM88ymLeOd3e4pbfNYiy2xqqz1ldMnPIeGkUJSNyztOtLKBhF2r3p48NNeGIuSlqIkjRgp803auQqp1oi0GFFCG3G2oE49vv29XT70oU/xz/9ynqvXDE3s4coBxhXElGjqJit2ymJ5speKBX/9PJ5jp3gPbTNDo6Fwq1y5NOPJ713m2taUjcOH8H0LZoYQcKbEmQpNjtgKKXYRpya0MxmxnZ3bzaCaaOMOxihlUVL6ikIcZQ9WRhVHjvTo95Q422Q6mzDTilDXUJRYVzCdjtF2DJWBytPWEeh1RZPFigaoz4lE16A+5laVaKGOuLjL6+/t8UvvPMn7f+Y0JwcGPyeqbhB/SVo/RhAUSQmMw1jBOBAMzXRKaAMxCeJ7JJPzA6Ne5NQxw6GVRCl0fWCZtOb1RtMRygL3y0uEElOibRUwOCcYicQ0yUlnEZom4eyAJy60/MPnvs+f/Oknub7do4lD2lRRVEOCJkIIEGP2OHyZFvqiRxUJGGaotITQIlLi3RqTccGFi9e5/OwmdaypRj2GPUvP52Fqb4ssL9T5QmI05+kkZf/HBSMtJKKMKXyJdz0ET0wtzgZWVuDokYq1gcPrjPF0yoWtCaJC6XsYPLENuX+tyIP1GgzWDREBJRz8tBeBQRxIKWCVFECblkIbTo4Cv/zOU7zvHcd4wxlH2f1e+4lqSVo/Togpe+Q5S6sJY7IpqEWYjKfM6oQpBkQBk4SVquXkUeHwSqI0ZBMLzbkROmML0dxV/1JwIx/34q9E9qgdj6c4YykKB7TEMO2kRzwhFEymhs98/kk+8rFHefiRC2CP4MpDWD+k1URTz7KqnvMQ9w29/Yix6CFzlS/StjNc4UhYZrUwGJ4ipoKLl6/yyL9+nWo05NDqkLXBADE+99maGrE14mrEJrJntsWa+a19c4goziREKoglqRVCPcXIhMo3rFXC4fUBR1cz4X/34gW8WDQ4SCW+GoBTUmzQFPFVD+/7QCSlxUhLbMQWgvPZhUknM2jHbAxmvPtNG/zGL7yKnzw3ZMVu5fxj99vlAfJs1jEnsjsZS9Ki641JebfVtBOQwEpVsFIVtLPEeBKYNIYWj9HAsGo5cVg5PFJ6TvZICzuPtLIY4UJ3y0uFSNeKAd47nBVUW6wTmijMQoEr+3z2n77Hh//qK/z3f3oKXx4lpBV8tUbRH7KzvQmpBe8oipLY0iXfD37YD49FDylYrFQUpaduZ1lhwnpUPFEFcSXGV3znsfM8/eR5DIYHXn8arCHJDthdvG1JJveVOdPLOmddJH1TSGbttnXEJgvqVUWBdwkrLYaWXlFxeG3AsRPHWD8x4vFvfJPJdoNohaFH3TT4wuMrT1PPsr6YJnTROUU3BZPQ6Em7CqFm1NvlgXsS/9v/9JM8+CrPup3gQyDZEjE5pzVXJMm/QT7jdzJxLUmL/JQSsQRtEaMULo8Y95xF1NO0iavbYxpANDKslGOHlSMjpe8NtusDkq5T/N9CWgcjqhd7IYIagzOdOiuhGyQ2RNNne+J59FtjPvJXD/GPX7zApctKE0p6K0dQ4xnXE1KaYXp5VCnUEed63ajHgrmXl4DFT4HNFT1rCKnJrQIuu83EmP0JW4W6FrY3t7l06SqXnq3ZOLJOf8VjbKKJU5wpQF2u4iXXRSE3J40c5xlIHivgTOcql4NnjLE4PM5aehUcPjzi+MYGJsHW5hbPXr2aCat0iEAIAdWYOx4OeE++GNTO8hRCrVg19GSLN53r8Vu/ci8/9YY+xwaBShO0jlQUcGA7mCOt557zO5G8lqS1R1pCnVqcB4/gSBRSUDhDxHFtd0yTGlKCfmk4thE5uiYMvM2kFSVHWv9G0nqpcDarkWrK85LTVhk3Bd97espHP/4wn/z0t3jiQiTqCLTA9FdoUyQ0u2ADvudz4+ws4osBKnOd/R8tFj0Fc7OSpm1yUSCXRFFtQdocCaqQkmNat1y5us3jT14AMVTVgOFghLNlHl1J2SzXYDAm97fdHEJSl3vsTJ5Lz1/egFpSmusMJUpvOdSHu46v0O/1SDpjZ3KdWVt3Q/YFRdGjbSKpU4hYBEoLXd9sT6ecO2t57zuO8f6fPc2J1Rl9E7HJQ+qTivwAyw+z/NXy5vD55/xOI64laQGQ1TibmLA24URzFKNQeYf12R503I5pWkPhLEc3IsfWDH1vMWqIUbKV2b8Tacm8qZKEcZatScP5yzVf+PJ5fv+PPsPj5yOBVcrBIUw1pJnNSNqSVQtnWdE1aae1VXRGs68caTkvGJ+IO2OwQ3D9HKWEXWwFVS+PZcVZi5R9gulx5fIO//LPX0dDxfEjr+LEkQH1xOGMoV8arG3z6NEi36IbUYqpQakxNnaRrUGjpWmFRMS4QCFK2Tp6Du66p8fZe0/gevCdxx/n+k6DtSPWVk8x2Q1oys25i0BbwVjPWg8qfYbf/OX7ed87T3HXkYZVH7MGfCoR51A7P+YNqpoT1sFPW5LWHYiEMFeeQlusxjyzqAbU4wooVwuu7s7YHWcj1qMbgWMbhkHRRVpJcvVQNFesXibSSpoIKWan5pRVP9uUcNWIf/rit/nwX36eLz96FfWnqPqH8UVJCIlkc0UKE8AntJll01NbEVvJozELbKNeKhY9BYkpiTH91WO0oQczA0koVktSGtNOrhEnO/hej+RKIiViBmhbcuXiLhefuIqNq9x1aoXVFYeYGmWbzNILRDqSr7+YgDUNRtpc+Ys+97R7g/GOKBNsSMisxJmGRq9Db8qxu4+yfvQMk1nB009P2L7cIHaEcTbbJS0AWxwm1g0mPMsHfv4efuGnT/DA3QVrVYM2NU76IBVNkKyRte8f9hGW7Guh2Usr3EH4sSKt/RfwYK5IJOcEcte57ayUuv4lEUoPw0IgTJG0y2ovcOrwOoOyynK2mtUksiywdB56LwGaR1Gipj1J39ym2t342lUmgWByngV1iJSEUPDlh6/w0b9+mH/43HmmehrMMaI4JNVd9Wqvbz7PLsY8lGiMyz9/mRLxz7mTftALuiH3Iut5ZTui7DIUFI0WKDG2n8eUYoBkcX6VWW24ujXhqYuXScZS9guGqx7n5vI1Alg0WFLoKm5WEWlRCd2guyLkirHkYZosx4OdX86cH0MQLRDNzs5tjBTGcmSlz/H1Pisu4dKYyc41TDshpZLEEGiwvsbagAik4NCQu/WNaUnpGr65zInBNm891+ODv/hq3vjqiqMrDQWTbGGvHqXIbTmGTjpo32mcj2PuW+P7/32n4MeKtOZ4IcKaN5hayZOJef4uG1sIikc5NHCkMCXFCT0nnDx6hJ6XbrGEbvHsJRi6d4ssGN1HWnmkJN9oGaKKpAgxiyBH0wn1iaVu4KmnAn/64Yf41Gee5PwFA73TQAWpQdO0I6qusqmCJJPHPbpcSx4q5wZ7vAIQLKKOGGM+lyYikltRSBaREjFVbgUgZL14LLZYQfFsT2qeOH+eK5uXiNoyWOmxtrGRyan7BPLAQlaf0LQ3qzn3zMyDQqaz0dpHWF06S3JnHEksTReZGRyVMQwsHBoYDq961gYCcUqcXWc689Shh/ctzuVeshiEFHynKBtR3QXd5rC9zJvuKfjFd97Le956gpMbQiUTCFMKV0LyqPosnS2a10VXKNi/0g6u7zsNP5akdTP8oAtdp5wkrkrD4fUVnLtxE1hjcxdz54C8GGF1N1KKqJBtsJ6jf65AJLYNsWlyo6v1NKFBRbhwZYe//sS/8F/+6DNcvFJSDs/Sbo+haMCExcr9XZzxypLWwmcLV0JROJyvCG3Kno4KGloufue7fP/8ReqpcM/d99PveYwTkCnOzrAuEkKgmQqiFVZ8vt6SOqfum38LJZKkxTuD9wZjlRgbMMLKsODQ0VVW146gqWXz+i7bOzsMBxWqntnMEet8rgejEtKEON6k9J433tPjZ952D+/6yddwzynoGUFDvu5lMcC4PglL02h2JNr3Vfev2R+0fu8ELEnrRbA/tN6/CExRUPYrSi+M+iVGs1he9hS0eR9BfiwvunQUiCFk5YO5nRZ6Izqa28gbISWhnhmKynP5+i6ffeib/N6HPsWlaxtETpMYEV2iqMYYE9G0QD7nNiOtWI9JmlhZWc1Ch3WNRqU/GJFsyXisPPnUNo9+7QobhzYoe5ZkJlBskXSGFU9hVrAKsYHQxKxN74qFbniVlii7hNB2Bq4WK3Q6Y4IvDBsbjtVhyWilRGh58nuP07SeprGgDjcaYGSK0V0KUzOw8JvvvZtfeMfd3HPaM/BQCBTGUrgCkQLEExOEGHHuuevyxf58J2JJWh0OktP8Zwf/u3EG5/LcV1l0foCdSJ2RG47EwnOfhDdDChFjsyRM7BQRur0MQlcTEEFVSNFQJ8tnv/BNPvrxr/LQVzaR4j4i6zRtQhjj7BgQ0qIKA7cRaalqdgcSS0p5ayvGYJ1DjKeNjt0d5cmLO9SzXep2hisMo7VsJeekxJkekhsaMGKwZnGXI5WAMqNtI8SsICLGdQazLSKRvnesDC2HVnusrZQ4k9jenbIza0nGUg0KnI4x4RrrvZp3v/U+fu09x3nd3X16ToizGYUxWXwRT0pk41gDYgXbKTnMcXCt3slYktYBHLzgz3+fE7LOgs2OCzmnIAYx2bpdtVNMZXEeiCllVU5NxDS3jif7BnbW8LHTOlcsX//2JT7y11/h7z/zJDvNSUx5gjYZYhijaRerLWBJsti1vZ1Iy9oSwVJPa0QEX1ishSbUYB3WVyRTkMYN5y89w9b2DiqWtdU1hv0VyqKHNYIxWQs/J7Y7z7BFIBEIxGiRWCDJd8kAQVOLpgYrgWFp2Bj1OHpoyNFjK2yNtxjPJtSxxQpovcmo2OWBu3v8zgffwtvuLzg0aNBmijY1hXGdnpoQU36E0TlDZYO7fV9pSVo/3jh40Z/7PmUJXyG3NoggZj682tmOpdyg+FJmD2PMfUFKIsWAd/mYUWHWBBKeNhqSONpk+D//77/hE588z8Ura4wOvZ6dyZQUdsBO8wxdmwlLFzR2vZ1IqyhW0ORJO9skKxRFnkZoZtskSZSDit6oT1s6mknL0+ev8cT3r6Ghz5lTd7O+XlJ4AzLGmBzNagL2tuY3QVe1K9wIowUpCLEF5wzGWiyJUM8wmiidsDp0nDxVsXKopA47PHv5EtPtMeNnn+T+u/r8xgce4Ffee4SNYoppdzFEVgZDNAltE4kxZf/GrmBgjEEOqIIsSWuJ5134+fYwhTxS4q3rWCn//7K6KJ1iXsq5qZewdrSTmBESaMQ5S1IhRsllblegYnn64oy//4dH+f/+7Ms8/UwP486ibgV1DUl2QWr6VR8jK2AcaUEt9duJtNpWs7JnUWCM0LYNoa0x3tIfVohVxrNddOtZitExCr/KeFf5xte+z+VLW1jb49jxEWVVMKnHBA1Zu2phs4qU2zGoIOa585TAewAlhJa2bvGmxIkBWtRM8WXg6JFVjqytcPmJJzh35hC/9DPneN+772F9sEtPI14NRhzWlah27b7G4Hz23YSU2x0OnK0laS0BL3bxY8wtTdZlfpKccU9z0tLUzQPO2xZe4BgHIN0xTCdGqBqz5G7KoyVZTRQuX4XP//N3+cP/9/N8+7szdsZDIiv4qiLqLolZVhWIFqGfVUcXbGy8nUhLU25I8oWDpKSQ1WOt9WhUZnUDTZtncfyIGA3NLDDdnrG1NeH61pjxOFL2+xSVx/UETMSqW+hbKBFNDSSbB+U7syLrIcSG0LZoFAo/QKzBSERMoCwta4M+R0YrHF3p8+ZzJ3nb609x/919PLuUUmSdNLFot10Va7KFnZNOo1+7qP7Hl7Tk+s6ujoaDgz9fYh/2C/RJDDmscp4QFe3cYVLKeS5ii6QW603Xjb3YliN1ffkpBVII+MIToyWoJwnszOCLX3qKD//5Q/zBHz5CuXKaJvRR02NlY51p2CJRZ1WBGeBWs+mp1Ac/6gWR9d9fucX+UkgrpQRi8K5AW80yxaoYa2nCDLQFJ8igzA2cbQupoTRKmuzSdy33nh3xa7/2Jn7m509y72s8q8PISlpd8Fs0wJgYsmO2mCLPKhJo2imhCRgtKYt+V0xuQCJRhDoY2uBIydDOoCpg2IcYpjlXJ4aoiUSWwt7/bTRp9p2ky8Htw5K0lnge9sYitMuIiqUNkSQWuiKis0CqManNvUHMJYB/MHKyPSCa0BTz9tOXQElImbC+/b0xf/rhv+SvPv4dHnv8DKZf0R/2sN4ya2fZsiEqisGWFXHS5N6jxYqHtxdpad1t0SoKetjokJRNPmxhiZKoY02oJ1AZpEh4abChxs4cMhOstqwMd/jZX1rjP/z2vfziO+9noCvIAltEIw3ImBQMmDL35qFA6EomDrQi5dYtxOTIK5u+JsREXKGIMdmIQi2EbkjB5GbWqKnrs8ttLzElnPjOhFU6+5QbWJLWEi+OvahLUNW8PZz/RObbw9QtnMWGdTVBM4HCd21eRFrdJVplEjxPXRL+nz94iE9/5im+80TDOA3BGqy1eYGnnLfKxCpkrZrY/fnmnw+8hHzOrYA8KYqYrpM+O//M847ZjCOhKeB8wts8tRBmLUYNRgVNM+r6MmfurnjrT97D+37hDfzme8/Sc2A14LQm1RPQlM1rywFQUAcQEoUPndlHLsZk3FgbdJpn+V3aqyrn3KciJqvMgnT9LN0lmP+om8SYHzf/PckjWNr9rPuv/BgQ1X4sSesWgCZIM7CdB0LSQLA10Ri+d2GXT332+/zBhx7hscc9u3WPtooHD/EimN8Fdxpyxe/mUEix02m3aJ2wrqAoLNAw3bmMlIETJzZ48xvP8Du/fII3vfYsp49WDJyS6k2cSdjCgS8JwRBwiDGUeyoLPxiLav/zY0Y8PwyWpHWroJuLi6mljQ22rNieWD79j9/hP//e3/Po11vG40ME06cpFstTZdyJN8LiRJDqFlIeDicZKPuUvQJnlclkE222wScOrVveeFfggx/4Gd7xtge455TQ81AVAfERJDFrGsQXOFNgF9j2syStlwVL0rplEGnbCSoR60pmoccXHjrPn/7XL/BfPvQ5No48SEgrNLEguvLgX/4BWPymuX2w+M09c2OUmBNGySKupChKCiek1DCdXSfNdiDsMDSbnDo+5L3v+Ql+9zd/jp94MCufGtNQlJC6nBVYLNXBj3pBLEnrR48lad0CUE007YyoEyItbYTNLc//8Z//ho9+9GHOPw223MiSyuqJuuj10k78/g6DLpYrBNCVCSohp8E0KzfM83fOQtKW1ExgNoYwpj80nDxW8fr7j/LBX/1p3v3O13LmzAgxNZPpDsYJhasoZNFrsMSPGkvSugWQNFHXM4KOSdLSJnjqqRkf++tHeeSRTVJap4kRKSJihBgXLAmS7lDS6obSF4AZBKIGYgRvSwRHDIkUIoWzWGcIoaGuZ6AG0RneTjm8Jrz77a/lHW9/HWfvOoS1Lbvjbby3lL7Cy2KR1hI/eixJ6xaAqtK2kSbsgEuotTz2+DXQo6Q0ZDKBNjaUg4QrIiE2Bw/xIsid23cc1C7c/yYihBBJCXplH+9KYkjENmAlD1mnGGlDQMseO9u7eNuwPioYlMqwbxj2Pb3S0zQ11lqczWKBS7wyWJLWrYBc5CLR0qaGOgUSJcZWiMmNqzGCNYqxnarnQli0yna7YfGqqAGaekbbhuwaXRTZcivR9YYJMSZCUmLpUIW2CbT1hLIwVIXHd6avxgihya0IRbkYaS7xo8eStG4VdGP8AYgI6oQmtMQUMAKVK4htRFUoigW3h3ciX82xGGdhJBBCTdu2WGMoCo99jtlFnsFKSYnGYYxBU6QNDTFFCl9ijSMFZTppKHxFUWQX8iVeGSxJ61aAJminIBWIJUrWgW/iDilNsQI9NyLVBZoMxUspHv64o2u+jTF3lzuXJYRyEJodl0idM1FKiLdZ7UGVEALWesRYYoDpeEZV9XGLT2ct8TJgSVq3ADQF2skmRbEKpqCN0Ipi/AQnTdZqSn2I3WC7WzS5Pu+evsMgdI1tN0PeRqZ9GmfP6SpIkEIiJUU0YWOAwnVOrfO/f+M4e1h8d7rEy4Alad0SUDTFzmgiD28odPK9c2MGc2PUZnnD/GjQEbqSI649JyU4wG5L3EpYBrm3BKQzxOi05buRwewMk0dQ8n9YEtaPFN35FJG8Zcy+XEvCusWxJK0llljitsKStJZYYonbCkvSWmKJJW4rLElriSWWuK2wJK0llljitsKStJZYYonbCkvSWmKJJW4rLElriSWWuK2wJK0llljitsKStJZYYonbCkvSWmKJJW4rLElriSWWuK2wJK0llljitsL/D1eKXKwaprsFAAAAAElFTkSuQmCC;" parent="1" vertex="1">
          <mxGeometry x="1460" y="225.5" width="41" height="40.59" as="geometry" />
        </mxCell>
        <mxCell id="e53sIIh-dQqDBN9aHjkJ-52" value="&lt;font style=&quot;font-size: 20px; color: rgb(51, 51, 51);&quot;&gt;Kubeflow Pipeline&lt;/font&gt;" style="text;html=1;align=center;verticalAlign=middle;whiteSpace=wrap;rounded=0;fontSize=16;" parent="1" vertex="1">
          <mxGeometry x="1501" y="230.79" width="190" height="30" as="geometry" />
        </mxCell>
        <mxCell id="e53sIIh-dQqDBN9aHjkJ-55" value="&lt;font style=&quot;font-size: 20px; color: rgb(51, 51, 51);&quot;&gt;Batch Data&lt;/font&gt;" style="text;html=1;align=center;verticalAlign=middle;whiteSpace=wrap;rounded=0;fontSize=17;fontColor=#666666;" parent="1" vertex="1">
          <mxGeometry x="-590" y="130.5" width="253.6" height="30" as="geometry" />
        </mxCell>
        <mxCell id="e53sIIh-dQqDBN9aHjkJ-59" style="edgeStyle=orthogonalEdgeStyle;rounded=1;orthogonalLoop=1;jettySize=auto;html=1;exitX=1;exitY=0.5;exitDx=0;exitDy=0;curved=0;entryX=0.021;entryY=0.552;entryDx=0;entryDy=0;entryPerimeter=0;" parent="1" source="e53sIIh-dQqDBN9aHjkJ-7" target="e53sIIh-dQqDBN9aHjkJ-26" edge="1">
          <mxGeometry relative="1" as="geometry">
            <mxPoint x="930" y="170" as="targetPoint" />
            <Array as="points">
              <mxPoint x="850" y="141" />
              <mxPoint x="850" y="171" />
            </Array>
          </mxGeometry>
        </mxCell>
        <mxCell id="e53sIIh-dQqDBN9aHjkJ-61" style="edgeStyle=orthogonalEdgeStyle;rounded=0;orthogonalLoop=1;jettySize=auto;html=1;entryX=0;entryY=0.5;entryDx=0;entryDy=0;exitX=1;exitY=0.5;exitDx=0;exitDy=0;" parent="1" source="e53sIIh-dQqDBN9aHjkJ-30" target="e53sIIh-dQqDBN9aHjkJ-37" edge="1">
          <mxGeometry relative="1" as="geometry">
            <mxPoint x="1290" y="165" as="sourcePoint" />
          </mxGeometry>
        </mxCell>
        <mxCell id="e53sIIh-dQqDBN9aHjkJ-63" style="edgeStyle=orthogonalEdgeStyle;rounded=0;orthogonalLoop=1;jettySize=auto;html=1;exitX=1;exitY=0.5;exitDx=0;exitDy=0;entryX=0;entryY=0.5;entryDx=0;entryDy=0;" parent="1" source="e53sIIh-dQqDBN9aHjkJ-41" target="e53sIIh-dQqDBN9aHjkJ-44" edge="1">
          <mxGeometry relative="1" as="geometry" />
        </mxCell>
        <mxCell id="e53sIIh-dQqDBN9aHjkJ-71" value="" style="rounded=1;whiteSpace=wrap;html=1;dashed=1;fillColor=#eeeeee;strokeColor=#36393d;" parent="1" vertex="1">
          <mxGeometry x="-590" y="320" width="1130" height="270" as="geometry" />
        </mxCell>
        <mxCell id="e53sIIh-dQqDBN9aHjkJ-84" style="edgeStyle=orthogonalEdgeStyle;rounded=0;orthogonalLoop=1;jettySize=auto;html=1;exitX=1;exitY=0.5;exitDx=0;exitDy=0;entryX=0;entryY=0.5;entryDx=0;entryDy=0;" parent="1" source="e53sIIh-dQqDBN9aHjkJ-70" target="e53sIIh-dQqDBN9aHjkJ-74" edge="1">
          <mxGeometry relative="1" as="geometry" />
        </mxCell>
        <mxCell id="e53sIIh-dQqDBN9aHjkJ-70" value="&lt;font style=&quot;font-size: 18px; color: rgb(51, 51, 51);&quot;&gt;&lt;b&gt;Streaming Data Source&lt;/b&gt;&lt;/font&gt;" style="rounded=1;whiteSpace=wrap;html=1;dashed=1;" parent="1" vertex="1">
          <mxGeometry x="-350" y="380" width="150" height="150" as="geometry" />
        </mxCell>
        <mxCell id="e53sIIh-dQqDBN9aHjkJ-73" value="&lt;font style=&quot;font-size: 20px; color: rgb(51, 51, 51);&quot;&gt;Streaming Data&lt;/font&gt;" style="text;html=1;align=center;verticalAlign=middle;whiteSpace=wrap;rounded=0;fontSize=17;fontColor=#666666;" parent="1" vertex="1">
          <mxGeometry x="-600" y="444" width="253.6" height="30" as="geometry" />
        </mxCell>
        <mxCell id="e53sIIh-dQqDBN9aHjkJ-81" value="" style="group" parent="1" vertex="1" connectable="0">
          <mxGeometry x="36.6" y="340" width="183.4" height="230" as="geometry" />
        </mxCell>
        <mxCell id="e53sIIh-dQqDBN9aHjkJ-74" value="" style="rounded=1;whiteSpace=wrap;html=1;dashed=1;spacing=2;" parent="e53sIIh-dQqDBN9aHjkJ-81" vertex="1">
          <mxGeometry width="183.4" height="230" as="geometry" />
        </mxCell>
        <mxCell id="MBSqLJU8_XcgEEYuNx-6-43" value="Pub/Sub" style="sketch=0;html=1;verticalAlign=top;labelPosition=center;verticalLabelPosition=bottom;align=center;spacingTop=-6;fontSize=20;fontStyle=1;fontColor=#333333;shape=image;aspect=fixed;imageAspect=0;image=data:image/svg+xml,PHN2ZyB4bWxucz0iaHR0cDovL3d3dy53My5vcmcvMjAwMC9zdmciIHhtbG5zOnY9Imh0dHBzOi8vdmVjdGEuaW8vbmFubyIgd2lkdGg9IjE4LjMxOTk5OTY5NDgyNDIyIiBoZWlnaHQ9IjIwLjAwMDAwMTkwNzM0ODYzMyIgdmlld0JveD0iMCAwIDE4LjMxOTk5OTY5NDgyNDIyIDIwLjAwMDAwMTkwNzM0ODYzMyI+JiN4YTsJPHN0eWxlIHR5cGU9InRleHQvY3NzIj4mI3hhOwkuc3Qwe2ZpbGw6IzY2OWRmNjt9JiN4YTsJLnN0MXtmaWxsOiM0Mjg1ZjQ7fSYjeGE7CS5zdDJ7ZmlsbDojYWVjYmZhO30mI3hhOwk8L3N0eWxlPiYjeGE7CTxkZWZzPiYjeGE7CQk8ZmlsdGVyIGlkPSJBIiB4PSI0LjY0IiB5PSI0LjE5IiB3aWR0aD0iMTQuNzMiIGhlaWdodD0iMTIuNzYiIGZpbHRlclVuaXRzPSJ1c2VyU3BhY2VPblVzZSIgY29sb3ItaW50ZXJwb2xhdGlvbi1maWx0ZXJzPSJzUkdCIj4mI3hhOwkJCTxmZUZsb29kIGZsb29kLWNvbG9yPSIjZmZmIi8+JiN4YTsJCQk8ZmVCbGVuZCBpbj0iU291cmNlR3JhcGhpYyIvPiYjeGE7CQk8L2ZpbHRlcj4mI3hhOwkJPG1hc2sgaWQ9IkIiIHg9IjQuNjQiIHk9IjQuMTkiIHdpZHRoPSIxNC43MyIgaGVpZ2h0PSIxMi43NiIgbWFza1VuaXRzPSJ1c2VyU3BhY2VPblVzZSI+JiN4YTsJCQk8Y2lyY2xlIGN4PSIxMiIgY3k9IjEyLjIzIiByPSIzLjU4IiBmaWx0ZXI9InVybCgjQSkiLz4mI3hhOwkJPC9tYXNrPiYjeGE7CTwvZGVmcz4mI3hhOwk8ZyBjbGFzcz0ic3QwIj4mI3hhOwkJPGNpcmNsZSBjeD0iMTYuMTMiIGN5PSI2LjIxIiByPSIxLjcyIi8+JiN4YTsJCTxjaXJjbGUgY3g9IjIuMTkiIGN5PSI2LjIxIiByPSIxLjcyIi8+JiN4YTsJCTxjaXJjbGUgY3g9IjkuMTYiIGN5PSIxOC4yOCIgcj0iMS43MiIvPiYjeGE7CTwvZz4mI3hhOwk8ZyBtYXNrPSJ1cmwoI0IpIiB0cmFuc2Zvcm09InRyYW5zbGF0ZSgtMi44NCAtMikiPiYjeGE7CQk8cGF0aCB0cmFuc2Zvcm09Im1hdHJpeCguNSAtLjg3IC44NyAuNSAtNC41OSAyMC41MykiIGQ9Ik0xNC42OSAxMC4yMmgxLjU5djguMDRoLTEuNTl6IiBjbGFzcz0ic3QxIi8+JiN4YTsJCTxwYXRoIHRyYW5zZm9ybT0icm90YXRlKDMzMCA4LjUyMyAxNC4yNDQpIiBkPSJNNC40OSAxMy40NWg4LjA0djEuNTlINC40OXoiIGNsYXNzPSJzdDEiLz4mI3hhOwkJPHBhdGggZD0iTTExLjIgNC4xOWgxLjU5djguMDRIMTEuMnoiIGNsYXNzPSJzdDEiLz4mI3hhOwk8L2c+JiN4YTsJPGcgY2xhc3M9InN0MiI+JiN4YTsJCTxjaXJjbGUgY3g9IjkuMTYiIGN5PSIxMC4yMyIgcj0iMi43OCIvPiYjeGE7CQk8Y2lyY2xlIGN4PSIyLjE5IiBjeT0iMTQuMjUiIHI9IjIuMTkiLz4mI3hhOwkJPGNpcmNsZSBjeD0iMTYuMTMiIGN5PSIxNC4yNSIgcj0iMi4xOSIvPiYjeGE7CQk8Y2lyY2xlIGN4PSI5LjE2IiBjeT0iMi4xOSIgcj0iMi4xOSIvPiYjeGE7CTwvZz4mI3hhOzwvc3ZnPg==;" parent="e53sIIh-dQqDBN9aHjkJ-81" vertex="1">
          <mxGeometry x="55.510000000000005" y="70" width="72.38" height="80" as="geometry" />
        </mxCell>
        <mxCell id="e53sIIh-dQqDBN9aHjkJ-82" value="" style="group" parent="1" vertex="1" connectable="0">
          <mxGeometry x="279.99" y="320" width="256.61" height="245" as="geometry" />
        </mxCell>
        <mxCell id="e53sIIh-dQqDBN9aHjkJ-79" value="" style="rounded=1;whiteSpace=wrap;html=1;dashed=1;" parent="e53sIIh-dQqDBN9aHjkJ-82" vertex="1">
          <mxGeometry y="25" width="200" height="220" as="geometry" />
        </mxCell>
        <mxCell id="e53sIIh-dQqDBN9aHjkJ-80" value="&lt;font style=&quot;color: rgb(51, 51, 51);&quot;&gt;Dataflow&lt;/font&gt;" style="sketch=0;html=1;verticalAlign=top;labelPosition=center;verticalLabelPosition=bottom;align=center;spacingTop=-6;fontSize=20;fontStyle=1;fontColor=#999999;shape=image;aspect=fixed;imageAspect=0;image=data:image/svg+xml,PHN2ZyB4bWxucz0iaHR0cDovL3d3dy53My5vcmcvMjAwMC9zdmciIHhtbG5zOnY9Imh0dHBzOi8vdmVjdGEuaW8vbmFubyIgd2lkdGg9IjE0LjUxOTk5OTUwNDA4OTM1NSIgaGVpZ2h0PSIyMCIgdmlld0JveD0iMCAwIDE0LjUxOTk5OTUwNDA4OTM1NSAyMCI+JiN4YTsJPHN0eWxlIHR5cGU9InRleHQvY3NzIj4mI3hhOwkuc3Qwe2ZpbGwtcnVsZTpldmVub2RkfSYjeGE7CS5zdDF7ZmlsbDojNjY5ZGY2O30mI3hhOwkuc3Qye2ZpbGw6I2FlY2JmYTt9JiN4YTsJLnN0M3tmaWxsOiM0Mjg1ZjQ7fSYjeGE7CTwvc3R5bGU+JiN4YTsJPGcgY2xhc3M9InN0MCI+JiN4YTsJCTxwYXRoIGNsYXNzPSJzdDEiIGQ9Ik03LjM3IDIuMDNsLTEuNzIuOTYgMS41MiAxLjUtLjAyIDEuNzMgMS4wMi4wMS4wMi0xLjczIDQuMjQgMi41Ni0uMDEgMS4wNyAxLjc3LjAzVjYuMTFMOS4wNSAzLjA0bC0uMjctLjk0eiIvPiYjeGE7CQk8cGF0aCBjbGFzcz0ic3QyIiBkPSJNNy4zNiAyLjAzbC0xLjQyLjM1LS4yOS42MUwuMzkgNS45Mi4zNiA3Ljk3IDIuMTQgOGwuMDItMS4wNyA0LjMxLTIuNDUtLjAyIDEuNzMuODYuMDEuMDYtNC4xOXoiLz4mI3hhOwkJPGcgY2xhc3M9InN0MSI+JiN4YTsJCQk8cGF0aCBkPSJNNy4zNiAyLjAzTDMuOTUgMCAyLjIxLjk1bDMuNDQgMi4wNCAxLjcyLS45NnptLjcxIDExLjc2bC0xLjcyLS4wMi0uMDIgMS43Mi44MiAyLjQ4IDEuNDItLjEyLjI5LS44NSA1LjI3LTIuOTMuMDMtMi4wOS0xLjc5LS4wMi0uMDIgMS4xLTQuMyAyLjQ1eiIvPiYjeGE7CQkJPHBhdGggZD0iTTcuMTUgMTcuOTdsLTMuNDYgMS45NGgtLjA1bC0xLjY2LS45OSAzLjQ5LTEuOTYgMS42OCAxLjAxeiIvPiYjeGE7CQk8L2c+JiN4YTsJCTxwYXRoIGNsYXNzPSJzdDMiIGQ9Ik0xMC44OC4wOWgtLjA1TDcuMzcgMi4wM2wxLjY4IDEuMDEgMy40OS0xLjk2ek0xMC42MiAyMGgtLjA1bC0zLjQyLTIuMDNoMCAwIDBsMS43Mi0uOTYgMy40NCAyLjA0eiIvPiYjeGE7CQk8cGF0aCBjbGFzcz0ic3QyIiBkPSJNLjMzIDEzLjg5di0yaDEuNzZsLS4wMSAxLjA0IDQuMjUgMi41Ni4wMi0xLjcyLjg2LjAxLS4wNiA0LjE4LTEuNjgtMXoiLz4mI3hhOwk8L2c+JiN4YTsJPGNpcmNsZSBjbGFzcz0ic3QyIiBjeD0iMTMuMzgiIGN5PSIxMC4wNCIgcj0iMS4xNCIvPiYjeGE7CTxjaXJjbGUgY2xhc3M9InN0MiIgY3g9IjEuMTQiIGN5PSI5Ljg4IiByPSIxLjE0Ii8+JiN4YTsJPGNpcmNsZSBjbGFzcz0ic3QyIiBjeD0iNy4zMiIgY3k9IjcuOTkiIHI9IjEuMTQiLz4mI3hhOwk8Y2lyY2xlIGNsYXNzPSJzdDIiIGN4PSI3LjIzIiBjeT0iMTIiIHI9IjEuMTQiLz4mI3hhOzwvc3ZnPg==;" parent="e53sIIh-dQqDBN9aHjkJ-82" vertex="1">
          <mxGeometry x="66.41000000000001" y="89.5" width="67.17" height="91" as="geometry" />
        </mxCell>
        <mxCell id="MBSqLJU8_XcgEEYuNx-6-38" value="&lt;span style=&quot;font-size: 19px;&quot;&gt;8&lt;/span&gt;" style="ellipse;whiteSpace=wrap;html=1;aspect=fixed;" parent="e53sIIh-dQqDBN9aHjkJ-82" vertex="1">
          <mxGeometry x="210.01" y="80" width="46.6" height="46.6" as="geometry" />
        </mxCell>
        <mxCell id="e53sIIh-dQqDBN9aHjkJ-89" value="" style="rounded=1;whiteSpace=wrap;html=1;dashed=1;fontColor=#4D4D4D;" parent="1" vertex="1">
          <mxGeometry x="571.6" y="340" width="240" height="230" as="geometry" />
        </mxCell>
        <mxCell id="e53sIIh-dQqDBN9aHjkJ-90" value="BigQuery" style="sketch=0;html=1;verticalAlign=top;labelPosition=center;verticalLabelPosition=bottom;align=center;spacingTop=-6;fontSize=20;fontStyle=1;fontColor=#333333;shape=image;aspect=fixed;imageAspect=0;image=data:image/svg+xml,PHN2ZyB4bWxucz0iaHR0cDovL3d3dy53My5vcmcvMjAwMC9zdmciIHhtbG5zOnY9Imh0dHBzOi8vdmVjdGEuaW8vbmFubyIgd2lkdGg9IjIwLjAwMTA0NTIyNzA1MDc4IiBoZWlnaHQ9IjIwLjAwMTA0NTIyNzA1MDc4IiBmaWxsLXJ1bGU9ImV2ZW5vZGQiIHZpZXdCb3g9IjAgMCAyMC4wMDEwNDUyMjcwNTA3OCAyMC4wMDEwNDUyMjcwNTA3OCI+JiN4YTsJPHN0eWxlIHR5cGU9InRleHQvY3NzIj4mI3hhOwkuc3Qwe2ZpbGw6I2FlY2JmYTt9JiN4YTsJLnN0MXtmaWxsOiM2NjlkZjY7fSYjeGE7CS5zdDJ7ZmlsbDojNDI4NWY0O30mI3hhOwk8L3N0eWxlPiYjeGE7CTxwYXRoIGNsYXNzPSJzdDAiIGQ9Ik00LjczIDguODN2Mi42M2E0LjkxIDQuOTEgMCAwIDAgMS43MSAxLjc0VjguODN6Ii8+JiN4YTsJPHBhdGggY2xhc3M9InN0MSIgZD0iTTcuODkgNi40MXY3LjUzQTcuNjIgNy42MiAwIDAgMCA5IDE0YTggOCAwIDAgMCAxIDBWNi40MXoiLz4mI3hhOwk8cGF0aCBjbGFzcz0ic3QwIiBkPSJNMTEuNjQgOS44NnYzLjI5YTUgNSAwIDAgMCAxLjctMS44MlY5Ljg2eiIvPiYjeGE7CTxwYXRoIGNsYXNzPSJzdDIiIGQ9Ik0xNS43NCAxNC4zMmwtMS40MiAxLjQyYS40Mi40MiAwIDAgMCAwIC42bDMuNTQgMy41NGEuNDIuNDIgMCAwIDAgLjU5IDBsMS40My0xLjQzYS40Mi40MiAwIDAgMCAwLS41OWwtMy41NC0zLjU0YS40Mi40MiAwIDAgMC0uNiAwIi8+JiN4YTsJPHBhdGggY2xhc3M9InN0MSIgZD0iTTkgMGE5IDkgMCAxIDAgMCAxOEE5IDkgMCAxIDAgOSAwbTAgMTUuNjlhNi42OCA2LjY4IDAgMCAxIC4wMDctMTMuMzYgNi42OCA2LjY4IDAgMCAxIDQuNzI3IDExLjQwM0E2LjY4IDYuNjggMCAwIDEgOSAxNS42OSIvPiYjeGE7PC9zdmc+;" parent="1" vertex="1">
          <mxGeometry x="650" y="410" width="90" height="90" as="geometry" />
        </mxCell>
        <mxCell id="e53sIIh-dQqDBN9aHjkJ-91" style="edgeStyle=orthogonalEdgeStyle;rounded=0;orthogonalLoop=1;jettySize=auto;html=1;exitX=1;exitY=0.5;exitDx=0;exitDy=0;entryX=0;entryY=0.5;entryDx=0;entryDy=0;" parent="1" source="e53sIIh-dQqDBN9aHjkJ-79" target="e53sIIh-dQqDBN9aHjkJ-89" edge="1">
          <mxGeometry relative="1" as="geometry" />
        </mxCell>
        <mxCell id="e53sIIh-dQqDBN9aHjkJ-85" style="edgeStyle=orthogonalEdgeStyle;rounded=0;orthogonalLoop=1;jettySize=auto;html=1;entryX=0;entryY=0.5;entryDx=0;entryDy=0;" parent="1" source="e53sIIh-dQqDBN9aHjkJ-74" target="e53sIIh-dQqDBN9aHjkJ-79" edge="1">
          <mxGeometry relative="1" as="geometry">
            <mxPoint x="266.6" y="455" as="targetPoint" />
          </mxGeometry>
        </mxCell>
        <mxCell id="e53sIIh-dQqDBN9aHjkJ-103" value="" style="group" parent="1" vertex="1" connectable="0">
          <mxGeometry x="1070" y="-270" width="180" height="138" as="geometry" />
        </mxCell>
        <mxCell id="e53sIIh-dQqDBN9aHjkJ-101" value="" style="shape=image;imageAspect=0;aspect=fixed;verticalLabelPosition=bottom;verticalAlign=top;image=data:image/png,iVBORw0KGgoAAAANSUhEUgAAAG8AAABhCAYAAADYz/8QAAAAAXNSR0IArs4c6QAAAARnQU1BAACxjwv8YQUAAAAJcEhZcwAAEnQAABJ0Ad5mH3gAAA5oSURBVHhe7Z15kBzVecB/3+ueY2cPSStpL9AJaCUsCQHisGOC7cLFIVfAFXAZiuLKUXZMEhJjXNgEpzgNLiSgjIEkBaSQbYirbGxzOEUMgYBBBiEJ0AESQhfSSitptffudPf78kePhBhWu9tz7M7I86NWf/Sb3Xndv37fe+97rxtRVaVCWWKyD1QoHyryypiKvDKmIq+MqcgrYyryypiKvDKmIq+MqcgrYyryypiKvDJGjsbcpqoiqqgqWAsoHH6WkvnHGEQEFUFEDvtAeXB0yFMNf6xF1UJvL8HOHfibN+FteJdgxza0owP10hCP49RPxrRMw517IrHZczAtxyDV1YgYMAZEwp8Sp+zlqQ0Idu7Ee/M1/M0b8TesI9jyAWpt9kePjDE4M2cTmzsf9/g5JBafiWluASntXqU85ami6TTBh5voeehe/PfXh7IOCosi7iAmI8oYxBhirSeS+sZ1uDOPQ+LxkmyJ5SVPLbanl/SrLzL44vN476wC34/WykaJGIO6LrGFJ5P84rnE/+xsTHV1SbXG8pCninoewfYtdC+7g2DT+2gQhP1csREBx8E9YS61192IM20GEouVREssfXmq2J4u+pY/wsBzv0b7+rI/MWaY6hqSSy4iddnVSHXNuAssbXnW4m/5gO5bbsTf9VHYl41ndSWcXjgtxzLh5h/izJj1cV85DpSsPPU8vDdeo+fBZdjdu4rSr+WKGIM0NBH71o2kTj8d1xmfFjh+t80wqO8x+PwzdN3+fYJdH5WUOABrlfYOj5ueNvzyjx5pf3zu/9KTZwMGn3mKnv94AB0czC4ddxRhwE3x8LwbWJ9q5fE/eDz+qk8wDhG9tORZy+CLz9P90L1od1d2aUmwN9nI3Qtv5536U7Hi0J+G/3o9zW/e8rF/svKsxdu8ke6fLIOxmgZEpNet4eG51/P+hPlomCBFNazuYy+nWbM1IBjDCF8aAxZVgh1b6fzuPxDsacsuLQyHD+sjnrIitCebeHjed9gwcSGBONkfAWBiteGuryeY3SCYMZhGlETL08Cn7+f/SdC+J7soJ8SECWZxXXBjSKoaM7EeUz8ZM3ESUpUKj7vuoXTYkVCEAaeKB0/87rDiADp7LctfTRME2SXFoSRa3sD/PEfP0tvRdDq7KDLiOJhpM4mfcjruzFnETzkD09CYNaFWgl078VauwN++lfTKFQTbtw6ZE92TbOLheTewbtKiQ6FyOFwD3zgnwVcXu9lFBWd85akS7N7Fgev+Bt2/L78pgevithxL7Q0340yfBbE44jhHXt7RcBlJbQDpNMGWzXTd9a8Eu3eB7wPQ59bww5PuZFPdPOwwLe5wBJhULdxzeRXH1gtmiK8uFOMqT4OA/p89Su9PHwXfyy4eHWJwGpuo+ouLSS65KAyJw4TBI2Ittq+XwWd+Rd/Tv2J3p/LQnG+zYdJJw4bKoXANXHxGjGvOjuPkUJXRMn7yVNH+fvZfcRG2szPyIIKDIXJqIxPv/TdM/ZTcpGVjLUHHfu5+ZCsvB3Pw1ESumgDJODxxbYrqpIwi2OZGAc42R4KAviceG16cKOJaJB4giQCJWyRmwShihNiixUy8798xk6cWRhzhep6pn8K3rj2FL86P53ThFRhIw2Mve/jBEc6tAIxbywv2tNH57W8StO0M5QmIazG1HlLjkThlL7Hju8AMUT0VbFc9sTNuQyadDslmJDYRiBbehkMBz1fu/M0g//decMT760iIQEOdsPTyKpom5HILjMz4yFMl/fordN32PdQbwKR8EovbcRr7cY/pQ1wbxp6hxB3CgDggDlI9F6lZiLRcidSdBiaRCV75YRXauyw3/WKAD/foJ/YwjYaYA9+7MMFZc90C1ObTFCjWRMRa0qtXIMlukp/bTd3frid5Rjux2d1IIgBHRxAHYEE9sANo92rsruUEq5YQvHMp2rMW7ABoHqNXwAhMrTP843kJquLRbwcvgDc2Fy/rMg7yFLWDOLUrqL1sE1VntSGJsB/LDxuK3PsswVvnYDd8E/X2h7vJ8sAIzGtxuODkWE7d6pubLZ19ii1CgMuhOvmgkG5D119JrPlpzIT8J+WfRsHrwLY9gV2zBLreyPRguSMCX57vUlcVte3B3m7LtY/1s2abRu43R2Ls5GkAA9sIVl+I3fcsIpl+rSgoaIB2v419+xK0bTloOPHOBSMwY4rQ2uxEbn1Wob1bueOpAX67yscvYOosYlVyRAO0dx3B6q+gPW+D9cLdzMVGA/D2ELz3z+jeZ8Dm3tJjjnDBIhcnh5SJKnT0KY/8b5oX1vn4+UXyQ4yBPEXTe7DvXIr2vpf3ICIqqhb8ToK1V6N7f51XCF00wzApFV0eGYHdA8pPnk/z0nqvICG0uPI00/+suwrt35RdOrbYXuzWZWBzX52Pu8Ksqfldsp5B5dGXfD5st3ncRiH51WRELHb7/eiBP4x5i/sUksAc89cgseySUWMEmifl1vIOogq7Oy3LnkvjB/nEgWLK0wDtfA27dWlefU2+iBgkPgUz5x6k6fJwYp8jRmBCjmHzcKzCe7sCfrEiv/RZ8eQF3dgP78iIy72CeSEGlRgy+xZMy9Vg4tmfiIZAokDLdNbC79726eg9cmp3JIokT9Hu1WG4ZBzDpTsZ03o/0vJXIIW56vm3uxAFPtpveWl97huXipPbtAMEb1+C7vvv7JLRIw6YFLh1mMnnQM0i8PZgd/8S8dpRvztMjx0Jk8JpXYo0X1EwcWRSXlv3Wp583WPlZp++dHgsV2qShuV/l6Q2Gf22KIo87VpJsPJLYPuzi0aFOClk2t9jmi9HE9MRcTJP54STb/wubPtv0e33oX0bw2Mf/zbEpuKccBfSeEn+oXIIbOaBWz9QXnk/4PFXPT7abwGJPH91DVx3foLzT4p+gxUhbCq699ncBiliIN6Mc+YazKybIdWKOFWhAHHDkaJJQrwB03IVZtFzyITPZlYXBMQgbi3O8bcgTV8rijgyAxfXgWRc+NKJLg9fU8WpMx0kh749sLDyw9wyL4WXZwfR7reAiLURQUwCd+HPITkNzAhDenGQZAvOgp8hEz4fnkpsMmbuA0jzVXlNCaJgDCRicP1XEsyaaiLvWQn7PqV3MLr4wsvzu2BgW/bRkTFJzJxlUHdmhGoJxBowc+5GqltxjrsNabh4zB+AFGBKrfCDv0xSnUPftbtL6U9HH3UW9ixVwfaj6egbZ6V2EeRy4cUgNZ/Bmf9TpDm/eVw+COHK+emzncgj0r5BZXdX9FF5xCs1AgLqHQC/O7tkeMQgEz6HuDXZJaND4lD9mTELlUci5sDJM6OvPICwfV+4FSQKkb9mRAY+ymFS7iA1C4pSnbFmxhSJvN1PM+t+UYn4NaPA5pAyEAPxqdlHy5K6KjPkHt/hUFUG/Yi/VBR5Joc+RzPzt6MA32a9bWmUmBx+qfDynIlDby8fFgsDO7IPliVtB5SouWYB6nJIeBdeXqIl+p/VANv1Vl5bFUoBq7Bhp42+W0ygMYe9nRGv8ggo4KQgVp9dMgIKB14Gb192QVkxkFbe3OxH7vJdA9Mnm8jhtrDyRBCnJtP6oqH9m7GbfxD2fVHPvgSwCk+t9NjYFrXZQX2NyWlnWmHlAerUYFKzM5E8Ahpgdy5HdzyYWS0oD4Gq4Fv4/bs+y1/xoodMoGmikEpEHyoUXJ6YONR9FkzULLmCegSbbsRuvw/r92I1IPom87FBFQKrDHjK79/1ufd3adJ+9FvOGDi+0VAVj2iOIi0JMbAFf8UZ4Hdkl4wOMeyu/TIv1FzJOdP/nMbU1Mh35dAU5I+AQkev5YV1lhUf+KzaEv1BlIPEXfjRZVXMPzZ6OyqOPPUI3r8B3fFAdsmo6LRxbu05lRVeI8Y4VMdSJJ143g/pO51nkei4MC+JquAFSt+gEqgQ2Px2Qi+e7XLbJQliOUyPiyMPhd51BKvOQwf3jLr/sghtQRV39ixitVePn4nqIjLaPzEs8c5zSe77el7yDpLvVROBqphw6yUJTpru5BRZorfVUSGQnI1MPm/UqwQW4YCNs6x3Aau8yYfEQZg+Kth/mTca5/tTCBbOcDihKTdxFE8e4CQxs74PsSkj3ukKtAVV3NS9mFfTjQQjfL7cEQlXIK48K0Yqj8X+4slDIDkdp/V+xK3LLvwE7TbJ0p4FrPHqCxEdS56EK1xzdozjG6InsQ+niPIAFWTyudB02ZBrbYqwM0jxL12LWeFNxR7lLQ7AMXDabMMFi2J5iaPo8kTASeEcdyum4aJPbAiyCG02yT09C1jrT/pEH3e04hg4aYbDP52foDohJS7vIG4dMmcZMukLIC6KoS2o4uauxbzmNfxJ9HFGoLXZ4YYliZxSYUMxNvIAiU/FWfAE0nwFO6nnR70LWetPHNUrocod18DnW11u/1qCKXX5t7iDjJk8EHCqcVqX0jHvSTbozPD/IHIUI5lnG648K8F3lsSprSrsC3WKNEkfnkADNh3YxpMbn+WFHa/T7w9ix+ARsHjnuST3Xjri1CVfDk4FTp3l8NXFMRZON8SK8B7qcZEHoCiBtWzq3MYtf/wxW7t2EqhFCR86LEa1iinPZN5PJwITqoTrlyQ4eaaD6xTj20LGTd7h+NZnfccHvLzjTdZ2bOSt9vUEtvB7WoolTwROaHJYMM1w2myHhdMMiVhhv2MoSkIegFVFsVhVBoJBPjiwjbX7N7Fm7wZ29bXTOdCNn+c2iVjXF0jsvygveUagKiE0TzCc0CQsnO4wq8FQmwhzsAe3/RVqUDIcJSPvcMJcJodkKhrm0PK9IGpAc0jff4pwjGzMx+/THAtZ2ZSkvAqj4+geqx/lVOSVMRV5ZUxFXhlTkVfGVOSVMRV5ZUxFXhlTkVfGVOSVMRV5ZUxFXhlTkVfGVOSVMRV5ZUxFXhlTkVfGVOSVMRV5Zcz/A3l2FmUIEiuiAAAAAElFTkSuQmCC;" parent="e53sIIh-dQqDBN9aHjkJ-103" vertex="1">
          <mxGeometry x="34.5" width="111" height="97" as="geometry" />
        </mxCell>
        <mxCell id="e53sIIh-dQqDBN9aHjkJ-102" value="" style="shape=image;imageAspect=0;aspect=fixed;verticalLabelPosition=bottom;verticalAlign=top;image=data:image/png,iVBORw0KGgoAAAANSUhEUgAAALQAAAApCAYAAACcNQOvAAAAAXNSR0IArs4c6QAAAARnQU1BAACxjwv8YQUAAAAJcEhZcwAAEnQAABJ0Ad5mH3gAABKPSURBVHhe7Zx5eBRVtsB/Vd2d7s5KOguQEBICguybiGwaNxRRVBQGUZl5KiIi6jhvRvSNT/hQh8GBURllGBAcQQTxueDGsMmi7FvY1yQkkH1futNb1fujOlXdTXcnqKNj7N/35aPuPedWU13nnnvOuTcRZFmWCROmlSD6d4QJ83MmbNBhWhVhgw7TqggbdJhWhfB9kkKXG0prJSrrZaJMAiltRIwGf60wYX48Ltugz5dLfHbAxaF8N3mlEv6DU+JF+qeL3D3IQKek1r0AfHh2nXqdHpPKoLa9feRhfnxabNA2h8xr6xxsOuq6xIiDMaqvnidvMRKh95e0DoZ/OBG72wHAW1kv/mQGXVxcQn7BBYqKi4mMjKRtchIZGenExsT4q7Z6WmTQZbUyf3i/kfwKyV/ULN3ai/x5gokYs+Av+tnzUxp0SWkZK1au5vSZs9jtdn8xAGkdUhlzx20MGjjAp//wkWPMf/1vADz95OP06/Pj/b+/L8vfW8Wmr7cC8M6Shf7i5pPCGqvMU8ttPsYcoYeJQw28ONbIkslm1j0bxfKpZmaPM/HrERGYvOJomwPczU6ZMJfD+g2befb5/+XI0WNBjRmg4MJF3ly4mDcXLvYXtVpCGrTLDc+tbqSkRrPIvh11LH00koezIrj2Sj2dkkQMOiV2HnqFjkkjDCybEknfjjrSEkTmP2CiTWTr884/BU6nk1fnv87K1WvUvpE33cC0qZN5ZfaLvLNkIbNn/pH77xtPv759VJ29+w/w98VL1XZrJqRBrz3g5FSR5plH9dUz7wET7duENtDkWIF5D5h4Y5KJ+KjQumFazvKVqzl2/CQACQkWXvzjDCZOGMeggQNIad8OPGHGzTdez9PTpzLtscno9XpEUWTYkMHqfVoQZf5sCWrQjU5Y/o1TbSfFCjwx0khLzVMAYlth3PxTceBQNtu2fwtA27bJvDzrBTplpPur+TDoqgE894dneOg3D9K7V0+1XxBa73sJatC7zriotWkz+YW7jD6x8b8Ld0kRrtMnkB1KsnXZuKqRa/eAq9pf8rNFkiRWrlLCDEEQeGzyQ5hMJn+1gHTO7MTwodf49LVmDx20yjH7YztbTrgAyEgSeXuy2V/lB8NdeIH6N+biPHYY2WZVOgUBXUoHzLePxTzufv8hvritSKefRqpYB/YirT+iHWLiKMSu80EX7T3iEjYedbHnnJucMonCSomMJJH+GTrGXW3gQpXE/lw3AF3b6RhyhQ5aUOWQykqxfbwa2+cfIVsbEGPj0GV0xnTrHZhuGgViUH/iw+EjR5n/+pvgiZknThjnr3JZtKTKsWfvfg4cyia/4AKFhUUkJFhI75hGj+5XctMNWf7qVNfUsGXrdgD69+tLesc0fxUADh0+Ql7eeUDgrjGj/cWUl1ewbv1GcvPOU3DhAnGxcaSlpdKzR3duvP46VqxczcbNW+ByqxynipQXCJCeGFTte2PfupGqyRNx7NulGTOALOO+WED9otepmTEdqSawx5XrD+Pe3R+pcJmvMQM4ipEKl+Ha1Q+5/rCvzENRtcx/r2zkT2vtbDrmIrdUwu6CU0USq3Y6efDvNv6x2cG72528u93JrrPKJG8OZ/Z+KieNxfrBcmRrAwBSbQ3OwweomzuLqqkPIpWV+g8LSPbho+p11rXDfWQ/NPX1Dfxt4T94a9ESdu3eS2Gh8p1WVFRy4GA2K1auZvYrcykpLfMZV1NTyydrv+CTtV+QX3DBR+ZNdvYRj97n/iL27N3PC7NeYuPmLZzLycXhcFJWXs6Bg9ksf28Vry1YiF4felMjqKXWeNlWemLomGvHGTfPrGhs0U95nbYgOHZup3b288j2RqVDENG1T0XfrQeCOVLT27ebmuefBv/FxFGMe18Wsi1H64tohxA3GCKUJAmAxvO4910Hdt8vusYqM+0dGwfztMkLkGoRiYxQntlqlzl24fLq746De6l+9klkpyds0hvQdcxA37mrquM6d4bKRyfivligDQxCaVm5ep2UlOgj+6GZ99oC9u0/CECXzplMeuA+fvfb6Tz8X5PUeva5nFxe/tOr1NcrE/WH4MTJU7y1aAk2m2ILt906ksenPMLvnn6CCePvISYmmkPZh9my7Rv/oT4ENWiXpBlPtDG0QVfUyWTnu1v0U1qr3Fe2Wamb95J6D0P3XiSs/BTL8o+Jf/MdEj/bQvTjz4BeCdxdp45j+2iVqg/gPjEF3HVKQzCg6/0B+hEF6K76Rvm39wcgeAJ/d72i78Xcz+3UWH1Lkm9PNvPuY2Y+fiaS5+80YvYYdouRJOrnvQwuJaE2DruOxE82Yln6AfGLVmBZtgZdmpLMyXW1NCy9dNn0x2pVvIvFEo/B8O9LZDZs+prcvPMADBzQnz8+93tuyLqW3j17MGLYEKZNncxdY24HoLauzqd8+H1Z+s8V6vX0xx9l/L13c/WggfTu1ZNbR97E//7Ps1ji42ls9Di/IAQ1aItXuS23LLSHklu8GQ7mCOVf+9aNSNVVAIiWROL+8hZiUltf3bETiH50utq2fexl0I3nkcu/VJu6HosRku/W5ICQfDe6HkvUtlyxHtmWB8CFSoldZzXPfE0XHfPuN5HhOX+iF+HGnnre+o2JyykKNP7rc9zFhQDoM7sQO3MugknLP2SHXTVoPN+DK+es2g6F5A79HlpKkLSJ9Rs3AxATHc3khyb5iwG4a8xoOmd2AmDHzt3YbDZF4H3PIPf3RvTKHw4fOUaZZxUaMXwoAwf099JUSEpM5L4J9/p3X0JQg06M0UQ5paG/yGFd9cy/3xTwZ84ELRsXgDSLcl/n8SNqf+SDjyAYA2ft5rvGI8ZbAHAXFyFVVgAg1+xUdYS4axDaBU4chXYTlRCkCc+4IwXaM+lEeOpWY0DD7ZgoMmZAy72iY7e2JJrH3AuCAC4njeu/oHr6Q1RNeQDHjm2qjhAVjTs/V20HItKsTIjqmhoc37X640Wg56yrq1eN6o7Ro0JWUX41bqx6ffacV7h3GUiS9v3n5CpOBuCeu8eo1/4MGjiA9u28QskABDXoXmma6HSR5LPB4k9CtEDfdF3AnwilIABAikVE72k7j2lJmj49Q1PyRxR9PJrzuDJOrvYy6Pjr1etACPFaVi7X7AAg+7zmnVMtIsmxAd6yhz5e30VzzkeqUlYdAEQdDUsXUjHhdurmzsJ5QkvuDN17EfOHF0lYsw5j1s3amACkpLRXr4uKin1k34VAz3D6jLZKZGaGeB9AZidNfi4n9GQMhs7LQzcZdGxMDG3i4ry0LqVTp9C196AGPbK3lk3KwKtf2PEKq1vM2oNaVSA9QTMaqUR7Md5LciC8E8SmcbJ3gmeI164DYUhQL+VGJQkr9UpOY03BjRnwOVgVyLv5IGsTv27+y1hXLlNDK8FownzHWOIXraDNgqWYRo5GiPDEYCHo1auHer3Vs7nyfQi0sVJVrVWRoqOifGT+6PV61YNXVFQqnd73DHB/f9xeHrra89lRzXwunnAoFEENOj1RJKu7ZtS5pRIf7dV2DlvCiUKJLcc1g76lj7Z061K1OmVTGBEMqVwrEelSOgAgmDtrCvaL2nUgPEaM1zjvs9pF1cFXH8CnMhPIu3njvZo0oc/oTPT035OwZh3RT83wqXa0hB7dr6RNG8Vzbd6y7Tt7xSYCxdDt2mr5S1lF6PdRX9+gJmfJyUlKZwtj6Nq6egB0Om3pbgojKpqxA4DypgkUhKAGDTBtZITP9vWiTQ6WbXXgCv3+Acgvl5izVjsJdlUnHcO7aQ/hkxht2aBe++O+WIArV1sOdR09y11kN7VPKvkAXF5LvTeuKqTSD7V21JUAdGmrPXpFvczhfN/SXRMy8MWhlk9kXbqSMAEgiMTNWUD8kvcx3zkOIVJbaeRGW4t3Q3WiyG23jFTbi9/+p1reagkfffKZGh8DiOKlHjQlRYtNjxw95iPzx1uempICQGSU9myhTgDmnVeqKG63V8iXqtzD4XCGjMntdjvnQshpzqAtUQJzJpjUA/qSDCu+dTLlbaV2G8iwZeDDPU4mL7FxoVJR0Ivw1K2+S6t5tFaRaNz4FfZvvvaRA8gN9dTNnQWe5cnQd6Dq2cXkO0HvibfsRbizx4KjxHs4OEqU/qYNF4MF0VMJGdFN51PJ+etXDqoafD2Lyw2vfWX3qUM3t5qarr8FwWhUGrKEfdNX/irIDgc1M56iavJ9uM6e8hcHZOTNN9CjuzIZi0tKeGHWS816aqvVxtx5r7P28y95ac6rXPRskgRyoJb4eHr2UO6/fsNmTpw87a8CQGVlFctXKtUmS3w8vXp2B08VoolTpwNXbb7ZsUsLUbwYMniQer1k2bs0BpkQ76/+kOqaGv9uH3QzZ86c6d/pTWKMQLf2OrafdNFUNaq2yqw/4mLVTicH8iQuVEhsPeli1S4Xb21wsPOM2yfefjgrgiFX+O7w6NqnIJUW4zqrfHH2LRuRysuQ6+uQKsqwf7uVurkzcecpM1KIiCBuzhuIMbGeG0QimFKQyz5V2o35SEXvgqMU3PXIhctwn3wcrMrpNABd94UIccq5hgi9QIcEka89IVGNTeZfR5RnbLDDtpNuXv+Xg705vp67a3tRfZalx/8Pt6zIR2dkkRrdFiEqCiEyCsdeJWl15ZzBdeo4ck01cl0tjRu+pGHha8p5lbpaGr/8FOPVQxETPUt3CAYO6EdO7nnKysuxWm1s2/4tVpsNp9MFghJfnj2Xw45du/n0sy9ZuWoNxSXKJDdGRDBsyGBiY2MpKS1j5+49AFwzeJAabnTt0oUNmxTH8u2OXYiiSIfUFCIiInA4nOzcvZfXFixUS3VTpzzik7Dm5J6npLSUwqIi2rdvRweP58WTdC5avBSXl2duqmlHRUUiSRKnTp+lvr6B3Xv3kdYhVZ0kFRWVLFn2T3bu3quO9R7vTdCzHP7klkm8sKaRouoWqatMvTGCewcHLnvJ9XVU/3aKT0gREEEk5rfPYbrtTn8J7mOTkIvf9+++BKHtr9D10or3Tfx9k4M1u1seUozup+eZ2xQPHPQshyxTO2tGwFXHH+PwLGJnzvXvDsnGTV+z4v0P/LuD0iE1hSefeIzkJGXShDrLsXXbNyx79z21jedIasEF3zzl1pE3MWH8PT59eefzmTn7T2q76xVdEEWBiooqysqVkKdf3z4cyj6MwWBg8cI3VF2Hw8mf//JXn1UnOjqK+DZtfD67f78+HDykVLoCneVo1kM3ER8lMGaggeRYkZIa+ZLl2Z9u7UVm3mPiOq/E0h8hwohp1B3ItTW4Tp/wFwMgJrUlbs4bGIde6y8CUEIIYypy5SaQA5yzEE2IXf+Krssr/hIArsrU0T9dx9ECibrGS59peDcdgzrrOXFRWZ6uTBG5pktwDw1KXGLMuhl9eiec2Qe0rX1vBIHI8Q8Q89SMFh9SaiIzsxNDBl/NuZxcqquDL8Fms4kxt49i6pRHfCoIwTw0QEZ6Rwb278eZs+eorVN2YWtrPbuxQFxcLNMem8yNN1yn9jXRpk0cZrOZo8eOA1BRWUl5RSVWqxWz2cwTUydjMBg4fuIker2eO0aPUsfqdDquGzEMp9PFmbPnwGPkTZ8dEx3N9GlTMBqN6v2/l4f2p65R5nSRRGmtTEW9jNsTY7SJFOiXrrvsA03OE0dxHc3GlXcOqboKfeYV6DMyiRg8DCG6+V/2lG05ilE3nEC2nkaI7ApR3REsNyKYM/3VL0EGCisl8splzpdLxJoFOliUZ1mw3sEn+xQvPnGogYezlHwgp8b3HEZm3KUnzGSnA+fhgzj378GVcwYxuR36zC4Yh2UhJiX7q1821dU1lJaVUVJSSmVVlVrBSO/Ykf79tN9a8aahoUH1eh1SU4mODlwuKy4poaDgIoVFRVgsFjI6ppGWplSZQlFVVc2pM2coL6/A5XIRExPDkMFXExlppqKykrKyckRRpOsVXfyHAtBgtZKXl09+fgF2h50Ei4VBgwZiMhqprKqi1HMw6spul1aLvrNBtybK6mSSYoJne8+816huxDx5SwR3DgwcQoX56bk8N9rK2HTMxdPLG5mwwMqn+wPH0bmlks+uYv90r63PMP9x/KINuqBC4kiBYqyLNjk4dN6tVnIAzpZIvPypVkLqlaaj42WGUmF+XH7RIYfVIfPrhTYqvRJcgw4yk0XK65TcoAmTAf72G3Or/2tQP3d+0QYNUFwtM2N1IwUh/ohOhB5eGW+if0Y43PhP5xdv0ABON3x93MWXh1wcv6iFHQnRAn066rh/qIFOyWHP/HMgbNB+ON1K7NzBIhDTzCm8MP95hA06TKsivI6GaVWEDTpMqyJs0GFaFWGDDtOq+H8nJ7DF8RclfQAAAABJRU5ErkJggg==;" parent="e53sIIh-dQqDBN9aHjkJ-103" vertex="1">
          <mxGeometry y="97" width="180" height="41" as="geometry" />
        </mxCell>
        <mxCell id="MBSqLJU8_XcgEEYuNx-6-2" value="" style="group" parent="1" vertex="1" connectable="0">
          <mxGeometry x="2000" y="120" width="190" height="100" as="geometry" />
        </mxCell>
        <mxCell id="MBSqLJU8_XcgEEYuNx-6-1" value="" style="rounded=1;whiteSpace=wrap;html=1;" parent="MBSqLJU8_XcgEEYuNx-6-2" vertex="1">
          <mxGeometry width="190" height="100.00000000000001" as="geometry" />
        </mxCell>
        <mxCell id="e53sIIh-dQqDBN9aHjkJ-67" value="&lt;font style=&quot;font-size: 20px; color: rgb(51, 51, 51);&quot;&gt;Online Prediction Service&lt;/font&gt;" style="text;html=1;align=center;verticalAlign=middle;whiteSpace=wrap;rounded=0;fontColor=#808080;" parent="MBSqLJU8_XcgEEYuNx-6-2" vertex="1">
          <mxGeometry x="10" y="35.29000000000001" width="170" height="30.000000000000007" as="geometry" />
        </mxCell>
        <mxCell id="MBSqLJU8_XcgEEYuNx-6-7" value="&lt;font style=&quot;font-size: 20px;&quot;&gt;Data Warehousing&lt;/font&gt;" style="shape=step;perimeter=stepPerimeter;whiteSpace=wrap;html=1;fixedSize=1;size=10;fillColor=#e1d5e7;strokeColor=#9673a6;" parent="1" vertex="1">
          <mxGeometry x="550" y="-100" width="290" height="40" as="geometry" />
        </mxCell>
        <mxCell id="MBSqLJU8_XcgEEYuNx-6-9" value="" style="endArrow=classic;startArrow=classic;html=1;rounded=1;exitX=0.5;exitY=0;exitDx=0;exitDy=0;entryX=0.5;entryY=1;entryDx=0;entryDy=0;dashed=1;curved=0;strokeWidth=2;" parent="1" source="e53sIIh-dQqDBN9aHjkJ-79" target="MBSqLJU8_XcgEEYuNx-6-1" edge="1">
          <mxGeometry width="50" height="50" relative="1" as="geometry">
            <mxPoint x="1470" y="370" as="sourcePoint" />
            <mxPoint x="1520" y="320" as="targetPoint" />
            <Array as="points">
              <mxPoint x="380" y="310" />
              <mxPoint x="2095" y="310" />
            </Array>
          </mxGeometry>
        </mxCell>
        <mxCell id="MBSqLJU8_XcgEEYuNx-6-15" value="" style="group;rounded=1;" parent="1" vertex="1" connectable="0">
          <mxGeometry x="1990" y="-260" width="240" height="87.89" as="geometry" />
        </mxCell>
        <mxCell id="MBSqLJU8_XcgEEYuNx-6-11" value="" style="shape=image;imageAspect=0;aspect=fixed;verticalLabelPosition=bottom;verticalAlign=top;image=data:image/png,iVBORw0KGgoAAAANSUhEUgAAAHAAAABrCAYAAACv8QYTAAAAAXNSR0IArs4c6QAAAARnQU1BAACxjwv8YQUAAAAJcEhZcwAAEnQAABJ0Ad5mH3gAAAuYSURBVHhe7Z17jBT1HcA/M7Ozr3t5B3d4iBXoIaAIioAPpKBirUotTUCbWLGNTUXb2hptiYk2aUzaaGza2NhSo1UbUjHVqBVShGoUqWBVkGeh+ICCHHD0jnvtY579Y+94LMftb557o/tJ9p+Z2b2Z+fy+3/n+Hrsn2bZtUyGyyMUbKkSLisCIUxEYcSoCI05FYMSpCIw4FYERpyIw4lQERpyKwIhTERhxKgIjTkVgxJGGymxETrPZ1Wqxv8OmJ2djWsVHlBdFhuqkxKh6ifHNMsm4VHxIWSirQBvoysCabTrPr9dp7y3bqTiioVri5ktUrrlApTYN5VRZVoHb9pss/YfGvw8MsXATZOJImcVz40wapRTvCo2yCezotfnBMzkOd9mU6RQ8I0kSTbUSj38nSX1VeeKwLEVMV9bm/udzHOq0IisPwLZtDnVa3P98jq5sea4jdIE2sHKTzu6D0UybA7H7oMXKTTrlUBi6wNYOi9e3m8WbI8/r201aO8JvlKEL/Ptmgz1t4V9o0Ow5YrFqi1G8OXBCFbj3iMUL/zLKkmqCxrbhr+8a7D0SbuMMTWBWg8dey6MZn0d9BTTD5vE1GlktvGsMRaBt27yz24hsf88J2/dbrP/IDK26DkVg3pBYuckgrxfv+fyR021WbDTIG+H0C0MRuGqzzpZ9n7/K83Rs2WeyZms4rTVwgfvbLZ58UyekjDIksG144g2d1qPBX3SgAjXD5rn1eqgP9aFCRrN57h0t8KItUIG7Wi027P7ipM5i1n9k8p/WYAu3wATaNrzwrs7RTLAtcCjT3mPz4ntGoI+PwAS+ucPgnS9w9PWzbpfB2p3BjdAEIvBwl8VTb2lYAba8qGDZ8OSbGke6g7kZvgu0LFi91eBwV/GeLy6HOm1WbzWwAmjRvgts67Z4bYuJGcDJRhXTKvSF/9dTvMc7vgt8Zq3OgTJMqwx1PuuweXad/517XwW+97HJmm3BPbCjzqrNOhs/9bew803g0YzN8g1frBEXp9g2LN+g+7r8wrdFTa9vN/j1So28TyMPMRlG1MnIgk3MtGwOdIj97ZH1EoosNthsWXCoy8LwKXASqsTP5sWZMzFWvMsVvgjManD3nzN8ctjzRx3jrHqZp76fQhVcsZfVbBb+5ihZU6XUSs0V96VJCS7M1U340dOd7D6slPxcUVpGyDy2KEVCLd7jHMH2PTjPvq3xaZt/8gBkGWF5AKm4RIwclqEV7zoFUXlQOIekomFomb4lWd75+LDFsn/6U9B4FrjzgMnfNg6VZ5+NqWewjLxvN7sf29Qw9awvn2vb8PL7mi8r8zwJzOvwygcGmj+NyTdMPYOp54s3e8Yy8r5FYlaDVz7QyXss2j0J3NNmsnbn0FmkNLxGobG28BqW1hiWNmiskU55ecE2NQwfItEG1u402dvmrTpyXcRkNZsly/Ns3+/tBE7H2cNknrkjVby5LPzk6TY2fnJyRMuxBIqa8lzYTPmSwq++lSThsih1HYGvbjTY8Vkw8qKAX+l0y39NVm12/wxyJXB/u8WKD4Od54oCfhQ2NvDS+4br5ReuUuif3tJYvl4P9EuYblLo0tWd9OZKn9S9N9YXbxqUgVLoiUhKnFg87TqdxhSJb8+McesV8eJdJXEssKPXZtEfMmRKd7c84Ubg/IcP0N5TWuDah0YVbxqUUgLxQWJtSmLZXSmqEs7e7yiF5nSbR1ZogcuLIl7TaVfW5uFX8+gOywpHAtftMnn/E48dF0FMy3a0mq29x6Q7Wzr66DtWlEzeor1b7Hivhc2Gj0zWO1yGIpxCOzM2v3gpz+a9zv6AF1IxjRi5wtBFXz/vybtGHNu/dHUnqzb1AtCdtYRbr6pATarQdi8bn2LJ/OPPxCXLjrDrs+MpJq/b9OaFbtExvHQxLh6j8OA3E9Qkxd4rHIFb95nsCKjPdzqyRpzOfJL2Hpv2HouO3pMjrDdn0d5TeInKo2+Auv99PUVR25U5/pntPZZjeXiMxG37LUf3WVjga1sNRzfJL2QljuKhOCgXtuluADyv26zeJn6jhQVu2yf2fAkCWYkjqymQoifRTWHz4Z4ABPo5i+wGJZZAUdPFm4c8btJpp4N7LSxQFpzBDhJZdjlgWGYcR6LgYTgR2FxXfoFRxjLywrMYwxzMmAgLvHyc8KEVToMtmE6njxFfiiBs5crzYtSlxVtGhYEplU7TcYm5F4g/KoQFjm6SubRFvGX4QVUCGqqkY6+6op+zqkrKNFQXXk7Wz6gKx95X3deh76c2ffwzG6plx2OTIgxW2EwdI3Nus/jFCI/EAOxqNblnWS6U77qPrJd44vaU8AKk9h6ThY+2CvVVX17STEO12E3K5C0W//Ewe9r8H0IsHrFRFfjlTSmmjhGOK/EIBDi3WWHhJc6nPNygyJKwPICGauXY8FgpROUBpBMyDTXixzvBMvInpdNrLogx5Ryxa+jH0dESsOgKlTFNjt5WYRD602lTncSPr02gOLy1jlJoP6u3Gvx2lUZed/xWYdzMB5ZrQtcrakzizmvrWXCp84EKVwK7s/DgCzm2BvjTIW4EBkXQAlvOVHlk0XCGu0jVDgO2QE0Kbr1CdRzuFU5FliVu+UqtK3m4FQhw0WiZayeL91cqDMzM8UmunOQ+07hKof0cPGpz31+yrldUDYabFPq93x86Zc5wIF78aXPxpkEJKoXWV8n87vYmvtToPhBcRyBAY63E3Ekx4a+ABc2RbpO2rtKvoYAswdwpaZob3MvDq0BFhuunxGgo0w9+R5nqpMz86VWORpAGwpNAgKY6mcVXx6M211pWJOC7V9Vx9nDvXxD0LBBgzsQYl7Z4SwXFWFZh7Yoombwl1C+V5cKxouiG7eh4EaaMTjB/RlXxZld4KmJOZNMek4deztPp009rxWRorNLByhXvGhDDggPtYuOVIxtixASbrmXDwaMmhunPdVUlZX6+oIHLxieLd7nCN4F53ebRlRpv7BC7iaKYWgbL1AYcuY8isyameGBBg6Nx3sEQbIelSagSt8xUSfk81q3E08ixZORWpQ1EPAa3zq7xTR5+CgQY3SizaJbqe0GjqElkJVG8OXLcPLOWCWf528J9FQhw3WSVCSM91sYDoMRTkY7EljNVbrrcn8LlRHwXWJ2SuOHCGPGY/zdaUZPIsehFoqpIzJtWJTxf6QTfP1ECZk9QGN3ov0CQUNRUXzoN4vOD4ezhKnMnp5H9frYEIRAgnZC4+6txX37IZiCiVNjEFLj7+jpqA4g+ghIIMPEshRsu8rdzfyJRKWyun1rN1LHBnWdgAgHmXajSfEZwUaLEU8jK0I3EEXUxvjHd+Sy7EwIVOKpB5qrzg4tCTqpOhx5zJqUY0xTQc6SPQAUqMiycodJQHWyEDMV0WpuWuWVWDTEl2GsPVCBATUrinq8lPE+blKJQ2Lj7VqzfqIrEvV+v54yqwG9v8AIBpo2VmfHlgA0OoUicMS7J5T4NVpciFIHxmMS8i2KBLFMvptyFTVVCZt7FaRJqOH8/FIEAF56jhPbdinIOu80Yl2R6SzjRR5gC4zGJxVfHqRb89QWvFNKpvwPHpahKSvzwurpAhhFPR2gCARqqJW6bFReeTPVKmCM2igyLZtfSWBtOluknpFt5nNkTFFrODO/PhjUAPq45ztzJwXbaByK8O9nHsJrCbEV49A+ABxuJ8y6uCj36KIdAgKvOV5k+NtyLDbKwmd6S5Jop4Ucffq6JcYpm2Nz5dI69R6xQf3e0sMbGn1XWkgSjG1WW3tFIKl6WWChPBNJXld5/Y5xpY5QAYuL0+FXYSMC0sQkeWFBfNnmUMwL76c7ZvL3LZNk6jUOdYZ2KjannsAyxJYvFNNUp3DanltnnpwKb5xOl7AL70c3C/6Bo7bBD+8eRblJpc32M80bFQxtpKcWQEVjBHeWN/wqeqQiMOBWBEaciMOJUBEacisCIUxEYcSoCI87/AeGZhxCUTfElAAAAAElFTkSuQmCC;" parent="MBSqLJU8_XcgEEYuNx-6-15" vertex="1">
          <mxGeometry width="92" height="87.89" as="geometry" />
        </mxCell>
        <mxCell id="MBSqLJU8_XcgEEYuNx-6-12" value="&lt;font style=&quot;font-size: 20px; color: rgb(51, 51, 51);&quot;&gt;VPC Network&lt;/font&gt;" style="text;html=1;align=center;verticalAlign=middle;whiteSpace=wrap;rounded=0;" parent="MBSqLJU8_XcgEEYuNx-6-15" vertex="1">
          <mxGeometry x="90" y="18.94999999999999" width="150" height="50" as="geometry" />
        </mxCell>
        <mxCell id="MBSqLJU8_XcgEEYuNx-6-18" value="&lt;font style=&quot;font-size: 21px; color: rgb(51, 51, 51);&quot;&gt;Region: asia-south1&lt;/font&gt;" style="text;html=1;align=center;verticalAlign=middle;whiteSpace=wrap;rounded=0;" parent="1" vertex="1">
          <mxGeometry x="1986" y="-162" width="234" height="30" as="geometry" />
        </mxCell>
        <mxCell id="MBSqLJU8_XcgEEYuNx-6-21" value="&lt;font style=&quot;color: rgb(77, 77, 77);&quot;&gt;Architecture&lt;/font&gt;" style="text;strokeColor=none;fillColor=none;html=1;fontSize=30;fontStyle=1;verticalAlign=middle;align=center;" parent="1" vertex="1">
          <mxGeometry x="570" y="-390" width="730" height="70" as="geometry" />
        </mxCell>
        <mxCell id="e53sIIh-dQqDBN9aHjkJ-58" style="edgeStyle=orthogonalEdgeStyle;rounded=0;orthogonalLoop=1;jettySize=auto;html=1;exitX=1;exitY=0.5;exitDx=0;exitDy=0;entryX=0;entryY=0.5;entryDx=0;entryDy=0;" parent="1" source="gj_vHPTRaO-E7spt2F42-7" target="e53sIIh-dQqDBN9aHjkJ-7" edge="1">
          <mxGeometry relative="1" as="geometry" />
        </mxCell>
        <mxCell id="MBSqLJU8_XcgEEYuNx-6-29" value="&lt;font style=&quot;font-size: 19px;&quot;&gt;1&lt;/font&gt;" style="ellipse;whiteSpace=wrap;html=1;aspect=fixed;" parent="1" vertex="1">
          <mxGeometry x="-16.6" y="83.9" width="46.6" height="46.6" as="geometry" />
        </mxCell>
        <mxCell id="MBSqLJU8_XcgEEYuNx-6-30" value="&lt;font style=&quot;font-size: 19px;&quot;&gt;2&lt;/font&gt;" style="ellipse;whiteSpace=wrap;html=1;aspect=fixed;" parent="1" vertex="1">
          <mxGeometry x="226.6" y="83.9" width="46.6" height="46.6" as="geometry" />
        </mxCell>
        <mxCell id="MBSqLJU8_XcgEEYuNx-6-31" value="&lt;font style=&quot;font-size: 19px;&quot;&gt;3&lt;/font&gt;" style="ellipse;whiteSpace=wrap;html=1;aspect=fixed;" parent="1" vertex="1">
          <mxGeometry x="490" y="83.9" width="46.6" height="46.6" as="geometry" />
        </mxCell>
        <mxCell id="MBSqLJU8_XcgEEYuNx-6-32" value="&lt;font style=&quot;font-size: 19px;&quot;&gt;4&lt;/font&gt;" style="ellipse;whiteSpace=wrap;html=1;aspect=fixed;" parent="1" vertex="1">
          <mxGeometry x="880" y="122.2" width="46.6" height="46.6" as="geometry" />
        </mxCell>
        <mxCell id="e53sIIh-dQqDBN9aHjkJ-60" style="edgeStyle=orthogonalEdgeStyle;rounded=0;orthogonalLoop=1;jettySize=auto;html=1;exitX=1;exitY=0.5;exitDx=0;exitDy=0;entryX=0;entryY=0.5;entryDx=0;entryDy=0;" parent="1" source="e53sIIh-dQqDBN9aHjkJ-26" target="e53sIIh-dQqDBN9aHjkJ-30" edge="1">
          <mxGeometry relative="1" as="geometry">
            <mxPoint x="1130" y="165" as="targetPoint" />
          </mxGeometry>
        </mxCell>
        <mxCell id="MBSqLJU8_XcgEEYuNx-6-35" value="&lt;font style=&quot;font-size: 19px;&quot;&gt;5&lt;/font&gt;" style="ellipse;whiteSpace=wrap;html=1;aspect=fixed;" parent="1" vertex="1">
          <mxGeometry x="-16.59999999999991" y="397.4" width="46.6" height="46.6" as="geometry" />
        </mxCell>
        <mxCell id="MBSqLJU8_XcgEEYuNx-6-36" value="&lt;span style=&quot;font-size: 19px;&quot;&gt;6&lt;/span&gt;" style="ellipse;whiteSpace=wrap;html=1;aspect=fixed;" parent="1" vertex="1">
          <mxGeometry x="226.6" y="400" width="46.6" height="46.6" as="geometry" />
        </mxCell>
        <mxCell id="MBSqLJU8_XcgEEYuNx-6-37" value="&lt;span style=&quot;font-size: 19px;&quot;&gt;7&lt;/span&gt;" style="ellipse;whiteSpace=wrap;html=1;aspect=fixed;" parent="1" vertex="1">
          <mxGeometry x="1480" y="320" width="46.6" height="46.6" as="geometry" />
        </mxCell>
        <mxCell id="r_zwOTcXMTNjPAmvcivz-5" value="" style="group;dashed=1;" vertex="1" connectable="0" parent="1">
          <mxGeometry x="940" y="380" width="180" height="160" as="geometry" />
        </mxCell>
        <mxCell id="r_zwOTcXMTNjPAmvcivz-3" value="" style="rounded=1;whiteSpace=wrap;html=1;" vertex="1" parent="r_zwOTcXMTNjPAmvcivz-5">
          <mxGeometry width="180" height="160" as="geometry" />
        </mxCell>
        <mxCell id="r_zwOTcXMTNjPAmvcivz-4" value="&lt;font style=&quot;font-size: 20px; color: rgb(51, 51, 51);&quot;&gt;Model Monitoring&lt;/font&gt;" style="text;html=1;align=center;verticalAlign=middle;whiteSpace=wrap;rounded=0;fontColor=light-dark(#7F7F7F,#EDEDED);fontSize=16;fontStyle=0" vertex="1" parent="r_zwOTcXMTNjPAmvcivz-5">
          <mxGeometry x="15" y="49" width="150" height="62.5" as="geometry" />
        </mxCell>
        <mxCell id="r_zwOTcXMTNjPAmvcivz-7" value="" style="endArrow=classic;html=1;rounded=0;exitX=0.994;exitY=0.554;exitDx=0;exitDy=0;exitPerimeter=0;entryX=-0.001;entryY=0.547;entryDx=0;entryDy=0;entryPerimeter=0;" edge="1" parent="1">
          <mxGeometry width="50" height="50" relative="1" as="geometry">
            <mxPoint x="809.9999999999999" y="459.6299999999996" as="sourcePoint" />
            <mxPoint x="939.6600000000002" y="459.72999999999996" as="targetPoint" />
          </mxGeometry>
        </mxCell>
        <mxCell id="r_zwOTcXMTNjPAmvcivz-10" value="" style="group;dashed=1;" vertex="1" connectable="0" parent="1">
          <mxGeometry x="-170" y="640" width="160" height="140" as="geometry" />
        </mxCell>
        <mxCell id="r_zwOTcXMTNjPAmvcivz-11" value="" style="rounded=1;whiteSpace=wrap;html=1;" vertex="1" parent="r_zwOTcXMTNjPAmvcivz-10">
          <mxGeometry width="150" height="140" as="geometry" />
        </mxCell>
        <mxCell id="r_zwOTcXMTNjPAmvcivz-12" value="&lt;font style=&quot;font-size: 20px; color: rgb(51, 51, 51);&quot;&gt;&lt;b&gt;Cloud&amp;nbsp;&lt;/b&gt;&lt;/font&gt;&lt;div&gt;&lt;font style=&quot;font-size: 20px; color: rgb(51, 51, 51);&quot;&gt;&lt;b&gt;Logging&lt;/b&gt;&lt;/font&gt;&lt;/div&gt;" style="text;html=1;align=center;verticalAlign=middle;whiteSpace=wrap;rounded=0;fontColor=light-dark(#7F7F7F,#EDEDED);fontSize=16;fontStyle=0" vertex="1" parent="r_zwOTcXMTNjPAmvcivz-10">
          <mxGeometry x="13.333333333333332" y="42.875" width="133.33333333333331" height="54.6875" as="geometry" />
        </mxCell>
        <mxCell id="r_zwOTcXMTNjPAmvcivz-15" value="" style="group" vertex="1" connectable="0" parent="1">
          <mxGeometry x="50" y="612.5" width="170" height="190" as="geometry" />
        </mxCell>
        <mxCell id="r_zwOTcXMTNjPAmvcivz-16" value="" style="rounded=1;whiteSpace=wrap;html=1;dashed=1;spacing=2;" vertex="1" parent="r_zwOTcXMTNjPAmvcivz-15">
          <mxGeometry width="170" height="190" as="geometry" />
        </mxCell>
        <mxCell id="r_zwOTcXMTNjPAmvcivz-17" value="Pub/Sub" style="sketch=0;html=1;verticalAlign=top;labelPosition=center;verticalLabelPosition=bottom;align=center;spacingTop=-6;fontSize=20;fontStyle=1;fontColor=#333333;shape=image;aspect=fixed;imageAspect=0;image=data:image/svg+xml,PHN2ZyB4bWxucz0iaHR0cDovL3d3dy53My5vcmcvMjAwMC9zdmciIHhtbG5zOnY9Imh0dHBzOi8vdmVjdGEuaW8vbmFubyIgd2lkdGg9IjE4LjMxOTk5OTY5NDgyNDIyIiBoZWlnaHQ9IjIwLjAwMDAwMTkwNzM0ODYzMyIgdmlld0JveD0iMCAwIDE4LjMxOTk5OTY5NDgyNDIyIDIwLjAwMDAwMTkwNzM0ODYzMyI+JiN4YTsJPHN0eWxlIHR5cGU9InRleHQvY3NzIj4mI3hhOwkuc3Qwe2ZpbGw6IzY2OWRmNjt9JiN4YTsJLnN0MXtmaWxsOiM0Mjg1ZjQ7fSYjeGE7CS5zdDJ7ZmlsbDojYWVjYmZhO30mI3hhOwk8L3N0eWxlPiYjeGE7CTxkZWZzPiYjeGE7CQk8ZmlsdGVyIGlkPSJBIiB4PSI0LjY0IiB5PSI0LjE5IiB3aWR0aD0iMTQuNzMiIGhlaWdodD0iMTIuNzYiIGZpbHRlclVuaXRzPSJ1c2VyU3BhY2VPblVzZSIgY29sb3ItaW50ZXJwb2xhdGlvbi1maWx0ZXJzPSJzUkdCIj4mI3hhOwkJCTxmZUZsb29kIGZsb29kLWNvbG9yPSIjZmZmIi8+JiN4YTsJCQk8ZmVCbGVuZCBpbj0iU291cmNlR3JhcGhpYyIvPiYjeGE7CQk8L2ZpbHRlcj4mI3hhOwkJPG1hc2sgaWQ9IkIiIHg9IjQuNjQiIHk9IjQuMTkiIHdpZHRoPSIxNC43MyIgaGVpZ2h0PSIxMi43NiIgbWFza1VuaXRzPSJ1c2VyU3BhY2VPblVzZSI+JiN4YTsJCQk8Y2lyY2xlIGN4PSIxMiIgY3k9IjEyLjIzIiByPSIzLjU4IiBmaWx0ZXI9InVybCgjQSkiLz4mI3hhOwkJPC9tYXNrPiYjeGE7CTwvZGVmcz4mI3hhOwk8ZyBjbGFzcz0ic3QwIj4mI3hhOwkJPGNpcmNsZSBjeD0iMTYuMTMiIGN5PSI2LjIxIiByPSIxLjcyIi8+JiN4YTsJCTxjaXJjbGUgY3g9IjIuMTkiIGN5PSI2LjIxIiByPSIxLjcyIi8+JiN4YTsJCTxjaXJjbGUgY3g9IjkuMTYiIGN5PSIxOC4yOCIgcj0iMS43MiIvPiYjeGE7CTwvZz4mI3hhOwk8ZyBtYXNrPSJ1cmwoI0IpIiB0cmFuc2Zvcm09InRyYW5zbGF0ZSgtMi44NCAtMikiPiYjeGE7CQk8cGF0aCB0cmFuc2Zvcm09Im1hdHJpeCguNSAtLjg3IC44NyAuNSAtNC41OSAyMC41MykiIGQ9Ik0xNC42OSAxMC4yMmgxLjU5djguMDRoLTEuNTl6IiBjbGFzcz0ic3QxIi8+JiN4YTsJCTxwYXRoIHRyYW5zZm9ybT0icm90YXRlKDMzMCA4LjUyMyAxNC4yNDQpIiBkPSJNNC40OSAxMy40NWg4LjA0djEuNTlINC40OXoiIGNsYXNzPSJzdDEiLz4mI3hhOwkJPHBhdGggZD0iTTExLjIgNC4xOWgxLjU5djguMDRIMTEuMnoiIGNsYXNzPSJzdDEiLz4mI3hhOwk8L2c+JiN4YTsJPGcgY2xhc3M9InN0MiI+JiN4YTsJCTxjaXJjbGUgY3g9IjkuMTYiIGN5PSIxMC4yMyIgcj0iMi43OCIvPiYjeGE7CQk8Y2lyY2xlIGN4PSIyLjE5IiBjeT0iMTQuMjUiIHI9IjIuMTkiLz4mI3hhOwkJPGNpcmNsZSBjeD0iMTYuMTMiIGN5PSIxNC4yNSIgcj0iMi4xOSIvPiYjeGE7CQk8Y2lyY2xlIGN4PSI5LjE2IiBjeT0iMi4xOSIgcj0iMi4xOSIvPiYjeGE7CTwvZz4mI3hhOzwvc3ZnPg==;" vertex="1" parent="r_zwOTcXMTNjPAmvcivz-15">
          <mxGeometry x="51.454198473282446" y="57.826086956521735" width="59.79217391304346" height="66.08695652173913" as="geometry" />
        </mxCell>
        <mxCell id="r_zwOTcXMTNjPAmvcivz-19" value="" style="rounded=1;whiteSpace=wrap;html=1;dashed=1;" vertex="1" parent="1">
          <mxGeometry x="289.99" y="610" width="180" height="195" as="geometry" />
        </mxCell>
        <mxCell id="r_zwOTcXMTNjPAmvcivz-21" value="" style="endArrow=classic;html=1;rounded=1;exitX=1;exitY=0.5;exitDx=0;exitDy=0;entryX=0;entryY=0.5;entryDx=0;entryDy=0;dashed=1;strokeWidth=2;strokeColor=#009900;curved=0;" edge="1" parent="1" source="r_zwOTcXMTNjPAmvcivz-19" target="e53sIIh-dQqDBN9aHjkJ-51">
          <mxGeometry width="50" height="50" relative="1" as="geometry">
            <mxPoint x="870" y="740.76" as="sourcePoint" />
            <mxPoint x="920" y="690.76" as="targetPoint" />
            <Array as="points">
              <mxPoint x="840" y="708" />
              <mxPoint x="840" y="185" />
            </Array>
          </mxGeometry>
        </mxCell>
        <mxCell id="r_zwOTcXMTNjPAmvcivz-22" value="&lt;font style=&quot;font-size: 20px; color: rgb(0, 0, 0);&quot;&gt;Cloud&lt;br&gt;Run Functions&lt;/font&gt;" style="sketch=0;html=1;verticalAlign=top;labelPosition=center;verticalLabelPosition=bottom;align=center;spacingTop=-6;fontSize=11;fontStyle=1;fontColor=#999999;shape=image;aspect=fixed;imageAspect=0;image=data:image/svg+xml,PHN2ZyB4bWxucz0iaHR0cDovL3d3dy53My5vcmcvMjAwMC9zdmciIHhtbG5zOnY9Imh0dHBzOi8vdmVjdGEuaW8vbmFubyIgd2lkdGg9IjM2NS40NjQ5OTY3NzA0MjQ5MyIgaGVpZ2h0PSIzNzkuMjIyOTk0NDYzNTc3OTUiIHZpZXdCb3g9IjAgMCA5Ni42OTU5OTkxNDU1MDc4MSAxMDAuMzM1OTk4NTM1MTU2MjUiPiYjeGE7PHN0eWxlIHR5cGU9InRleHQvY3NzIj4mI3hhOwkuc3Qwe2ZpbGw6IzQyODVmNDt9JiN4YTsJLnN0MXtmaWxsOiNhZWNiZmE7fSYjeGE7PC9zdHlsZT4mI3hhOwk8cGF0aCBjbGFzcz0ic3QwIiBkPSJNMjkuNzk0IDEwMC4zMzZMNDYuOTIgNTAuMTY4aDQ5Ljc3NnpNMCA5OS42NzFsMTIuOTc2LTQ5LjUwMkgyOS4yMkwxNi44OTcgOTIuMDU0eiIvPiYjeGE7CTxwYXRoIGNsYXNzPSJzdDEiIGQ9Ik0yOS43OTQgMEw0Ni45MiA1MC4xNjhoNDkuNzc2ek0wIC42NjZsMTIuOTc2IDQ5LjUwMkgyOS4yMkwxNi44OTcgOC4yODN6Ii8+JiN4YTs8L3N2Zz4=;" vertex="1" parent="1">
          <mxGeometry x="341" y="650" width="73" height="73" as="geometry" />
        </mxCell>
        <mxCell id="r_zwOTcXMTNjPAmvcivz-27" value="" style="endArrow=classic;html=1;rounded=1;dashed=1;strokeColor=#009900;strokeWidth=2;curved=0;" edge="1" parent="1">
          <mxGeometry width="50" height="50" relative="1" as="geometry">
            <mxPoint x="1120" y="460" as="sourcePoint" />
            <mxPoint x="-95" y="780" as="targetPoint" />
            <Array as="points">
              <mxPoint x="1190" y="460" />
              <mxPoint x="1190" y="850" />
              <mxPoint x="-95" y="850" />
            </Array>
          </mxGeometry>
        </mxCell>
        <mxCell id="r_zwOTcXMTNjPAmvcivz-28" value="" style="endArrow=classic;html=1;rounded=0;entryX=0;entryY=0.5;entryDx=0;entryDy=0;exitX=1;exitY=0.5;exitDx=0;exitDy=0;dashed=1;strokeColor=#009900;strokeWidth=2;" edge="1" parent="1" source="r_zwOTcXMTNjPAmvcivz-16" target="r_zwOTcXMTNjPAmvcivz-19">
          <mxGeometry width="50" height="50" relative="1" as="geometry">
            <mxPoint x="220.00000000000006" y="711.1699999999996" as="sourcePoint" />
            <mxPoint x="288.9799999999996" y="708.8299999999999" as="targetPoint" />
          </mxGeometry>
        </mxCell>
        <mxCell id="r_zwOTcXMTNjPAmvcivz-29" value="" style="endArrow=classic;html=1;rounded=0;entryX=0;entryY=0.5;entryDx=0;entryDy=0;exitX=1;exitY=0.5;exitDx=0;exitDy=0;dashed=1;strokeColor=#009900;strokeWidth=2;" edge="1" parent="1">
          <mxGeometry width="50" height="50" relative="1" as="geometry">
            <mxPoint x="-20" y="709.38" as="sourcePoint" />
            <mxPoint x="50" y="709.38" as="targetPoint" />
          </mxGeometry>
        </mxCell>
        <mxCell id="r_zwOTcXMTNjPAmvcivz-30" value="&lt;span style=&quot;font-size: 19px;&quot;&gt;9&lt;/span&gt;" style="ellipse;whiteSpace=wrap;html=1;aspect=fixed;" vertex="1" parent="1">
          <mxGeometry x="880" y="474" width="46.6" height="46.6" as="geometry" />
        </mxCell>
        <mxCell id="r_zwOTcXMTNjPAmvcivz-31" value="&lt;span style=&quot;font-size: 19px;&quot;&gt;10&lt;/span&gt;" style="ellipse;whiteSpace=wrap;html=1;aspect=fixed;" vertex="1" parent="1">
          <mxGeometry x="1130" y="650" width="46.6" height="46.6" as="geometry" />
        </mxCell>
        <mxCell id="r_zwOTcXMTNjPAmvcivz-32" value="&lt;span style=&quot;font-size: 19px;&quot;&gt;11&lt;/span&gt;" style="ellipse;whiteSpace=wrap;html=1;aspect=fixed;" vertex="1" parent="1">
          <mxGeometry x="-9.99999999999991" y="650" width="46.6" height="46.6" as="geometry" />
        </mxCell>
        <mxCell id="r_zwOTcXMTNjPAmvcivz-33" value="&lt;span style=&quot;font-size: 19px;&quot;&gt;12&lt;/span&gt;" style="ellipse;whiteSpace=wrap;html=1;aspect=fixed;" vertex="1" parent="1">
          <mxGeometry x="233.38" y="650" width="46.6" height="46.6" as="geometry" />
        </mxCell>
        <mxCell id="r_zwOTcXMTNjPAmvcivz-34" value="&lt;span style=&quot;font-size: 19px;&quot;&gt;13&lt;/span&gt;" style="ellipse;whiteSpace=wrap;html=1;aspect=fixed;" vertex="1" parent="1">
          <mxGeometry x="660" y="650" width="46.6" height="46.6" as="geometry" />
        </mxCell>
        <mxCell id="r_zwOTcXMTNjPAmvcivz-26" value="" style="endArrow=none;html=1;rounded=0;exitX=0.511;exitY=0.998;exitDx=0;exitDy=0;strokeWidth=4;strokeColor=#009900;dashed=1;exitPerimeter=0;" edge="1" parent="1" source="e53sIIh-dQqDBN9aHjkJ-64">
          <mxGeometry width="50" height="50" relative="1" as="geometry">
            <mxPoint x="-240" y="10" as="sourcePoint" />
            <mxPoint x="-190" y="-40" as="targetPoint" />
          </mxGeometry>
        </mxCell>
      </root>
    </mxGraphModel>
  </diagram>
</mxfile>
